<svg width="1101" height="380" viewBox="0 0 1101 380" fill="none" xmlns="http://www.w3.org/2000/svg">
<path d="M18 158.66V162H0.755859L10.3711 150.486C11.5664 149.045 12.4395 147.779 12.9902 146.689C13.541 145.6 13.8164 144.609 13.8164 143.719C13.8164 142.441 13.4355 141.439 12.6738 140.713C11.9238 139.975 10.8926 139.605 9.58008 139.605C8.4082 139.605 7.44141 139.975 6.67969 140.713C5.91797 141.439 5.49023 142.4 5.39648 143.596H1.37109C1.37109 141.287 2.14453 139.447 3.69141 138.076C5.23828 136.693 7.31836 136.002 9.93164 136.002C12.416 136.002 14.373 136.641 15.8027 137.918C17.2441 139.195 17.9648 140.936 17.9648 143.139C17.9648 144.709 17.5488 146.297 16.7168 147.902C15.8965 149.496 14.1504 151.816 11.4785 154.863L8.20898 158.66H18ZM24.8906 160.049C24.8906 159.404 25.1133 158.854 25.5586 158.396C26.0039 157.939 26.5488 157.711 27.1934 157.711C27.8379 157.711 28.3828 157.939 28.8281 158.396C29.2734 158.854 29.4961 159.404 29.4961 160.049C29.4961 160.682 29.2734 161.221 28.8281 161.666C28.3828 162.1 27.8379 162.316 27.1934 162.316C26.5488 162.316 26.0039 162.1 25.5586 161.666C25.1133 161.221 24.8906 160.682 24.8906 160.049ZM50.625 147.023H51.6973C54.0176 147.023 55.5645 146.771 56.3379 146.268C57.1113 145.764 57.498 144.873 57.498 143.596C57.498 142.225 57.082 141.258 56.25 140.695C55.4297 140.133 53.9121 139.852 51.6973 139.852H50.625V147.023ZM50.3613 150.451V162H46.4414V136.266H52.7695C54.6445 136.266 56.0215 136.371 56.9004 136.582C57.791 136.781 58.5645 137.115 59.2207 137.584C60.0293 138.182 60.6621 138.99 61.1191 140.01C61.5762 141.018 61.8047 142.131 61.8047 143.35C61.8047 144.568 61.5762 145.693 61.1191 146.725C60.6621 147.756 60.0293 148.564 59.2207 149.15C58.5645 149.619 57.791 149.953 56.9004 150.152C56.0215 150.352 54.6445 150.451 52.7695 150.451H51.9434H50.3613ZM64.9512 138.129C64.9512 137.484 65.1855 136.928 65.6543 136.459C66.1348 135.99 66.7031 135.756 67.3594 135.756C68.0391 135.756 68.6016 135.984 69.0469 136.441C69.5039 136.887 69.7324 137.449 69.7324 138.129C69.7324 138.809 69.5039 139.383 69.0469 139.852C68.5898 140.309 68.0273 140.537 67.3594 140.537C66.7031 140.537 66.1348 140.303 65.6543 139.834C65.1855 139.354 64.9512 138.785 64.9512 138.129ZM65.4609 162V145.336H69.2754V162H65.4609ZM74.7422 162V145.336H78.3281V148.061C79.0898 146.912 79.9863 146.074 81.0176 145.547C82.0488 145.02 83.3027 144.756 84.7793 144.756C86.0215 144.756 87.0762 144.955 87.9434 145.354C88.8223 145.74 89.5078 146.32 90 147.094C90.293 147.551 90.5039 148.084 90.6328 148.693C90.7617 149.303 90.8262 150.369 90.8262 151.893V162H86.9766V153.439C86.9766 151.248 86.707 149.795 86.168 149.08C85.6406 148.354 84.6973 147.99 83.3379 147.99C82.4473 147.99 81.6504 148.154 80.9473 148.482C80.2559 148.811 79.7109 149.273 79.3125 149.871C79.0312 150.27 78.832 150.785 78.7148 151.418C78.6094 152.039 78.5566 153.035 78.5566 154.406V162H74.7422ZM107.877 153.615C107.877 151.893 107.473 150.551 106.664 149.59C105.867 148.629 104.748 148.148 103.307 148.148C101.865 148.148 100.729 148.646 99.8965 149.643C99.0762 150.627 98.666 151.998 98.666 153.756C98.666 155.525 99.0645 156.891 99.8613 157.852C100.658 158.812 101.783 159.293 103.236 159.293C104.607 159.293 105.721 158.771 106.576 157.729C107.443 156.686 107.877 155.314 107.877 153.615ZM111.586 160.963C111.586 164.221 110.936 166.512 109.635 167.836C108.334 169.172 106.143 169.84 103.061 169.84C100.764 169.84 98.9297 169.354 97.5586 168.381C96.1875 167.42 95.4902 166.137 95.4668 164.531L99.5625 164.514C99.6211 165.229 99.9551 165.773 100.564 166.148C101.174 166.523 102.029 166.711 103.131 166.711C104.76 166.711 105.932 166.354 106.646 165.639C107.361 164.924 107.725 163.729 107.736 162.053L107.771 159.838C107.092 160.799 106.295 161.514 105.381 161.982C104.479 162.451 103.441 162.686 102.27 162.686C99.9141 162.686 98.0566 161.883 96.6973 160.277C95.3496 158.66 94.6758 156.451 94.6758 153.65C94.6758 150.99 95.3672 148.846 96.75 147.217C98.1328 145.576 99.9375 144.756 102.164 144.756C103.523 144.756 104.684 145.043 105.645 145.617C106.617 146.18 107.326 146.994 107.771 148.061V145.336H111.586V160.963ZM118.143 135.686H122.15V156.094H118.143V135.686ZM117.826 160.383C117.826 159.75 118.049 159.211 118.494 158.766C118.951 158.309 119.496 158.08 120.129 158.08C120.773 158.08 121.318 158.303 121.764 158.748C122.209 159.193 122.432 159.738 122.432 160.383C122.432 161.016 122.209 161.555 121.764 162C121.318 162.457 120.773 162.686 120.129 162.686C119.484 162.686 118.939 162.457 118.494 162C118.049 161.555 117.826 161.016 117.826 160.383ZM24.9785 215.186C24.9785 213.885 24.7383 212.648 24.2578 211.477C23.7891 210.305 23.1094 209.262 22.2188 208.348C21.3516 207.445 20.3438 206.754 19.1953 206.273C18.0586 205.781 16.8574 205.535 15.5918 205.535C14.3262 205.535 13.1191 205.775 11.9707 206.256C10.834 206.736 9.82031 207.434 8.92969 208.348C8.03906 209.25 7.35938 210.287 6.89062 211.459C6.42188 212.631 6.1875 213.873 6.1875 215.186C6.1875 216.486 6.42188 217.717 6.89062 218.877C7.35938 220.037 8.03906 221.074 8.92969 221.988C9.82031 222.902 10.834 223.6 11.9707 224.08C13.1074 224.561 14.3145 224.801 15.5918 224.801C16.8457 224.801 18.0352 224.561 19.1602 224.08C20.2969 223.6 21.3164 222.902 22.2188 221.988C23.1094 221.074 23.7891 220.037 24.2578 218.877C24.7383 217.705 24.9785 216.475 24.9785 215.186ZM29.3379 215.186C29.3379 217.014 28.9922 218.742 28.3008 220.371C27.6211 222 26.625 223.453 25.3125 224.73C23.9883 226.008 22.4941 226.986 20.8301 227.666C19.166 228.346 17.4199 228.686 15.5918 228.686C13.7402 228.686 11.9707 228.346 10.2832 227.666C8.60742 226.975 7.125 225.996 5.83594 224.73C4.52344 223.453 3.52734 222.006 2.84766 220.389C2.16797 218.771 1.82812 217.037 1.82812 215.186C1.82812 213.346 2.16797 211.611 2.84766 209.982C3.52734 208.354 4.52344 206.895 5.83594 205.605C7.14844 204.328 8.63672 203.355 10.3008 202.688C11.9648 202.02 13.7285 201.686 15.5918 201.686C17.4434 201.686 19.1953 202.02 20.8477 202.688C22.5117 203.355 24 204.328 25.3125 205.605C26.625 206.906 27.6211 208.377 28.3008 210.018C28.9922 211.646 29.3379 213.369 29.3379 215.186ZM37.5117 211.336V220.723C37.5117 222.34 37.8457 223.5 38.5137 224.203C39.1816 224.906 40.2656 225.258 41.7656 225.258C43.2656 225.258 44.3496 224.906 45.0176 224.203C45.6855 223.5 46.0195 222.34 46.0195 220.723V211.336H49.834V219.58C49.834 222.768 49.1953 225.082 47.918 226.523C46.6406 227.965 44.6016 228.686 41.8008 228.686C38.9531 228.686 36.8906 227.971 35.6133 226.541C34.3359 225.111 33.6973 222.791 33.6973 219.58V211.336H37.5117ZM58.7988 213.99C59.209 212.889 59.748 212.074 60.416 211.547C61.0957 211.02 61.9336 210.756 62.9297 210.756C63.4688 210.756 63.9961 210.82 64.5117 210.949C65.0391 211.078 65.5547 211.266 66.0586 211.512L64.6875 214.746C64.3594 214.512 64.002 214.342 63.6152 214.236C63.2402 214.119 62.8184 214.061 62.3496 214.061C61.084 214.061 60.1758 214.57 59.625 215.59C59.0742 216.598 58.7988 218.297 58.7988 220.688V228H54.9844V211.301H58.7988V213.99ZM82.793 219.615C82.793 221.338 83.2207 222.715 84.0762 223.746C84.9434 224.777 86.0801 225.293 87.4863 225.293C88.9277 225.293 90.041 224.812 90.8262 223.852C91.623 222.891 92.0215 221.525 92.0215 219.756C92.0215 217.998 91.6055 216.627 90.7734 215.643C89.9531 214.646 88.8223 214.148 87.3809 214.148C85.9395 214.148 84.8145 214.629 84.0059 215.59C83.1973 216.551 82.793 217.893 82.793 219.615ZM79.1016 235.84V211.336H82.916V214.061C83.3613 213.006 84.0703 212.191 85.043 211.617C86.0273 211.043 87.1992 210.756 88.5586 210.756C90.7734 210.756 92.5664 211.576 93.9375 213.217C95.3203 214.846 96.0117 216.99 96.0117 219.65C96.0117 222.451 95.332 224.66 93.9727 226.277C92.625 227.883 90.7734 228.686 88.418 228.686C87.2461 228.686 86.2031 228.451 85.2891 227.982C84.3867 227.514 83.5957 226.799 82.916 225.838V235.84H79.1016ZM99.7207 204.129C99.7207 203.484 99.9551 202.928 100.424 202.459C100.904 201.99 101.473 201.756 102.129 201.756C102.809 201.756 103.371 201.984 103.816 202.441C104.273 202.887 104.502 203.449 104.502 204.129C104.502 204.809 104.273 205.383 103.816 205.852C103.359 206.309 102.797 206.537 102.129 206.537C101.473 206.537 100.904 206.303 100.424 205.834C99.9551 205.354 99.7207 204.785 99.7207 204.129ZM100.23 228V211.336H104.045V228H100.23ZM121.957 216.082C121.371 215.438 120.686 214.945 119.9 214.605C119.127 214.266 118.289 214.096 117.387 214.096C115.828 214.096 114.58 214.6 113.643 215.607C112.705 216.615 112.236 217.951 112.236 219.615C112.236 221.35 112.705 222.715 113.643 223.711C114.592 224.695 115.898 225.188 117.562 225.188C118.488 225.188 119.314 225.018 120.041 224.678C120.768 224.326 121.406 223.799 121.957 223.096V227.49C121.254 227.889 120.498 228.188 119.689 228.387C118.893 228.586 118.043 228.686 117.141 228.686C114.527 228.686 112.395 227.854 110.742 226.189C109.102 224.525 108.281 222.369 108.281 219.721C108.281 217.037 109.131 214.875 110.83 213.234C112.541 211.582 114.773 210.756 117.527 210.756C118.395 210.756 119.191 210.844 119.918 211.02C120.645 211.184 121.324 211.441 121.957 211.793V216.082ZM125.859 228V200.754H129.674V218.244L136.652 211.336H141.363L133.805 218.684L142.084 228H137.162L129.674 219.404V228H125.859ZM148.148 211.336V220.723C148.148 222.34 148.482 223.5 149.15 224.203C149.818 224.906 150.902 225.258 152.402 225.258C153.902 225.258 154.986 224.906 155.654 224.203C156.322 223.5 156.656 222.34 156.656 220.723V211.336H160.471V219.58C160.471 222.768 159.832 225.082 158.555 226.523C157.277 227.965 155.238 228.686 152.438 228.686C149.59 228.686 147.527 227.971 146.25 226.541C144.973 225.111 144.334 222.791 144.334 219.58V211.336H148.148ZM169.312 219.615C169.312 221.338 169.74 222.715 170.596 223.746C171.463 224.777 172.6 225.293 174.006 225.293C175.447 225.293 176.561 224.812 177.346 223.852C178.143 222.891 178.541 221.525 178.541 219.756C178.541 217.998 178.125 216.627 177.293 215.643C176.473 214.646 175.342 214.148 173.9 214.148C172.459 214.148 171.334 214.629 170.525 215.59C169.717 216.551 169.312 217.893 169.312 219.615ZM165.621 235.84V211.336H169.436V214.061C169.881 213.006 170.59 212.191 171.562 211.617C172.547 211.043 173.719 210.756 175.078 210.756C177.293 210.756 179.086 211.576 180.457 213.217C181.84 214.846 182.531 216.99 182.531 219.65C182.531 222.451 181.852 224.66 180.492 226.277C179.145 227.883 177.293 228.686 174.938 228.686C173.766 228.686 172.723 228.451 171.809 227.982C170.906 227.514 170.115 226.799 169.436 225.838V235.84H165.621ZM209.408 219.615C209.408 217.893 209.004 216.551 208.195 215.59C207.398 214.629 206.279 214.148 204.838 214.148C203.396 214.148 202.26 214.646 201.428 215.643C200.607 216.627 200.197 217.998 200.197 219.756C200.197 221.525 200.596 222.891 201.393 223.852C202.189 224.812 203.314 225.293 204.768 225.293C206.15 225.293 207.27 224.777 208.125 223.746C208.98 222.703 209.408 221.326 209.408 219.615ZM209.303 200.754H213.117V228H209.303V225.838C208.623 226.799 207.826 227.514 206.912 227.982C206.01 228.451 204.973 228.686 203.801 228.686C201.445 228.686 199.588 227.883 198.229 226.277C196.881 224.66 196.207 222.451 196.207 219.65C196.207 216.99 196.898 214.846 198.281 213.217C199.664 211.576 201.469 210.756 203.695 210.756C205.055 210.756 206.215 211.043 207.176 211.617C208.148 212.18 208.857 212.994 209.303 214.061V200.754ZM222.082 211.336V220.723C222.082 222.34 222.416 223.5 223.084 224.203C223.752 224.906 224.836 225.258 226.336 225.258C227.836 225.258 228.92 224.906 229.588 224.203C230.256 223.5 230.59 222.34 230.59 220.723V211.336H234.404V219.58C234.404 222.768 233.766 225.082 232.488 226.523C231.211 227.965 229.172 228.686 226.371 228.686C223.523 228.686 221.461 227.971 220.184 226.541C218.906 225.111 218.268 222.791 218.268 219.58V211.336H222.082ZM251.525 219.615C251.525 217.893 251.121 216.551 250.312 215.59C249.516 214.629 248.396 214.148 246.955 214.148C245.514 214.148 244.377 214.646 243.545 215.643C242.725 216.627 242.314 217.998 242.314 219.756C242.314 221.525 242.713 222.891 243.51 223.852C244.307 224.812 245.432 225.293 246.885 225.293C248.268 225.293 249.387 224.777 250.242 223.746C251.098 222.703 251.525 221.326 251.525 219.615ZM251.42 200.754H255.234V228H251.42V225.838C250.74 226.799 249.943 227.514 249.029 227.982C248.127 228.451 247.09 228.686 245.918 228.686C243.562 228.686 241.705 227.883 240.346 226.277C238.998 224.66 238.324 222.451 238.324 219.65C238.324 216.99 239.016 214.846 240.398 213.217C241.781 211.576 243.586 210.756 245.812 210.756C247.172 210.756 248.332 211.043 249.293 211.617C250.266 212.18 250.975 212.994 251.42 214.061V200.754ZM276.557 220.23H263.232C263.326 221.789 263.789 223.008 264.621 223.887C265.453 224.754 266.561 225.188 267.943 225.188C269.174 225.188 270.199 224.93 271.02 224.414C271.84 223.898 272.555 223.066 273.164 221.918L276.381 223.711C275.443 225.387 274.283 226.635 272.9 227.455C271.518 228.275 269.895 228.686 268.031 228.686C265.359 228.686 263.232 227.871 261.65 226.242C260.068 224.613 259.277 222.439 259.277 219.721C259.277 217.107 260.092 214.963 261.721 213.287C263.361 211.6 265.465 210.756 268.031 210.756C270.715 210.756 272.807 211.523 274.307 213.059C275.807 214.594 276.557 216.744 276.557 219.51V220.23ZM272.602 217.664C272.449 216.469 271.992 215.561 271.23 214.939C270.469 214.307 269.426 213.99 268.102 213.99C266.848 213.99 265.84 214.295 265.078 214.904C264.316 215.514 263.783 216.434 263.479 217.664H272.602ZM278.631 224.977L281.795 223.254C282.029 224.086 282.463 224.719 283.096 225.152C283.729 225.586 284.543 225.803 285.539 225.803C286.395 225.803 287.062 225.609 287.543 225.223C288.035 224.824 288.281 224.285 288.281 223.605C288.281 222.703 287.414 221.93 285.68 221.285C285.094 221.074 284.643 220.898 284.326 220.758C282.545 220.02 281.297 219.27 280.582 218.508C279.879 217.746 279.527 216.82 279.527 215.73C279.527 214.242 280.107 213.035 281.268 212.109C282.439 211.184 283.986 210.721 285.908 210.721C287.197 210.721 288.299 210.961 289.213 211.441C290.139 211.91 290.812 212.584 291.234 213.463L288.527 215.326C288.328 214.799 287.977 214.383 287.473 214.078C286.98 213.762 286.406 213.604 285.75 213.604C285.023 213.604 284.438 213.779 283.992 214.131C283.559 214.471 283.342 214.928 283.342 215.502C283.342 216.369 284.326 217.16 286.295 217.875C286.916 218.098 287.396 218.279 287.736 218.42C289.271 219.029 290.367 219.721 291.023 220.494C291.691 221.256 292.025 222.211 292.025 223.359C292.025 225.023 291.422 226.33 290.215 227.279C289.008 228.217 287.344 228.686 285.223 228.686C283.594 228.686 282.24 228.381 281.162 227.771C280.084 227.162 279.24 226.23 278.631 224.977ZM319.184 216.082C318.598 215.438 317.912 214.945 317.127 214.605C316.354 214.266 315.516 214.096 314.613 214.096C313.055 214.096 311.807 214.6 310.869 215.607C309.932 216.615 309.463 217.951 309.463 219.615C309.463 221.35 309.932 222.715 310.869 223.711C311.818 224.695 313.125 225.188 314.789 225.188C315.715 225.188 316.541 225.018 317.268 224.678C317.994 224.326 318.633 223.799 319.184 223.096V227.49C318.48 227.889 317.725 228.188 316.916 228.387C316.119 228.586 315.27 228.686 314.367 228.686C311.754 228.686 309.621 227.854 307.969 226.189C306.328 224.525 305.508 222.369 305.508 219.721C305.508 217.037 306.357 214.875 308.057 213.234C309.768 211.582 312 210.756 314.754 210.756C315.621 210.756 316.418 210.844 317.145 211.02C317.871 211.184 318.551 211.441 319.184 211.793V216.082ZM323.262 228V200.754H327.076V228H323.262ZM345.639 219.721C345.639 218.174 345.141 216.867 344.145 215.801C343.148 214.723 341.93 214.184 340.488 214.184C339.059 214.184 337.84 214.723 336.832 215.801C335.836 216.867 335.338 218.174 335.338 219.721C335.338 221.268 335.836 222.58 336.832 223.658C337.84 224.725 339.059 225.258 340.488 225.258C341.918 225.258 343.131 224.725 344.127 223.658C345.135 222.58 345.639 221.268 345.639 219.721ZM331.312 219.686C331.312 218.467 331.541 217.318 331.998 216.24C332.467 215.15 333.135 214.184 334.002 213.34C334.857 212.508 335.842 211.869 336.955 211.424C338.068 210.979 339.234 210.756 340.453 210.756C341.707 210.756 342.885 210.979 343.986 211.424C345.1 211.869 346.096 212.525 346.975 213.393C347.854 214.248 348.521 215.215 348.979 216.293C349.436 217.371 349.664 218.502 349.664 219.686C349.664 220.916 349.436 222.07 348.979 223.148C348.533 224.227 347.877 225.182 347.01 226.014C346.096 226.893 345.082 227.555 343.969 228C342.855 228.457 341.684 228.686 340.453 228.686C339.246 228.686 338.086 228.457 336.973 228C335.859 227.555 334.869 226.904 334.002 226.049C333.123 225.182 332.455 224.209 331.998 223.131C331.541 222.053 331.312 220.904 331.312 219.686ZM351.791 224.977L354.955 223.254C355.189 224.086 355.623 224.719 356.256 225.152C356.889 225.586 357.703 225.803 358.699 225.803C359.555 225.803 360.223 225.609 360.703 225.223C361.195 224.824 361.441 224.285 361.441 223.605C361.441 222.703 360.574 221.93 358.84 221.285C358.254 221.074 357.803 220.898 357.486 220.758C355.705 220.02 354.457 219.27 353.742 218.508C353.039 217.746 352.688 216.82 352.688 215.73C352.688 214.242 353.268 213.035 354.428 212.109C355.6 211.184 357.146 210.721 359.068 210.721C360.357 210.721 361.459 210.961 362.373 211.441C363.299 211.91 363.973 212.584 364.395 213.463L361.688 215.326C361.488 214.799 361.137 214.383 360.633 214.078C360.141 213.762 359.566 213.604 358.91 213.604C358.184 213.604 357.598 213.779 357.152 214.131C356.719 214.471 356.502 214.928 356.502 215.502C356.502 216.369 357.486 217.16 359.455 217.875C360.076 218.098 360.557 218.279 360.896 218.42C362.432 219.029 363.527 219.721 364.184 220.494C364.852 221.256 365.186 222.211 365.186 223.359C365.186 225.023 364.582 226.33 363.375 227.279C362.168 228.217 360.504 228.686 358.383 228.686C356.754 228.686 355.4 228.381 354.322 227.771C353.244 227.162 352.4 226.23 351.791 224.977ZM385.084 220.23H371.76C371.854 221.789 372.316 223.008 373.148 223.887C373.98 224.754 375.088 225.188 376.471 225.188C377.701 225.188 378.727 224.93 379.547 224.414C380.367 223.898 381.082 223.066 381.691 221.918L384.908 223.711C383.971 225.387 382.811 226.635 381.428 227.455C380.045 228.275 378.422 228.686 376.559 228.686C373.887 228.686 371.76 227.871 370.178 226.242C368.596 224.613 367.805 222.439 367.805 219.721C367.805 217.107 368.619 214.963 370.248 213.287C371.889 211.6 373.992 210.756 376.559 210.756C379.242 210.756 381.334 211.523 382.834 213.059C384.334 214.594 385.084 216.744 385.084 219.51V220.23ZM381.129 217.664C380.977 216.469 380.52 215.561 379.758 214.939C378.996 214.307 377.953 213.99 376.629 213.99C375.375 213.99 374.367 214.295 373.605 214.904C372.844 215.514 372.311 216.434 372.006 217.664H381.129ZM387.158 224.977L390.322 223.254C390.557 224.086 390.99 224.719 391.623 225.152C392.256 225.586 393.07 225.803 394.066 225.803C394.922 225.803 395.59 225.609 396.07 225.223C396.562 224.824 396.809 224.285 396.809 223.605C396.809 222.703 395.941 221.93 394.207 221.285C393.621 221.074 393.17 220.898 392.854 220.758C391.072 220.02 389.824 219.27 389.109 218.508C388.406 217.746 388.055 216.82 388.055 215.73C388.055 214.242 388.635 213.035 389.795 212.109C390.967 211.184 392.514 210.721 394.436 210.721C395.725 210.721 396.826 210.961 397.74 211.441C398.666 211.91 399.34 212.584 399.762 213.463L397.055 215.326C396.855 214.799 396.504 214.383 396 214.078C395.508 213.762 394.934 213.604 394.277 213.604C393.551 213.604 392.965 213.779 392.52 214.131C392.086 214.471 391.869 214.928 391.869 215.502C391.869 216.369 392.854 217.16 394.822 217.875C395.443 218.098 395.924 218.279 396.264 218.42C397.799 219.029 398.895 219.721 399.551 220.494C400.219 221.256 400.553 222.211 400.553 223.359C400.553 225.023 399.949 226.33 398.742 227.279C397.535 228.217 395.871 228.686 393.75 228.686C392.121 228.686 390.768 228.381 389.689 227.771C388.611 227.162 387.768 226.23 387.158 224.977ZM405.299 228V214.676H402.381V211.336H405.299V205.025H409.113V211.336H412.031V214.676H409.113V228H405.299ZM427.096 228V214.676H424.178V211.336H427.096V205.025H430.91V211.336H433.828V214.676H430.91V228H427.096ZM450.229 219.721C450.229 218.174 449.73 216.867 448.734 215.801C447.738 214.723 446.52 214.184 445.078 214.184C443.648 214.184 442.43 214.723 441.422 215.801C440.426 216.867 439.928 218.174 439.928 219.721C439.928 221.268 440.426 222.58 441.422 223.658C442.43 224.725 443.648 225.258 445.078 225.258C446.508 225.258 447.721 224.725 448.717 223.658C449.725 222.58 450.229 221.268 450.229 219.721ZM435.902 219.686C435.902 218.467 436.131 217.318 436.588 216.24C437.057 215.15 437.725 214.184 438.592 213.34C439.447 212.508 440.432 211.869 441.545 211.424C442.658 210.979 443.824 210.756 445.043 210.756C446.297 210.756 447.475 210.979 448.576 211.424C449.689 211.869 450.686 212.525 451.564 213.393C452.443 214.248 453.111 215.215 453.568 216.293C454.025 217.371 454.254 218.502 454.254 219.686C454.254 220.916 454.025 222.07 453.568 223.148C453.123 224.227 452.467 225.182 451.6 226.014C450.686 226.893 449.672 227.555 448.559 228C447.445 228.457 446.273 228.686 445.043 228.686C443.836 228.686 442.676 228.457 441.562 228C440.449 227.555 439.459 226.904 438.592 226.049C437.713 225.182 437.045 224.209 436.588 223.131C436.131 222.053 435.902 220.904 435.902 219.686ZM472.025 235.84H468.105L472.676 226.559L466.559 211.336H470.777L473.836 219.967C474.012 220.494 474.164 221.033 474.293 221.584C474.434 222.123 474.545 222.674 474.627 223.236C474.779 222.65 475.143 221.719 475.717 220.441L475.805 220.23L479.918 211.336H484.049L472.025 235.84ZM499.236 219.721C499.236 218.174 498.738 216.867 497.742 215.801C496.746 214.723 495.527 214.184 494.086 214.184C492.656 214.184 491.438 214.723 490.43 215.801C489.434 216.867 488.936 218.174 488.936 219.721C488.936 221.268 489.434 222.58 490.43 223.658C491.438 224.725 492.656 225.258 494.086 225.258C495.516 225.258 496.729 224.725 497.725 223.658C498.732 222.58 499.236 221.268 499.236 219.721ZM484.91 219.686C484.91 218.467 485.139 217.318 485.596 216.24C486.064 215.15 486.732 214.184 487.6 213.34C488.455 212.508 489.439 211.869 490.553 211.424C491.666 210.979 492.832 210.756 494.051 210.756C495.305 210.756 496.482 210.979 497.584 211.424C498.697 211.869 499.693 212.525 500.572 213.393C501.451 214.248 502.119 215.215 502.576 216.293C503.033 217.371 503.262 218.502 503.262 219.686C503.262 220.916 503.033 222.07 502.576 223.148C502.131 224.227 501.475 225.182 500.607 226.014C499.693 226.893 498.68 227.555 497.566 228C496.453 228.457 495.281 228.686 494.051 228.686C492.844 228.686 491.684 228.457 490.57 228C489.457 227.555 488.467 226.904 487.6 226.049C486.721 225.182 486.053 224.209 485.596 223.131C485.139 222.053 484.91 220.904 484.91 219.686ZM510.996 211.336V220.723C510.996 222.34 511.33 223.5 511.998 224.203C512.666 224.906 513.75 225.258 515.25 225.258C516.75 225.258 517.834 224.906 518.502 224.203C519.17 223.5 519.504 222.34 519.504 220.723V211.336H523.318V219.58C523.318 222.768 522.68 225.082 521.402 226.523C520.125 227.965 518.086 228.686 515.285 228.686C512.438 228.686 510.375 227.971 509.098 226.541C507.82 225.111 507.182 222.791 507.182 219.58V211.336H510.996ZM14.6074 285.615C14.6074 283.893 14.2031 282.551 13.3945 281.59C12.5977 280.629 11.4785 280.148 10.0371 280.148C8.5957 280.148 7.45898 280.646 6.62695 281.643C5.80664 282.627 5.39648 283.998 5.39648 285.756C5.39648 287.525 5.79492 288.891 6.5918 289.852C7.38867 290.812 8.51367 291.293 9.9668 291.293C11.3379 291.293 12.4512 290.771 13.3066 289.729C14.1738 288.686 14.6074 287.314 14.6074 285.615ZM18.3164 292.963C18.3164 296.221 17.666 298.512 16.3652 299.836C15.0645 301.172 12.873 301.84 9.79102 301.84C7.49414 301.84 5.66016 301.354 4.28906 300.381C2.91797 299.42 2.2207 298.137 2.19727 296.531L6.29297 296.514C6.35156 297.229 6.68555 297.773 7.29492 298.148C7.9043 298.523 8.75977 298.711 9.86133 298.711C11.4902 298.711 12.6621 298.354 13.377 297.639C14.0918 296.924 14.4551 295.729 14.4668 294.053L14.502 291.838C13.8223 292.799 13.0254 293.514 12.1113 293.982C11.209 294.451 10.1719 294.686 9 294.686C6.64453 294.686 4.78711 293.883 3.42773 292.277C2.08008 290.66 1.40625 288.451 1.40625 285.65C1.40625 282.99 2.09766 280.846 3.48047 279.217C4.86328 277.576 6.66797 276.756 8.89453 276.756C10.2539 276.756 11.4141 277.043 12.375 277.617C13.3477 278.18 14.0566 278.994 14.502 280.061V277.336H18.3164V292.963ZM39.6387 286.23H26.3145C26.4082 287.789 26.8711 289.008 27.7031 289.887C28.5352 290.754 29.6426 291.188 31.0254 291.188C32.2559 291.188 33.2812 290.93 34.1016 290.414C34.9219 289.898 35.6367 289.066 36.2461 287.918L39.4629 289.711C38.5254 291.387 37.3652 292.635 35.9824 293.455C34.5996 294.275 32.9766 294.686 31.1133 294.686C28.4414 294.686 26.3145 293.871 24.7324 292.242C23.1504 290.613 22.3594 288.439 22.3594 285.721C22.3594 283.107 23.1738 280.963 24.8027 279.287C26.4434 277.6 28.5469 276.756 31.1133 276.756C33.7969 276.756 35.8887 277.523 37.3887 279.059C38.8887 280.594 39.6387 282.744 39.6387 285.51V286.23ZM35.6836 283.664C35.5312 282.469 35.0742 281.561 34.3125 280.939C33.5508 280.307 32.5078 279.99 31.1836 279.99C29.9297 279.99 28.9219 280.295 28.1602 280.904C27.3984 281.514 26.8652 282.434 26.5605 283.664H35.6836ZM44.5254 294V280.676H41.6074V277.336H44.5254V271.025H48.3398V277.336H51.2578V280.676H48.3398V294H44.5254ZM52.6465 290.977L55.8105 289.254C56.0449 290.086 56.4785 290.719 57.1113 291.152C57.7441 291.586 58.5586 291.803 59.5547 291.803C60.4102 291.803 61.0781 291.609 61.5586 291.223C62.0508 290.824 62.2969 290.285 62.2969 289.605C62.2969 288.703 61.4297 287.93 59.6953 287.285C59.1094 287.074 58.6582 286.898 58.3418 286.758C56.5605 286.02 55.3125 285.27 54.5977 284.508C53.8945 283.746 53.543 282.82 53.543 281.73C53.543 280.242 54.123 279.035 55.2832 278.109C56.4551 277.184 58.002 276.721 59.9238 276.721C61.2129 276.721 62.3145 276.961 63.2285 277.441C64.1543 277.91 64.8281 278.584 65.25 279.463L62.543 281.326C62.3438 280.799 61.9922 280.383 61.4883 280.078C60.9961 279.762 60.4219 279.604 59.7656 279.604C59.0391 279.604 58.4531 279.779 58.0078 280.131C57.5742 280.471 57.3574 280.928 57.3574 281.502C57.3574 282.369 58.3418 283.16 60.3105 283.875C60.9316 284.098 61.4121 284.279 61.752 284.42C63.2871 285.029 64.3828 285.721 65.0391 286.494C65.707 287.256 66.041 288.211 66.041 289.359C66.041 291.023 65.4375 292.33 64.2305 293.279C63.0234 294.217 61.3594 294.686 59.2383 294.686C57.6094 294.686 56.2559 294.381 55.1777 293.771C54.0996 293.162 53.2559 292.23 52.6465 290.977ZM93.1992 282.082C92.6133 281.438 91.9277 280.945 91.1426 280.605C90.3691 280.266 89.5312 280.096 88.6289 280.096C87.0703 280.096 85.8223 280.6 84.8848 281.607C83.9473 282.615 83.4785 283.951 83.4785 285.615C83.4785 287.35 83.9473 288.715 84.8848 289.711C85.834 290.695 87.1406 291.188 88.8047 291.188C89.7305 291.188 90.5566 291.018 91.2832 290.678C92.0098 290.326 92.6484 289.799 93.1992 289.096V293.49C92.4961 293.889 91.7402 294.188 90.9316 294.387C90.1348 294.586 89.2852 294.686 88.3828 294.686C85.7695 294.686 83.6367 293.854 81.9844 292.189C80.3438 290.525 79.5234 288.369 79.5234 285.721C79.5234 283.037 80.373 280.875 82.0723 279.234C83.7832 277.582 86.0156 276.756 88.7695 276.756C89.6367 276.756 90.4336 276.844 91.1602 277.02C91.8867 277.184 92.5664 277.441 93.1992 277.793V282.082ZM110.197 285.721C110.197 284.174 109.699 282.867 108.703 281.801C107.707 280.723 106.488 280.184 105.047 280.184C103.617 280.184 102.398 280.723 101.391 281.801C100.395 282.867 99.8965 284.174 99.8965 285.721C99.8965 287.268 100.395 288.58 101.391 289.658C102.398 290.725 103.617 291.258 105.047 291.258C106.477 291.258 107.689 290.725 108.686 289.658C109.693 288.58 110.197 287.268 110.197 285.721ZM95.8711 285.686C95.8711 284.467 96.0996 283.318 96.5566 282.24C97.0254 281.15 97.6934 280.184 98.5605 279.34C99.416 278.508 100.4 277.869 101.514 277.424C102.627 276.979 103.793 276.756 105.012 276.756C106.266 276.756 107.443 276.979 108.545 277.424C109.658 277.869 110.654 278.525 111.533 279.393C112.412 280.248 113.08 281.215 113.537 282.293C113.994 283.371 114.223 284.502 114.223 285.686C114.223 286.916 113.994 288.07 113.537 289.148C113.092 290.227 112.436 291.182 111.568 292.014C110.654 292.893 109.641 293.555 108.527 294C107.414 294.457 106.242 294.686 105.012 294.686C103.805 294.686 102.645 294.457 101.531 294C100.418 293.555 99.4277 292.904 98.5605 292.049C97.6816 291.182 97.0137 290.209 96.5566 289.131C96.0996 288.053 95.8711 286.904 95.8711 285.686ZM118.266 294V277.336H121.852V280.061C122.613 278.912 123.51 278.074 124.541 277.547C125.572 277.02 126.826 276.756 128.303 276.756C129.545 276.756 130.6 276.955 131.467 277.354C132.346 277.74 133.031 278.32 133.523 279.094C133.816 279.551 134.027 280.084 134.156 280.693C134.285 281.303 134.35 282.369 134.35 283.893V294H130.5V285.439C130.5 283.248 130.23 281.795 129.691 281.08C129.164 280.354 128.221 279.99 126.861 279.99C125.971 279.99 125.174 280.154 124.471 280.482C123.779 280.811 123.234 281.273 122.836 281.871C122.555 282.27 122.355 282.785 122.238 283.418C122.133 284.039 122.08 285.035 122.08 286.406V294H118.266ZM139.43 294V277.336H143.016V280.061C143.777 278.912 144.674 278.074 145.705 277.547C146.736 277.02 147.99 276.756 149.467 276.756C150.709 276.756 151.764 276.955 152.631 277.354C153.51 277.74 154.195 278.32 154.688 279.094C154.98 279.551 155.191 280.084 155.32 280.693C155.449 281.303 155.514 282.369 155.514 283.893V294H151.664V285.439C151.664 283.248 151.395 281.795 150.855 281.08C150.328 280.354 149.385 279.99 148.025 279.99C147.135 279.99 146.338 280.154 145.635 280.482C144.943 280.811 144.398 281.273 144 281.871C143.719 282.27 143.52 282.785 143.402 283.418C143.297 284.039 143.244 285.035 143.244 286.406V294H139.43ZM176.643 286.23H163.318C163.412 287.789 163.875 289.008 164.707 289.887C165.539 290.754 166.646 291.188 168.029 291.188C169.26 291.188 170.285 290.93 171.105 290.414C171.926 289.898 172.641 289.066 173.25 287.918L176.467 289.711C175.529 291.387 174.369 292.635 172.986 293.455C171.604 294.275 169.98 294.686 168.117 294.686C165.445 294.686 163.318 293.871 161.736 292.242C160.154 290.613 159.363 288.439 159.363 285.721C159.363 283.107 160.178 280.963 161.807 279.287C163.447 277.6 165.551 276.756 168.117 276.756C170.801 276.756 172.893 277.523 174.393 279.059C175.893 280.594 176.643 282.744 176.643 285.51V286.23ZM172.688 283.664C172.535 282.469 172.078 281.561 171.316 280.939C170.555 280.307 169.512 279.99 168.188 279.99C166.934 279.99 165.926 280.295 165.164 280.904C164.402 281.514 163.869 282.434 163.564 283.664H172.688ZM193.078 282.082C192.492 281.438 191.807 280.945 191.021 280.605C190.248 280.266 189.41 280.096 188.508 280.096C186.949 280.096 185.701 280.6 184.764 281.607C183.826 282.615 183.357 283.951 183.357 285.615C183.357 287.35 183.826 288.715 184.764 289.711C185.713 290.695 187.02 291.188 188.684 291.188C189.609 291.188 190.436 291.018 191.162 290.678C191.889 290.326 192.527 289.799 193.078 289.096V293.49C192.375 293.889 191.619 294.188 190.811 294.387C190.014 294.586 189.164 294.686 188.262 294.686C185.648 294.686 183.516 293.854 181.863 292.189C180.223 290.525 179.402 288.369 179.402 285.721C179.402 283.037 180.252 280.875 181.951 279.234C183.662 277.582 185.895 276.756 188.648 276.756C189.516 276.756 190.312 276.844 191.039 277.02C191.766 277.184 192.445 277.441 193.078 277.793V282.082ZM197.877 294V280.676H194.959V277.336H197.877V271.025H201.691V277.336H204.609V280.676H201.691V294H197.877ZM223.963 286.23H210.639C210.732 287.789 211.195 289.008 212.027 289.887C212.859 290.754 213.967 291.188 215.35 291.188C216.58 291.188 217.605 290.93 218.426 290.414C219.246 289.898 219.961 289.066 220.57 287.918L223.787 289.711C222.85 291.387 221.689 292.635 220.307 293.455C218.924 294.275 217.301 294.686 215.438 294.686C212.766 294.686 210.639 293.871 209.057 292.242C207.475 290.613 206.684 288.439 206.684 285.721C206.684 283.107 207.498 280.963 209.127 279.287C210.768 277.6 212.871 276.756 215.438 276.756C218.121 276.756 220.213 277.523 221.713 279.059C223.213 280.594 223.963 282.744 223.963 285.51V286.23ZM220.008 283.664C219.855 282.469 219.398 281.561 218.637 280.939C217.875 280.307 216.832 279.99 215.508 279.99C214.254 279.99 213.246 280.295 212.484 280.904C211.723 281.514 211.189 282.434 210.885 283.664H220.008ZM239.924 285.615C239.924 283.893 239.52 282.551 238.711 281.59C237.914 280.629 236.795 280.148 235.354 280.148C233.912 280.148 232.775 280.646 231.943 281.643C231.123 282.627 230.713 283.998 230.713 285.756C230.713 287.525 231.111 288.891 231.908 289.852C232.705 290.812 233.83 291.293 235.283 291.293C236.666 291.293 237.785 290.777 238.641 289.746C239.496 288.703 239.924 287.326 239.924 285.615ZM239.818 266.754H243.633V294H239.818V291.838C239.139 292.799 238.342 293.514 237.428 293.982C236.525 294.451 235.488 294.686 234.316 294.686C231.961 294.686 230.104 293.883 228.744 292.277C227.396 290.66 226.723 288.451 226.723 285.65C226.723 282.99 227.414 280.846 228.797 279.217C230.18 277.576 231.984 276.756 234.211 276.756C235.57 276.756 236.73 277.043 237.691 277.617C238.664 278.18 239.373 278.994 239.818 280.061V266.754ZM260.666 294V280.676H257.748V277.336H260.666V271.025H264.48V277.336H267.398V280.676H264.48V294H260.666ZM283.799 285.721C283.799 284.174 283.301 282.867 282.305 281.801C281.309 280.723 280.09 280.184 278.648 280.184C277.219 280.184 276 280.723 274.992 281.801C273.996 282.867 273.498 284.174 273.498 285.721C273.498 287.268 273.996 288.58 274.992 289.658C276 290.725 277.219 291.258 278.648 291.258C280.078 291.258 281.291 290.725 282.287 289.658C283.295 288.58 283.799 287.268 283.799 285.721ZM269.473 285.686C269.473 284.467 269.701 283.318 270.158 282.24C270.627 281.15 271.295 280.184 272.162 279.34C273.018 278.508 274.002 277.869 275.115 277.424C276.229 276.979 277.395 276.756 278.613 276.756C279.867 276.756 281.045 276.979 282.146 277.424C283.26 277.869 284.256 278.525 285.135 279.393C286.014 280.248 286.682 281.215 287.139 282.293C287.596 283.371 287.824 284.502 287.824 285.686C287.824 286.916 287.596 288.07 287.139 289.148C286.693 290.227 286.037 291.182 285.17 292.014C284.256 292.893 283.242 293.555 282.129 294C281.016 294.457 279.844 294.686 278.613 294.686C277.406 294.686 276.246 294.457 275.133 294C274.02 293.555 273.029 292.904 272.162 292.049C271.283 291.182 270.615 290.209 270.158 289.131C269.701 288.053 269.473 286.904 269.473 285.686ZM305.596 301.84H301.676L306.246 292.559L300.129 277.336H304.348L307.406 285.967C307.582 286.494 307.734 287.033 307.863 287.584C308.004 288.123 308.115 288.674 308.197 289.236C308.35 288.65 308.713 287.719 309.287 286.441L309.375 286.23L313.488 277.336H317.619L305.596 301.84ZM332.807 285.721C332.807 284.174 332.309 282.867 331.312 281.801C330.316 280.723 329.098 280.184 327.656 280.184C326.227 280.184 325.008 280.723 324 281.801C323.004 282.867 322.506 284.174 322.506 285.721C322.506 287.268 323.004 288.58 324 289.658C325.008 290.725 326.227 291.258 327.656 291.258C329.086 291.258 330.299 290.725 331.295 289.658C332.303 288.58 332.807 287.268 332.807 285.721ZM318.48 285.686C318.48 284.467 318.709 283.318 319.166 282.24C319.635 281.15 320.303 280.184 321.17 279.34C322.025 278.508 323.01 277.869 324.123 277.424C325.236 276.979 326.402 276.756 327.621 276.756C328.875 276.756 330.053 276.979 331.154 277.424C332.268 277.869 333.264 278.525 334.143 279.393C335.021 280.248 335.689 281.215 336.146 282.293C336.604 283.371 336.832 284.502 336.832 285.686C336.832 286.916 336.604 288.07 336.146 289.148C335.701 290.227 335.045 291.182 334.178 292.014C333.264 292.893 332.25 293.555 331.137 294C330.023 294.457 328.852 294.686 327.621 294.686C326.414 294.686 325.254 294.457 324.141 294C323.027 293.555 322.037 292.904 321.17 292.049C320.291 291.182 319.623 290.209 319.166 289.131C318.709 288.053 318.48 286.904 318.48 285.686ZM344.566 277.336V286.723C344.566 288.34 344.9 289.5 345.568 290.203C346.236 290.906 347.32 291.258 348.82 291.258C350.32 291.258 351.404 290.906 352.072 290.203C352.74 289.5 353.074 288.34 353.074 286.723V277.336H356.889V285.58C356.889 288.768 356.25 291.082 354.973 292.523C353.695 293.965 351.656 294.686 348.855 294.686C346.008 294.686 343.945 293.971 342.668 292.541C341.391 291.111 340.752 288.791 340.752 285.58V277.336H344.566ZM2.30273 336.129C2.30273 335.484 2.53711 334.928 3.00586 334.459C3.48633 333.99 4.05469 333.756 4.71094 333.756C5.39062 333.756 5.95312 333.984 6.39844 334.441C6.85547 334.887 7.08398 335.449 7.08398 336.129C7.08398 336.809 6.85547 337.383 6.39844 337.852C5.94141 338.309 5.37891 338.537 4.71094 338.537C4.05469 338.537 3.48633 338.303 3.00586 337.834C2.53711 337.354 2.30273 336.785 2.30273 336.129ZM2.8125 360V343.336H6.62695V360H2.8125ZM15.9082 360H12.0938V343.336H15.6797V346.061C16.4414 344.9 17.3027 344.057 18.2637 343.529C19.2363 342.99 20.3789 342.721 21.6914 342.721C22.9922 342.721 24.0703 342.996 24.9258 343.547C25.7812 344.086 26.4316 344.912 26.877 346.025C27.7559 344.877 28.6875 344.039 29.6719 343.512C30.668 342.984 31.7988 342.721 33.0645 342.721C34.166 342.721 35.127 342.926 35.9473 343.336C36.7676 343.734 37.4062 344.32 37.8633 345.094C38.0742 345.457 38.2266 345.891 38.3203 346.395C38.4258 346.898 38.4785 347.619 38.4785 348.557V349.893V360H34.6641V351.439C34.6641 349.201 34.4238 347.73 33.9434 347.027C33.4746 346.312 32.6309 345.955 31.4121 345.955C29.9121 345.955 28.8398 346.436 28.1953 347.396C27.5625 348.346 27.2461 350.016 27.2461 352.406V360H23.3965V351.439C23.3965 349.377 23.1445 347.947 22.6406 347.15C22.1484 346.354 21.293 345.955 20.0742 345.955C19.3242 345.955 18.6387 346.125 18.0176 346.465C17.3965 346.805 16.9043 347.273 16.541 347.871C16.3066 348.258 16.1426 348.732 16.0488 349.295C15.9551 349.857 15.9082 350.895 15.9082 352.406V360ZM47.4082 360H43.5938V343.336H47.1797V346.061C47.9414 344.9 48.8027 344.057 49.7637 343.529C50.7363 342.99 51.8789 342.721 53.1914 342.721C54.4922 342.721 55.5703 342.996 56.4258 343.547C57.2812 344.086 57.9316 344.912 58.377 346.025C59.2559 344.877 60.1875 344.039 61.1719 343.512C62.168 342.984 63.2988 342.721 64.5645 342.721C65.666 342.721 66.627 342.926 67.4473 343.336C68.2676 343.734 68.9062 344.32 69.3633 345.094C69.5742 345.457 69.7266 345.891 69.8203 346.395C69.9258 346.898 69.9785 347.619 69.9785 348.557V349.893V360H66.1641V351.439C66.1641 349.201 65.9238 347.73 65.4434 347.027C64.9746 346.312 64.1309 345.955 62.9121 345.955C61.4121 345.955 60.3398 346.436 59.6953 347.396C59.0625 348.346 58.7461 350.016 58.7461 352.406V360H54.8965V351.439C54.8965 349.377 54.6445 347.947 54.1406 347.15C53.6484 346.354 52.793 345.955 51.5742 345.955C50.8242 345.955 50.1387 346.125 49.5176 346.465C48.8965 346.805 48.4043 347.273 48.041 347.871C47.8066 348.258 47.6426 348.732 47.5488 349.295C47.4551 349.857 47.4082 350.895 47.4082 352.406V360ZM91.1426 352.23H77.8184C77.9121 353.789 78.375 355.008 79.207 355.887C80.0391 356.754 81.1465 357.188 82.5293 357.188C83.7598 357.188 84.7852 356.93 85.6055 356.414C86.4258 355.898 87.1406 355.066 87.75 353.918L90.9668 355.711C90.0293 357.387 88.8691 358.635 87.4863 359.455C86.1035 360.275 84.4805 360.686 82.6172 360.686C79.9453 360.686 77.8184 359.871 76.2363 358.242C74.6543 356.613 73.8633 354.439 73.8633 351.721C73.8633 349.107 74.6777 346.963 76.3066 345.287C77.9473 343.6 80.0508 342.756 82.6172 342.756C85.3008 342.756 87.3926 343.523 88.8926 345.059C90.3926 346.594 91.1426 348.744 91.1426 351.51V352.23ZM87.1875 349.664C87.0352 348.469 86.5781 347.561 85.8164 346.939C85.0547 346.307 84.0117 345.99 82.6875 345.99C81.4336 345.99 80.4258 346.295 79.6641 346.904C78.9023 347.514 78.3691 348.434 78.0645 349.664H87.1875ZM107.104 351.615C107.104 349.893 106.699 348.551 105.891 347.59C105.094 346.629 103.975 346.148 102.533 346.148C101.092 346.148 99.9551 346.646 99.123 347.643C98.3027 348.627 97.8926 349.998 97.8926 351.756C97.8926 353.525 98.291 354.891 99.0879 355.852C99.8848 356.812 101.01 357.293 102.463 357.293C103.846 357.293 104.965 356.777 105.82 355.746C106.676 354.703 107.104 353.326 107.104 351.615ZM106.998 332.754H110.812V360H106.998V357.838C106.318 358.799 105.521 359.514 104.607 359.982C103.705 360.451 102.668 360.686 101.496 360.686C99.1406 360.686 97.2832 359.883 95.9238 358.277C94.5762 356.66 93.9023 354.451 93.9023 351.65C93.9023 348.99 94.5938 346.846 95.9766 345.217C97.3594 343.576 99.1641 342.756 101.391 342.756C102.75 342.756 103.91 343.043 104.871 343.617C105.844 344.18 106.553 344.994 106.998 346.061V332.754ZM115.752 336.129C115.752 335.484 115.986 334.928 116.455 334.459C116.936 333.99 117.504 333.756 118.16 333.756C118.84 333.756 119.402 333.984 119.848 334.441C120.305 334.887 120.533 335.449 120.533 336.129C120.533 336.809 120.305 337.383 119.848 337.852C119.391 338.309 118.828 338.537 118.16 338.537C117.504 338.537 116.936 338.303 116.455 337.834C115.986 337.354 115.752 336.785 115.752 336.129ZM116.262 360V343.336H120.076V360H116.262ZM141.223 360H137.408V357.838C136.729 358.799 135.932 359.514 135.018 359.982C134.115 360.451 133.078 360.686 131.906 360.686C129.551 360.686 127.693 359.883 126.334 358.277C124.986 356.66 124.312 354.451 124.312 351.65C124.312 348.99 125.004 346.846 126.387 345.217C127.77 343.576 129.574 342.756 131.801 342.756C133.16 342.756 134.32 343.043 135.281 343.617C136.254 344.18 136.963 344.994 137.408 346.061V343.336H141.223V360ZM137.514 351.615C137.514 349.893 137.109 348.551 136.301 347.59C135.504 346.629 134.385 346.148 132.943 346.148C131.502 346.148 130.365 346.646 129.533 347.643C128.713 348.627 128.303 349.998 128.303 351.756C128.303 353.525 128.701 354.891 129.498 355.852C130.295 356.812 131.42 357.293 132.873 357.293C134.244 357.293 135.357 356.771 136.213 355.729C137.08 354.686 137.514 353.314 137.514 351.615ZM147.393 360V346.676H144.475V343.336H147.393V337.025H151.207V343.336H154.125V346.676H151.207V360H147.393ZM173.479 352.23H160.154C160.248 353.789 160.711 355.008 161.543 355.887C162.375 356.754 163.482 357.188 164.865 357.188C166.096 357.188 167.121 356.93 167.941 356.414C168.762 355.898 169.477 355.066 170.086 353.918L173.303 355.711C172.365 357.387 171.205 358.635 169.822 359.455C168.439 360.275 166.816 360.686 164.953 360.686C162.281 360.686 160.154 359.871 158.572 358.242C156.99 356.613 156.199 354.439 156.199 351.721C156.199 349.107 157.014 346.963 158.643 345.287C160.283 343.6 162.387 342.756 164.953 342.756C167.637 342.756 169.729 343.523 171.229 345.059C172.729 346.594 173.479 348.744 173.479 351.51V352.23ZM169.523 349.664C169.371 348.469 168.914 347.561 168.152 346.939C167.391 346.307 166.348 345.99 165.023 345.99C163.77 345.99 162.762 346.295 162 346.904C161.238 347.514 160.705 348.434 160.4 349.664H169.523ZM177.645 360V332.754H181.459V360H177.645ZM189.791 367.84H185.871L190.441 358.559L184.324 343.336H188.543L191.602 351.967C191.777 352.494 191.93 353.033 192.059 353.584C192.199 354.123 192.311 354.674 192.393 355.236C192.545 354.65 192.908 353.719 193.482 352.441L193.57 352.23L197.684 343.336H201.814L189.791 367.84ZM201.27 358.049C201.27 357.404 201.492 356.854 201.938 356.396C202.383 355.939 202.928 355.711 203.572 355.711C204.217 355.711 204.762 355.939 205.207 356.396C205.652 356.854 205.875 357.404 205.875 358.049C205.875 358.682 205.652 359.221 205.207 359.666C204.762 360.1 204.217 360.316 203.572 360.316C202.928 360.316 202.383 360.1 201.938 359.666C201.492 359.221 201.27 358.682 201.27 358.049Z" fill="#10150C"/>
<mask id="mask0" mask-type="alpha" maskUnits="userSpaceOnUse" x="651" y="8" width="442" height="341">
<rect opacity="0.5" x="651" y="8" width="442" height="341" fill="white"/>
</mask>
<g mask="url(#mask0)">
<circle opacity="0.3" cx="956.5" cy="139.5" r="233.5" fill="#E8C547"/>
<circle opacity="0.5" cx="828.5" cy="182.5" r="233.5" fill="#E8C547"/>
<circle opacity="0.7" cx="723.5" cy="261.5" r="190.5" fill="#E8C547"/>
</g>
<mask id="mask1" mask-type="alpha" maskUnits="userSpaceOnUse" x="651" y="8" width="442" height="341">
<rect x="651" y="8" width="442" height="341" fill="#C4C4C4"/>
</mask>
<g mask="url(#mask1)">
<path opacity="0.1" d="M854.178 296C728.711 296 627 267.015 627 231.261C627 195.507 728.711 166.522 854.178 166.522C979.646 166.522 1081.36 195.507 1081.36 231.261C1081.36 267.015 979.646 296 854.178 296Z" fill="black"/>
<path d="M723.131 237.046L745.705 235.381H1042.49V192.023H723.131V237.046Z" fill="#F5F5F5"/>
<path d="M1045.56 81.1171H1065.06V69.6696C1065.06 67.5491 1064.21 65.5154 1062.71 64.016C1061.21 62.5166 1059.17 61.6742 1057.04 61.6742H1053.58C1051.45 61.6742 1049.41 62.5166 1047.91 64.016C1046.41 65.5154 1045.56 67.5491 1045.56 69.6696V81.1171Z" fill="#EDEDF4"/>
<path d="M711.15 171.178V237.328L732.917 237.046C732.917 236.575 732.884 236.105 732.884 235.663C732.884 224.312 737.405 213.426 745.452 205.4C753.5 197.373 764.415 192.864 775.796 192.864C787.177 192.864 798.092 197.373 806.139 205.4C814.187 213.426 818.708 224.312 818.708 235.663C818.708 235.757 818.708 235.851 818.708 235.94L840.433 235.658H953.032C953.033 234.087 953.121 232.517 953.296 230.955C953.376 230.203 953.475 229.464 953.602 228.73C953.906 226.844 954.337 224.98 954.894 223.153C955.121 222.4 955.366 221.662 955.64 220.928C956.343 219.018 957.181 217.16 958.148 215.369C958.554 214.612 958.988 213.873 959.44 213.144C960.657 211.184 962.031 209.325 963.548 207.585C964.217 206.817 964.91 206.075 965.627 205.361C973.673 197.349 984.577 192.849 995.946 192.849C1007.32 192.849 1018.22 197.349 1026.27 205.361C1026.99 206.079 1027.68 206.82 1028.34 207.585C1029.86 209.325 1031.23 211.184 1032.45 213.144C1032.92 213.873 1033.34 214.612 1033.74 215.369C1034.71 217.16 1035.55 219.018 1036.25 220.928C1036.52 221.662 1036.77 222.4 1037 223.153C1037.55 224.974 1037.99 226.832 1038.29 228.712C1038.42 229.445 1038.52 230.184 1038.6 230.936C1038.77 232.498 1038.86 234.068 1038.86 235.639H1081.77V89.4656H779.13L749.105 154.759L711.791 170.901L711.15 171.178Z" fill="#2B50AA"/>
<path d="M1075.09 75.5676H790.928C787.802 75.5676 784.803 76.8064 782.592 79.0114C780.381 81.2164 779.139 84.207 779.139 87.3253V89.4652H1081.78V82.2319C1081.78 81.3563 1081.6 80.4894 1081.27 79.6805C1080.93 78.8716 1080.44 78.1368 1079.82 77.5179C1079.2 76.899 1078.46 76.4082 1077.65 76.0736C1076.84 75.7389 1075.97 75.567 1075.09 75.5676Z" fill="#F5F5F5"/>
<path d="M847.138 75.5676H916.25V72.9714C916.25 71.268 915.914 69.5813 915.26 68.0075C914.606 66.4337 913.648 65.0038 912.441 63.7992C911.233 62.5947 909.799 61.6393 908.221 60.9874C906.643 60.3355 904.952 60 903.244 60H863.303L847.138 75.5676Z" fill="#EDEDF4"/>
<path opacity="0.1" d="M1054.08 213.977H1082.72C1085.58 213.977 1087.91 216.293 1087.91 219.15V235.484C1087.91 238.341 1085.58 240.658 1082.72 240.658H1054.08C1051.22 240.658 1048.9 238.341 1048.9 235.484V219.15C1048.9 216.293 1051.22 213.977 1054.08 213.977Z" fill="black"/>
<path opacity="0.1" d="M840.73 235.38H873.056V89.1874H809.522V190.352L840.73 235.38Z" fill="black"/>
<path d="M1054.64 215.092H1083.28C1086.14 215.092 1088.46 217.408 1088.46 220.265V236.599C1088.46 239.456 1086.14 241.772 1083.28 241.772H1054.64C1051.78 241.772 1049.45 239.456 1049.45 236.599V220.265C1049.45 217.408 1051.78 215.092 1054.64 215.092Z" fill="#F5F5F5"/>
<path opacity="0.1" d="M708.198 212.867H716.333C719.935 212.867 722.854 215.779 722.854 219.371V237.492C722.854 241.085 719.935 243.997 716.333 243.997H708.198C704.597 243.997 701.677 241.085 701.677 237.492V219.371C701.677 215.779 704.597 212.867 708.198 212.867Z" fill="black"/>
<path d="M707.085 213.422H715.22C718.821 213.422 721.741 216.334 721.741 219.926V238.047C721.741 241.64 718.821 244.552 715.22 244.552H707.085C703.483 244.552 700.564 241.64 700.564 238.047V219.926C700.564 216.334 703.483 213.422 707.085 213.422Z" fill="#F5F5F5"/>
<path d="M914.025 104.473H1041.65V173.397H914.025V104.473Z" fill="#1A2246"/>
<path d="M913.742 110.31H981.18V169.786H913.742V110.31Z" fill="#F5F5F5"/>
<path d="M981.18 157.835L932.694 121.983L926.002 123.653L981.18 163.394V157.835Z" fill="white"/>
<path d="M981.18 143.382L954.984 115.313L942.724 118.093L981.18 154.223V143.382Z" fill="white"/>
<path d="M824.588 100.028H856.314C860.481 100.028 863.859 103.397 863.859 107.553V156.984C863.859 161.14 860.481 164.509 856.314 164.509H824.588C820.421 164.509 817.043 161.14 817.043 156.984V107.553C817.043 103.397 820.421 100.028 824.588 100.028Z" fill="#F5F5F5"/>
<path d="M819.831 170.063H825.961V183.406H819.831V170.063Z" fill="#1A2246"/>
<path d="M798.097 109.195V155.239C798.097 155.927 797.822 156.588 797.334 157.075C796.846 157.561 796.184 157.835 795.494 157.835H767.082C766.619 157.835 766.165 157.711 765.766 157.478C765.367 157.244 765.037 156.908 764.811 156.505C764.586 156.102 764.472 155.647 764.481 155.185C764.491 154.724 764.624 154.273 764.866 153.88L793.277 107.836C793.574 107.355 794.021 106.983 794.549 106.778C795.076 106.573 795.657 106.545 796.202 106.699C796.747 106.853 797.227 107.18 797.569 107.63C797.911 108.081 798.096 108.63 798.097 109.195Z" fill="#F5F5F5"/>
<path d="M848.812 100.028L863.859 113.366V120.318L842.403 100.028H848.812Z" fill="white"/>
<path d="M863.859 128.37V136.436L828.191 100.028H835.16L863.859 128.37Z" fill="white"/>
<path d="M788.665 115.313L798.097 128.37V133.378L785.577 120.318L788.665 115.313Z" fill="white"/>
<path d="M781.286 128.37L798.097 142.691V146.721L777.518 133.378L781.286 128.37Z" fill="white"/>
<path d="M995.95 265.674C979.329 265.674 965.855 252.236 965.855 235.658C965.855 219.081 979.329 205.643 995.95 205.643C1012.57 205.643 1026.04 219.081 1026.04 235.658C1026.04 252.236 1012.57 265.674 995.95 265.674Z" fill="#1A2246"/>
<path d="M995.949 252.336C986.714 252.336 979.228 244.869 979.228 235.658C979.228 226.447 986.714 218.981 995.949 218.981C1005.18 218.981 1012.67 226.447 1012.67 235.658C1012.67 244.869 1005.18 252.336 995.949 252.336Z" fill="white"/>
<path d="M996.228 239.829C993.765 239.829 991.768 237.838 991.768 235.381C991.768 232.923 993.765 230.932 996.228 230.932C998.692 230.932 1000.69 232.923 1000.69 235.381C1000.69 237.838 998.692 239.829 996.228 239.829Z" fill="#1A2246"/>
<path d="M775.801 265.674C759.18 265.674 745.706 252.236 745.706 235.658C745.706 219.081 759.18 205.643 775.801 205.643C792.422 205.643 805.896 219.081 805.896 235.658C805.896 252.236 792.422 265.674 775.801 265.674Z" fill="#1A2246"/>
<path d="M775.801 252.336C766.566 252.336 759.079 244.869 759.079 235.658C759.079 226.447 766.566 218.981 775.801 218.981C785.036 218.981 792.522 226.447 792.522 235.658C792.522 244.869 785.036 252.336 775.801 252.336Z" fill="white"/>
<path d="M775.522 239.829C773.059 239.829 771.061 237.838 771.061 235.381C771.061 232.923 773.059 230.932 775.522 230.932C777.986 230.932 779.983 232.923 779.983 235.381C779.983 237.838 777.986 239.829 775.522 239.829Z" fill="#1A2246"/>
<path opacity="0.1" d="M715.054 192.022H810.635L809.522 190.353V189.798H715.054" fill="white"/>
<path opacity="0.1" d="M715.055 182.574H809.522V180.349H715.055" fill="white"/>
<path opacity="0.1" d="M715.055 173.12H809.522V170.9H715.696" fill="white"/>
<path d="M1041.93 126.432C1041.93 126.432 1036.35 138.105 1021.58 126.432H1041.93Z" fill="#2B50AA"/>
<path d="M1021.86 126.432C1021.86 126.432 1016.29 138.105 1001.52 126.432H1021.86Z" fill="#2B50AA"/>
<path d="M1001.8 126.432C1001.8 126.432 996.227 138.105 981.458 126.432H1001.8Z" fill="#2B50AA"/>
<path d="M981.735 126.432C981.735 126.432 976.161 138.105 961.392 126.432H981.735Z" fill="#2B50AA"/>
<path d="M961.671 126.432C961.671 126.432 956.097 138.105 941.328 126.432H961.671Z" fill="#2B50AA"/>
<path d="M941.605 126.432C941.605 126.432 936.032 138.105 921.262 126.432H941.605Z" fill="#2B50AA"/>
<path d="M921.541 126.432C921.541 126.432 915.967 138.105 901.198 126.432H921.541Z" fill="#2B50AA"/>
<path d="M901.481 126.432C901.481 126.432 895.908 134.771 892.008 126.987L901.481 126.432Z" fill="#2B50AA"/>
<path opacity="0.1" d="M1041.93 126.432C1041.93 126.432 1036.35 138.105 1021.58 126.432H1041.93Z" fill="black"/>
<path opacity="0.1" d="M1021.86 126.432C1021.86 126.432 1016.29 138.105 1001.52 126.432H1021.86Z" fill="black"/>
<path opacity="0.1" d="M1001.8 126.432C1001.8 126.432 996.227 138.105 981.458 126.432H1001.8Z" fill="black"/>
<path opacity="0.1" d="M981.735 126.432C981.735 126.432 976.161 138.105 961.392 126.432H981.735Z" fill="black"/>
<path opacity="0.1" d="M961.671 126.432C961.671 126.432 956.097 138.105 941.328 126.432H961.671Z" fill="black"/>
<path opacity="0.1" d="M941.605 126.432C941.605 126.432 936.032 138.105 921.262 126.432H941.605Z" fill="black"/>
<path opacity="0.1" d="M921.541 126.432C921.541 126.432 915.967 138.105 901.198 126.432H921.541Z" fill="black"/>
<path opacity="0.1" d="M901.481 126.432C901.481 126.432 895.908 134.771 892.008 126.987L901.481 126.432Z" fill="black"/>
<path d="M892.286 126.709H1061.71L1049.45 100.028H905.103L892.286 126.709Z" fill="#2B50AA"/>
<path opacity="0.1" d="M892.286 126.709H1061.71L1049.45 100.028H905.103L892.286 126.709Z" fill="black"/>
<path d="M1061.99 126.432C1061.99 126.432 1056.42 138.105 1041.65 126.432H1061.99Z" fill="#2B50AA"/>
<path opacity="0.1" d="M1061.99 126.432C1061.99 126.432 1056.42 138.105 1041.65 126.432H1061.99Z" fill="black"/>
<path d="M908.446 173.402H1045.55V183.406H908.446V173.402Z" fill="#EDEDF4"/>
<path d="M898.972 163.394H1055.58V176.737H898.972V163.394Z" fill="#EDEDF4"/>
<path opacity="0.1" d="M908.446 176.737H1045.55V178.407H908.446V176.737Z" fill="black"/>
<path d="M983.127 127.817C983.327 127.636 983.571 127.511 983.835 127.457C984.099 127.402 984.373 127.42 984.627 127.508C984.882 127.596 985.109 127.75 985.283 127.956C985.458 128.161 985.574 128.41 985.619 128.676L986.166 131.855C986.166 131.855 988.641 144.572 986.522 152.65C984.404 160.728 982.9 171.369 977.174 172.502C972.275 173.472 953.647 171.936 948.373 171.473C947.994 171.439 947.641 171.262 947.387 170.978C947.132 170.694 946.996 170.324 947.004 169.943L947.103 165.303C947.111 164.937 947.251 164.587 947.499 164.318C947.746 164.049 948.083 163.879 948.446 163.84L969.774 161.565C970.107 161.53 970.419 161.385 970.66 161.152C970.901 160.919 971.057 160.613 971.103 160.281C971.611 156.652 973.251 145.402 974.881 139.487C976.197 134.707 980.522 130.194 983.127 127.817Z" fill="#E8C547"/>
<path d="M950.136 164.01C950.136 164.01 934.122 160.767 936.149 167.659C938.176 174.552 951.555 170.092 951.555 170.092L950.136 164.01Z" fill="#FFB8B8"/>
<path d="M969.268 263.445V273.176L974.741 274.392L978.39 272.568L977.984 264.864L969.268 263.445Z" fill="#FFB8B8"/>
<path d="M980.214 184.382C980.214 184.382 972.917 199.181 973.119 210.737C973.241 217.712 972.903 224.687 972.106 231.617L968.457 266.284L980.214 266.892L985.687 229.59L996.228 200.803L1000.28 235.064L1001.3 269.528H1011.43C1011.43 269.528 1016.09 236.888 1013.46 229.59C1013.46 229.59 1019.54 188.639 1014.67 186.612C1009.81 184.585 980.214 184.382 980.214 184.382Z" fill="#2F2E41"/>
<path d="M972.918 270.541C972.918 270.541 970.891 263.04 968.053 266.892C965.215 270.744 957.107 277.231 957.107 277.231C957.107 277.231 944.944 283.718 956.093 285.34C967.242 286.962 968.458 283.313 968.458 283.313C968.458 283.313 970.283 282.299 971.904 282.907C973.526 283.516 980.621 283.313 981.026 280.88C981.432 278.448 978.797 265.068 977.986 267.5C977.175 269.933 972.918 270.541 972.918 270.541Z" fill="#2F2E41"/>
<path d="M1010.22 270.338C1010.22 270.338 1010.22 268.108 1006.37 267.906C1002.51 267.703 1001.91 270.338 1001.91 270.338C1001.91 270.338 1000.89 271.352 1000.69 274.393C1000.49 277.434 1000.69 285.34 1000.69 285.34C1000.69 285.34 998.865 291.422 1007.18 290.205C1015.49 288.989 1012.45 282.704 1012.45 282.704L1010.22 270.338Z" fill="#2F2E41"/>
<path d="M995.419 108.765L994.405 120.117L992.581 124.375L997.446 131.267L1009.41 120.117C1009.41 120.117 1007.18 114.036 1008.6 110.589L995.419 108.765Z" fill="#FFB8B8"/>
<path d="M1022.58 128.227L1022.49 129.226L1018.93 167.15C1018.93 167.15 1018.79 168.914 1018.53 171.266C1018.09 175.243 1017.32 180.902 1016.3 182.558C1014.68 185.193 1015.89 187.423 1015.89 187.423C1006.57 192.897 978.998 184.991 978.998 184.991L985.282 159.852C985.282 159.852 979.606 133.7 980.214 131.268C980.822 128.835 993.593 120.118 993.593 120.118L993.97 121.131C999.413 128.429 1004.94 122.145 1006.57 120.726L1009.81 117.888L1022.58 128.227Z" fill="#E8C547"/>
<path d="M1002.31 114.238C1008.02 114.238 1012.65 109.61 1012.65 103.899C1012.65 98.1893 1008.02 93.5604 1002.31 93.5604C996.601 93.5604 991.973 98.1893 991.973 103.899C991.973 109.61 996.601 114.238 1002.31 114.238Z" fill="#FFB8B8"/>
<path d="M990.959 166.542C990.959 166.542 974.945 163.299 976.972 170.191C978.999 177.084 992.378 172.624 992.378 172.624L990.959 166.542Z" fill="#FFB8B8"/>
<path d="M1016.3 127.213L1022.58 128.227C1022.58 128.227 1027.04 140.39 1026.23 148.702C1025.42 157.014 1025.62 167.759 1020.15 169.786C1014.68 171.813 990.147 173.435 990.147 173.435L989.134 166.137L1012.24 159.852C1012.24 159.852 1009.4 144.039 1012.65 137.552C1015.89 131.065 1016.3 127.213 1016.3 127.213Z" fill="#E8C547"/>
<path d="M993.496 93.3984L991.509 92.6029C991.509 92.6029 995.664 88.0284 1001.44 88.4262L999.818 86.6362C999.818 86.6362 1003.79 85.0451 1007.41 89.2218C1009.3 91.4173 1011.5 93.9981 1012.87 96.9054H1015L1014.11 98.8611L1017.22 100.817L1014.03 100.466C1014.22 101.537 1014.25 102.63 1014.12 103.709C1013.98 104.789 1013.43 105.774 1012.58 106.455C1012.58 106.455 1010.11 101.354 1010.11 100.558V102.547C1010.11 102.547 1008.13 100.757 1008.13 99.564L1007.04 100.956H999.818L1000.9 99.1662L996.747 99.7629L998.373 97.5751L991.941 106.609C991.941 106.609 988.257 96.3818 993.496 93.3984Z" fill="#2F2E41"/>
<path fill-rule="evenodd" clip-rule="evenodd" d="M842.968 195.942C843.621 195.254 844.352 194.648 845.139 194.125H861.311C861.422 194.72 861.518 195.326 861.598 195.942H842.968ZM841.724 192.652C841.646 192.748 841.588 192.862 841.555 192.986C841.405 193.182 841.189 193.304 840.95 193.304C840.496 193.304 840.129 192.866 840.129 192.325C840.129 191.784 840.496 191.345 840.95 191.345C841.403 191.345 841.771 191.784 841.771 192.325C841.771 192.439 841.754 192.549 841.724 192.652ZM841.567 197.735H842.533L842.442 213.863C842.433 213.954 842.424 214.043 842.416 214.131C838.789 206.968 839.189 201.49 841.567 197.735ZM861.778 197.735C861.984 200.626 861.781 203.676 860.909 206.722C858.029 216.767 848.33 216.301 844.194 215.608C844.378 211.412 845.039 208.236 845.92 205.833C848.451 198.923 852.793 198.408 852.793 198.408C848.143 198.932 845.597 202.216 844.173 205.884L844.247 197.735H861.778ZM860.929 192.332C859.233 185.251 855.794 180.104 855.794 180.104C855.794 180.104 857.12 183.976 853.877 188.083H856.174C856.646 188.083 857.029 188.484 857.029 188.979V192.332H860.929ZM852.157 189.876C851.786 190.2 851.38 190.523 850.937 190.842C850.232 191.35 849.433 191.849 848.529 192.332H850.937H855.318V189.876H852.157ZM843.53 192.045C843.853 192.045 844.116 191.732 844.116 191.345C844.116 190.959 843.853 190.646 843.53 190.646C843.206 190.646 842.943 190.959 842.943 191.345C842.943 191.732 843.206 192.045 843.53 192.045ZM844.468 184.699C844.468 185.665 843.812 186.448 843.002 186.448C842.193 186.448 841.537 185.665 841.537 184.699C841.537 183.733 842.193 182.95 843.002 182.95C843.812 182.95 844.468 183.733 844.468 184.699ZM847.517 189.247C847.776 189.247 847.986 188.996 847.986 188.687C847.986 188.378 847.776 188.127 847.517 188.127C847.258 188.127 847.048 188.378 847.048 188.687C847.048 188.996 847.258 189.247 847.517 189.247ZM852.793 185.538C852.793 186.427 852.189 187.148 851.444 187.148C850.7 187.148 850.096 186.427 850.096 185.538C850.096 184.65 850.7 183.929 851.444 183.929C852.189 183.929 852.793 184.65 852.793 185.538Z" fill="#F5FFF0"/>
</g>
</svg>
