<svg width="1070" height="357" viewBox="0 0 1070 357" fill="none" xmlns="http://www.w3.org/2000/svg">
<path d="M13.9199 108.615L7.36328 117.861H13.8145V111.164C13.8145 110.812 13.8203 110.42 13.832 109.986C13.8555 109.553 13.8848 109.096 13.9199 108.615ZM13.8145 126V120.779H1.47461L16.4512 100.002H17.6289V117.861H20.7578V120.779H17.6289V126H13.8145ZM25.8906 124.049C25.8906 123.404 26.1133 122.854 26.5586 122.396C27.0039 121.939 27.5488 121.711 28.1934 121.711C28.8379 121.711 29.3828 121.939 29.8281 122.396C30.2734 122.854 30.4961 123.404 30.4961 124.049C30.4961 124.682 30.2734 125.221 29.8281 125.666C29.3828 126.1 28.8379 126.316 28.1934 126.316C27.5488 126.316 27.0039 126.1 26.5586 125.666C26.1133 125.221 25.8906 124.682 25.8906 124.049ZM44.3828 100.266H48.5137L53.3828 113.256C53.6992 114.111 53.9629 114.861 54.1738 115.506C54.3965 116.15 54.5898 116.754 54.7539 117.316C55.1641 115.957 55.5918 114.627 56.0371 113.326C56.0957 113.162 56.1367 113.051 56.1602 112.992L61.3281 99.2461L66.7773 113.256C67.0352 113.936 67.2754 114.615 67.498 115.295C67.7324 115.975 67.9492 116.66 68.1484 117.352C68.2656 116.824 68.4238 116.244 68.623 115.611C68.8223 114.979 69.0801 114.229 69.3965 113.361L74.2305 100.266H78.3965L68.4297 127.002L62.5586 112.324C62.3008 111.668 62.0664 111.041 61.8555 110.443C61.6445 109.834 61.457 109.26 61.293 108.721C61.0938 109.412 60.8945 110.062 60.6953 110.672C60.4961 111.27 60.291 111.844 60.0801 112.395L54.3145 127.002L44.3828 100.266ZM80.9453 126V98.7539H84.5312V112.061C85.293 110.912 86.1895 110.074 87.2207 109.547C88.252 109.02 89.5059 108.756 90.9824 108.756C92.2246 108.756 93.2793 108.955 94.1465 109.354C95.0254 109.74 95.7109 110.32 96.2031 111.094C96.4961 111.551 96.707 112.084 96.8359 112.693C96.9648 113.303 97.0293 114.369 97.0293 115.893V126H93.1797V117.439C93.1797 115.248 92.9102 113.795 92.3711 113.08C91.8438 112.354 90.9004 111.99 89.541 111.99C88.6504 111.99 87.8535 112.154 87.1504 112.482C86.459 112.811 85.9141 113.273 85.5156 113.871C85.2344 114.27 85.0352 114.785 84.918 115.418C84.8125 116.039 84.7598 117.035 84.7598 118.406V126H80.9453ZM115.205 117.721C115.205 116.174 114.707 114.867 113.711 113.801C112.715 112.723 111.496 112.184 110.055 112.184C108.625 112.184 107.406 112.723 106.398 113.801C105.402 114.867 104.904 116.174 104.904 117.721C104.904 119.268 105.402 120.58 106.398 121.658C107.406 122.725 108.625 123.258 110.055 123.258C111.484 123.258 112.697 122.725 113.693 121.658C114.701 120.58 115.205 119.268 115.205 117.721ZM100.879 117.686C100.879 116.467 101.107 115.318 101.564 114.24C102.033 113.15 102.701 112.184 103.568 111.34C104.424 110.508 105.408 109.869 106.521 109.424C107.635 108.979 108.801 108.756 110.02 108.756C111.273 108.756 112.451 108.979 113.553 109.424C114.666 109.869 115.662 110.525 116.541 111.393C117.42 112.248 118.088 113.215 118.545 114.293C119.002 115.371 119.23 116.502 119.23 117.686C119.23 118.916 119.002 120.07 118.545 121.148C118.1 122.227 117.443 123.182 116.576 124.014C115.662 124.893 114.648 125.555 113.535 126C112.422 126.457 111.25 126.686 110.02 126.686C108.812 126.686 107.652 126.457 106.539 126C105.426 125.555 104.436 124.904 103.568 124.049C102.689 123.182 102.021 122.209 101.564 121.131C101.107 120.053 100.879 118.904 100.879 117.686ZM136.369 117.721C136.369 116.174 135.871 114.867 134.875 113.801C133.879 112.723 132.66 112.184 131.219 112.184C129.789 112.184 128.57 112.723 127.562 113.801C126.566 114.867 126.068 116.174 126.068 117.721C126.068 119.268 126.566 120.58 127.562 121.658C128.57 122.725 129.789 123.258 131.219 123.258C132.648 123.258 133.861 122.725 134.857 121.658C135.865 120.58 136.369 119.268 136.369 117.721ZM122.043 117.686C122.043 116.467 122.271 115.318 122.729 114.24C123.197 113.15 123.865 112.184 124.732 111.34C125.588 110.508 126.572 109.869 127.686 109.424C128.799 108.979 129.965 108.756 131.184 108.756C132.438 108.756 133.615 108.979 134.717 109.424C135.83 109.869 136.826 110.525 137.705 111.393C138.584 112.248 139.252 113.215 139.709 114.293C140.166 115.371 140.395 116.502 140.395 117.686C140.395 118.916 140.166 120.07 139.709 121.148C139.264 122.227 138.607 123.182 137.74 124.014C136.826 124.893 135.812 125.555 134.699 126C133.586 126.457 132.414 126.686 131.184 126.686C129.977 126.686 128.816 126.457 127.703 126C126.59 125.555 125.6 124.904 124.732 124.049C123.854 123.182 123.186 122.209 122.729 121.131C122.271 120.053 122.043 118.904 122.043 117.686ZM148.129 117.615C148.129 119.338 148.557 120.715 149.412 121.746C150.279 122.777 151.416 123.293 152.822 123.293C154.264 123.293 155.377 122.812 156.162 121.852C156.959 120.891 157.357 119.525 157.357 117.756C157.357 115.998 156.941 114.627 156.109 113.643C155.289 112.646 154.158 112.148 152.717 112.148C151.275 112.148 150.15 112.629 149.342 113.59C148.533 114.551 148.129 115.893 148.129 117.615ZM144.438 133.84V109.336H148.252V112.061C148.697 111.006 149.406 110.191 150.379 109.617C151.363 109.043 152.535 108.756 153.895 108.756C156.109 108.756 157.902 109.576 159.273 111.217C160.656 112.846 161.348 114.99 161.348 117.65C161.348 120.451 160.668 122.66 159.309 124.277C157.961 125.883 156.109 126.686 153.754 126.686C152.582 126.686 151.539 126.451 150.625 125.982C149.723 125.514 148.932 124.799 148.252 123.838V133.84H144.438ZM166.674 99.6855H170.682V120.094H166.674V99.6855ZM166.357 124.383C166.357 123.75 166.58 123.211 167.025 122.766C167.482 122.309 168.027 122.08 168.66 122.08C169.305 122.08 169.85 122.303 170.295 122.748C170.74 123.193 170.963 123.738 170.963 124.383C170.963 125.016 170.74 125.555 170.295 126C169.85 126.457 169.305 126.686 168.66 126.686C168.016 126.686 167.471 126.457 167.025 126C166.58 125.555 166.357 125.016 166.357 124.383ZM9.49023 192V180.223L0.824219 166.266H5.21875L10.6152 175.002C10.7441 175.225 10.9023 175.518 11.0898 175.881C11.2891 176.244 11.4883 176.637 11.6875 177.059C11.8516 176.648 12.0215 176.262 12.1973 175.898C12.3848 175.535 12.5781 175.201 12.7773 174.896L18.3145 166.266H22.498L13.6387 180.223V192H9.49023ZM34.0996 183.721C34.0996 182.174 33.6016 180.867 32.6055 179.801C31.6094 178.723 30.3906 178.184 28.9492 178.184C27.5195 178.184 26.3008 178.723 25.293 179.801C24.2969 180.867 23.7988 182.174 23.7988 183.721C23.7988 185.268 24.2969 186.58 25.293 187.658C26.3008 188.725 27.5195 189.258 28.9492 189.258C30.3789 189.258 31.5918 188.725 32.5879 187.658C33.5957 186.58 34.0996 185.268 34.0996 183.721ZM19.7734 183.686C19.7734 182.467 20.002 181.318 20.459 180.24C20.9277 179.15 21.5957 178.184 22.4629 177.34C23.3184 176.508 24.3027 175.869 25.416 175.424C26.5293 174.979 27.6953 174.756 28.9141 174.756C30.168 174.756 31.3457 174.979 32.4473 175.424C33.5605 175.869 34.5566 176.525 35.4355 177.393C36.3145 178.248 36.9824 179.215 37.4395 180.293C37.8965 181.371 38.125 182.502 38.125 183.686C38.125 184.916 37.8965 186.07 37.4395 187.148C36.9941 188.227 36.3379 189.182 35.4707 190.014C34.5566 190.893 33.543 191.555 32.4297 192C31.3164 192.457 30.1445 192.686 28.9141 192.686C27.707 192.686 26.5469 192.457 25.4336 192C24.3203 191.555 23.3301 190.904 22.4629 190.049C21.584 189.182 20.916 188.209 20.459 187.131C20.002 186.053 19.7734 184.904 19.7734 183.686ZM45.8594 175.336V184.723C45.8594 186.34 46.1934 187.5 46.8613 188.203C47.5293 188.906 48.6133 189.258 50.1133 189.258C51.6133 189.258 52.6973 188.906 53.3652 188.203C54.0332 187.5 54.3672 186.34 54.3672 184.723V175.336H58.1816V183.58C58.1816 186.768 57.543 189.082 56.2656 190.523C54.9883 191.965 52.9492 192.686 50.1484 192.686C47.3008 192.686 45.2383 191.971 43.9609 190.541C42.6836 189.111 42.0449 186.791 42.0449 183.58V175.336H45.8594ZM77.8867 183.615C77.8867 185.314 78.3203 186.686 79.1875 187.729C80.0664 188.771 81.1973 189.293 82.5801 189.293C84.0215 189.293 85.1348 188.812 85.9199 187.852C86.7168 186.891 87.1152 185.525 87.1152 183.756C87.1152 181.998 86.6992 180.627 85.8672 179.643C85.0469 178.646 83.916 178.148 82.4746 178.148C81.0332 178.148 79.9082 178.629 79.0996 179.59C78.291 180.551 77.8867 181.893 77.8867 183.615ZM78.0098 164.754V178.061C78.4551 177.006 79.1641 176.191 80.1367 175.617C81.1211 175.043 82.293 174.756 83.6523 174.756C85.8672 174.756 87.6602 175.576 89.0312 177.217C90.4141 178.846 91.1055 180.99 91.1055 183.65C91.1055 186.451 90.4258 188.66 89.0664 190.277C87.7188 191.883 85.8672 192.686 83.5117 192.686C82.3398 192.686 81.2969 192.451 80.3828 191.982C79.4805 191.514 78.6895 190.799 78.0098 189.838V192H74.1953V164.754H78.0098ZM108.244 183.721C108.244 182.174 107.746 180.867 106.75 179.801C105.754 178.723 104.535 178.184 103.094 178.184C101.664 178.184 100.445 178.723 99.4375 179.801C98.4414 180.867 97.9434 182.174 97.9434 183.721C97.9434 185.268 98.4414 186.58 99.4375 187.658C100.445 188.725 101.664 189.258 103.094 189.258C104.523 189.258 105.736 188.725 106.732 187.658C107.74 186.58 108.244 185.268 108.244 183.721ZM93.918 183.686C93.918 182.467 94.1465 181.318 94.6035 180.24C95.0723 179.15 95.7402 178.184 96.6074 177.34C97.4629 176.508 98.4473 175.869 99.5605 175.424C100.674 174.979 101.84 174.756 103.059 174.756C104.312 174.756 105.49 174.979 106.592 175.424C107.705 175.869 108.701 176.525 109.58 177.393C110.459 178.248 111.127 179.215 111.584 180.293C112.041 181.371 112.27 182.502 112.27 183.686C112.27 184.916 112.041 186.07 111.584 187.148C111.139 188.227 110.482 189.182 109.615 190.014C108.701 190.893 107.688 191.555 106.574 192C105.461 192.457 104.289 192.686 103.059 192.686C101.852 192.686 100.691 192.457 99.5781 192C98.4648 191.555 97.4746 190.904 96.6074 190.049C95.7285 189.182 95.0605 188.209 94.6035 187.131C94.1465 186.053 93.918 184.904 93.918 183.686ZM117.209 192V178.676H114.291V175.336H117.209V169.025H121.023V175.336H123.941V178.676H121.023V192H117.209ZM127.246 192V164.754H130.832V178.061C131.594 176.912 132.49 176.074 133.521 175.547C134.553 175.02 135.807 174.756 137.283 174.756C138.525 174.756 139.58 174.955 140.447 175.354C141.326 175.74 142.012 176.32 142.504 177.094C142.797 177.551 143.008 178.084 143.137 178.693C143.266 179.303 143.33 180.369 143.33 181.893V192H139.48V183.439C139.48 181.248 139.211 179.795 138.672 179.08C138.145 178.354 137.201 177.99 135.842 177.99C134.951 177.99 134.154 178.154 133.451 178.482C132.76 178.811 132.215 179.273 131.816 179.871C131.535 180.27 131.336 180.785 131.219 181.418C131.113 182.039 131.061 183.035 131.061 184.406V192H127.246ZM171.719 180.082C171.133 179.438 170.447 178.945 169.662 178.605C168.889 178.266 168.051 178.096 167.148 178.096C165.59 178.096 164.342 178.6 163.404 179.607C162.467 180.615 161.998 181.951 161.998 183.615C161.998 185.35 162.467 186.715 163.404 187.711C164.354 188.695 165.66 189.188 167.324 189.188C168.25 189.188 169.076 189.018 169.803 188.678C170.529 188.326 171.168 187.799 171.719 187.096V191.49C171.016 191.889 170.26 192.188 169.451 192.387C168.654 192.586 167.805 192.686 166.902 192.686C164.289 192.686 162.156 191.854 160.504 190.189C158.863 188.525 158.043 186.369 158.043 183.721C158.043 181.037 158.893 178.875 160.592 177.234C162.303 175.582 164.535 174.756 167.289 174.756C168.156 174.756 168.953 174.844 169.68 175.02C170.406 175.184 171.086 175.441 171.719 175.793V180.082ZM188.717 183.721C188.717 182.174 188.219 180.867 187.223 179.801C186.227 178.723 185.008 178.184 183.566 178.184C182.137 178.184 180.918 178.723 179.91 179.801C178.914 180.867 178.416 182.174 178.416 183.721C178.416 185.268 178.914 186.58 179.91 187.658C180.918 188.725 182.137 189.258 183.566 189.258C184.996 189.258 186.209 188.725 187.205 187.658C188.213 186.58 188.717 185.268 188.717 183.721ZM174.391 183.686C174.391 182.467 174.619 181.318 175.076 180.24C175.545 179.15 176.213 178.184 177.08 177.34C177.936 176.508 178.92 175.869 180.033 175.424C181.146 174.979 182.312 174.756 183.531 174.756C184.785 174.756 185.963 174.979 187.064 175.424C188.178 175.869 189.174 176.525 190.053 177.393C190.932 178.248 191.6 179.215 192.057 180.293C192.514 181.371 192.742 182.502 192.742 183.686C192.742 184.916 192.514 186.07 192.057 187.148C191.611 188.227 190.955 189.182 190.088 190.014C189.174 190.893 188.16 191.555 187.047 192C185.934 192.457 184.762 192.686 183.531 192.686C182.324 192.686 181.164 192.457 180.051 192C178.938 191.555 177.947 190.904 177.08 190.049C176.201 189.182 175.533 188.209 175.076 187.131C174.619 186.053 174.391 184.904 174.391 183.686ZM200.6 192H196.785V175.336H200.371V178.061C201.133 176.9 201.994 176.057 202.955 175.529C203.928 174.99 205.07 174.721 206.383 174.721C207.684 174.721 208.762 174.996 209.617 175.547C210.473 176.086 211.123 176.912 211.568 178.025C212.447 176.877 213.379 176.039 214.363 175.512C215.359 174.984 216.49 174.721 217.756 174.721C218.857 174.721 219.818 174.926 220.639 175.336C221.459 175.734 222.098 176.32 222.555 177.094C222.766 177.457 222.918 177.891 223.012 178.395C223.117 178.898 223.17 179.619 223.17 180.557V181.893V192H219.355V183.439C219.355 181.201 219.115 179.73 218.635 179.027C218.166 178.312 217.322 177.955 216.104 177.955C214.604 177.955 213.531 178.436 212.887 179.396C212.254 180.346 211.938 182.016 211.938 184.406V192H208.088V183.439C208.088 181.377 207.836 179.947 207.332 179.15C206.84 178.354 205.984 177.955 204.766 177.955C204.016 177.955 203.33 178.125 202.709 178.465C202.088 178.805 201.596 179.273 201.232 179.871C200.998 180.258 200.834 180.732 200.74 181.295C200.646 181.857 200.6 182.895 200.6 184.406V192ZM231.977 183.615C231.977 185.338 232.404 186.715 233.26 187.746C234.127 188.777 235.264 189.293 236.67 189.293C238.111 189.293 239.225 188.812 240.01 187.852C240.807 186.891 241.205 185.525 241.205 183.756C241.205 181.998 240.789 180.627 239.957 179.643C239.137 178.646 238.006 178.148 236.564 178.148C235.123 178.148 233.998 178.629 233.189 179.59C232.381 180.551 231.977 181.893 231.977 183.615ZM228.285 199.84V175.336H232.1V178.061C232.545 177.006 233.254 176.191 234.227 175.617C235.211 175.043 236.383 174.756 237.742 174.756C239.957 174.756 241.75 175.576 243.121 177.217C244.504 178.846 245.195 180.99 245.195 183.65C245.195 186.451 244.516 188.66 243.156 190.277C241.809 191.883 239.957 192.686 237.602 192.686C236.43 192.686 235.387 192.451 234.473 191.982C233.57 191.514 232.779 190.799 232.1 189.838V199.84H228.285ZM249.414 192V164.754H253.229V192H249.414ZM274.744 184.23H261.42C261.514 185.789 261.977 187.008 262.809 187.887C263.641 188.754 264.748 189.188 266.131 189.188C267.361 189.188 268.387 188.93 269.207 188.414C270.027 187.898 270.742 187.066 271.352 185.918L274.568 187.711C273.631 189.387 272.471 190.635 271.088 191.455C269.705 192.275 268.082 192.686 266.219 192.686C263.547 192.686 261.42 191.871 259.838 190.242C258.256 188.613 257.465 186.439 257.465 183.721C257.465 181.107 258.279 178.963 259.908 177.287C261.549 175.6 263.652 174.756 266.219 174.756C268.902 174.756 270.994 175.523 272.494 177.059C273.994 178.594 274.744 180.744 274.744 183.51V184.23ZM270.789 181.664C270.637 180.469 270.18 179.561 269.418 178.939C268.656 178.307 267.613 177.99 266.289 177.99C265.035 177.99 264.027 178.295 263.266 178.904C262.504 179.514 261.971 180.434 261.666 181.664H270.789ZM279.631 192V178.676H276.713V175.336H279.631V169.025H283.445V175.336H286.363V178.676H283.445V192H279.631ZM305.717 184.23H292.393C292.486 185.789 292.949 187.008 293.781 187.887C294.613 188.754 295.721 189.188 297.104 189.188C298.334 189.188 299.359 188.93 300.18 188.414C301 187.898 301.715 187.066 302.324 185.918L305.541 187.711C304.604 189.387 303.443 190.635 302.061 191.455C300.678 192.275 299.055 192.686 297.191 192.686C294.52 192.686 292.393 191.871 290.811 190.242C289.229 188.613 288.438 186.439 288.438 183.721C288.438 181.107 289.252 178.963 290.881 177.287C292.521 175.6 294.625 174.756 297.191 174.756C299.875 174.756 301.967 175.523 303.467 177.059C304.967 178.594 305.717 180.744 305.717 183.51V184.23ZM301.762 181.664C301.609 180.469 301.152 179.561 300.391 178.939C299.629 178.307 298.586 177.99 297.262 177.99C296.008 177.99 295 178.295 294.238 178.904C293.477 179.514 292.943 180.434 292.639 181.664H301.762ZM336.25 192H332.436V189.838C331.756 190.799 330.959 191.514 330.045 191.982C329.143 192.451 328.105 192.686 326.934 192.686C324.578 192.686 322.721 191.883 321.361 190.277C320.014 188.66 319.34 186.451 319.34 183.65C319.34 180.99 320.031 178.846 321.414 177.217C322.797 175.576 324.602 174.756 326.828 174.756C328.188 174.756 329.348 175.043 330.309 175.617C331.281 176.18 331.99 176.994 332.436 178.061V175.336H336.25V192ZM332.541 183.615C332.541 181.893 332.137 180.551 331.328 179.59C330.531 178.629 329.412 178.148 327.971 178.148C326.529 178.148 325.393 178.646 324.561 179.643C323.74 180.627 323.33 181.998 323.33 183.756C323.33 185.525 323.729 186.891 324.525 187.852C325.322 188.812 326.447 189.293 327.9 189.293C329.271 189.293 330.385 188.771 331.24 187.729C332.107 186.686 332.541 185.314 332.541 183.615ZM341.523 192V175.336H345.109V178.061C345.871 176.912 346.768 176.074 347.799 175.547C348.83 175.02 350.084 174.756 351.561 174.756C352.803 174.756 353.857 174.955 354.725 175.354C355.604 175.74 356.289 176.32 356.781 177.094C357.074 177.551 357.285 178.084 357.414 178.693C357.543 179.303 357.607 180.369 357.607 181.893V192H353.758V183.439C353.758 181.248 353.488 179.795 352.949 179.08C352.422 178.354 351.479 177.99 350.119 177.99C349.229 177.99 348.432 178.154 347.729 178.482C347.037 178.811 346.492 179.273 346.094 179.871C345.812 180.27 345.613 180.785 345.496 181.418C345.391 182.039 345.338 183.035 345.338 184.406V192H341.523ZM374.658 183.615C374.658 181.893 374.254 180.551 373.445 179.59C372.648 178.629 371.529 178.148 370.088 178.148C368.646 178.148 367.51 178.646 366.678 179.643C365.857 180.627 365.447 181.998 365.447 183.756C365.447 185.525 365.846 186.891 366.643 187.852C367.439 188.812 368.564 189.293 370.018 189.293C371.4 189.293 372.52 188.777 373.375 187.746C374.23 186.703 374.658 185.326 374.658 183.615ZM374.553 164.754H378.367V192H374.553V189.838C373.873 190.799 373.076 191.514 372.162 191.982C371.26 192.451 370.223 192.686 369.051 192.686C366.695 192.686 364.838 191.883 363.479 190.277C362.131 188.66 361.457 186.451 361.457 183.65C361.457 180.99 362.148 178.846 363.531 177.217C364.914 175.576 366.719 174.756 368.945 174.756C370.305 174.756 371.465 175.043 372.426 175.617C373.398 176.18 374.107 176.994 374.553 178.061V164.754ZM395.031 192V178.676H392.113V175.336H395.031V170.871C395.031 168.656 395.488 167.021 396.402 165.967C397.328 164.912 398.758 164.385 400.691 164.385C401.102 164.385 401.523 164.414 401.957 164.473C402.391 164.531 402.83 164.625 403.275 164.754V168.199C402.971 168.023 402.66 167.895 402.344 167.812C402.039 167.719 401.729 167.672 401.412 167.672C400.498 167.672 399.842 167.953 399.443 168.516C399.045 169.078 398.846 170.027 398.846 171.363V175.336H402.854V178.676H398.846V192H395.031ZM405.209 168.129C405.209 167.484 405.443 166.928 405.912 166.459C406.393 165.99 406.961 165.756 407.617 165.756C408.297 165.756 408.859 165.984 409.305 166.441C409.762 166.887 409.99 167.449 409.99 168.129C409.99 168.809 409.762 169.383 409.305 169.852C408.848 170.309 408.285 170.537 407.617 170.537C406.961 170.537 406.393 170.303 405.912 169.834C405.443 169.354 405.209 168.785 405.209 168.129ZM405.719 192V175.336H409.533V192H405.719ZM415 192V175.336H418.586V178.061C419.348 176.912 420.244 176.074 421.275 175.547C422.307 175.02 423.561 174.756 425.037 174.756C426.279 174.756 427.334 174.955 428.201 175.354C429.08 175.74 429.766 176.32 430.258 177.094C430.551 177.551 430.762 178.084 430.891 178.693C431.02 179.303 431.084 180.369 431.084 181.893V192H427.234V183.439C427.234 181.248 426.965 179.795 426.426 179.08C425.898 178.354 424.955 177.99 423.596 177.99C422.705 177.99 421.908 178.154 421.205 178.482C420.514 178.811 419.969 179.273 419.57 179.871C419.289 180.27 419.09 180.785 418.973 181.418C418.867 182.039 418.814 183.035 418.814 184.406V192H415ZM435.83 168.129C435.83 167.484 436.064 166.928 436.533 166.459C437.014 165.99 437.582 165.756 438.238 165.756C438.918 165.756 439.48 165.984 439.926 166.441C440.383 166.887 440.611 167.449 440.611 168.129C440.611 168.809 440.383 169.383 439.926 169.852C439.469 170.309 438.906 170.537 438.238 170.537C437.582 170.537 437.014 170.303 436.533 169.834C436.064 169.354 435.83 168.785 435.83 168.129ZM436.34 192V175.336H440.154V192H436.34ZM443.705 188.977L446.869 187.254C447.104 188.086 447.537 188.719 448.17 189.152C448.803 189.586 449.617 189.803 450.613 189.803C451.469 189.803 452.137 189.609 452.617 189.223C453.109 188.824 453.355 188.285 453.355 187.605C453.355 186.703 452.488 185.93 450.754 185.285C450.168 185.074 449.717 184.898 449.4 184.758C447.619 184.02 446.371 183.27 445.656 182.508C444.953 181.746 444.602 180.82 444.602 179.73C444.602 178.242 445.182 177.035 446.342 176.109C447.514 175.184 449.061 174.721 450.982 174.721C452.271 174.721 453.373 174.961 454.287 175.441C455.213 175.91 455.887 176.584 456.309 177.463L453.602 179.326C453.402 178.799 453.051 178.383 452.547 178.078C452.055 177.762 451.48 177.604 450.824 177.604C450.098 177.604 449.512 177.779 449.066 178.131C448.633 178.471 448.416 178.928 448.416 179.502C448.416 180.369 449.4 181.16 451.369 181.875C451.99 182.098 452.471 182.279 452.811 182.42C454.346 183.029 455.441 183.721 456.098 184.494C456.766 185.256 457.1 186.211 457.1 187.359C457.1 189.023 456.496 190.33 455.289 191.279C454.082 192.217 452.418 192.686 450.297 192.686C448.668 192.686 447.314 192.381 446.236 191.771C445.158 191.162 444.314 190.23 443.705 188.977ZM460.949 192V164.754H464.535V178.061C465.297 176.912 466.193 176.074 467.225 175.547C468.256 175.02 469.51 174.756 470.986 174.756C472.229 174.756 473.283 174.955 474.15 175.354C475.029 175.74 475.715 176.32 476.207 177.094C476.5 177.551 476.711 178.084 476.84 178.693C476.969 179.303 477.033 180.369 477.033 181.893V192H473.184V183.439C473.184 181.248 472.914 179.795 472.375 179.08C471.848 178.354 470.904 177.99 469.545 177.99C468.654 177.99 467.857 178.154 467.154 178.482C466.463 178.811 465.918 179.273 465.52 179.871C465.238 180.27 465.039 180.785 464.922 181.418C464.816 182.039 464.764 183.035 464.764 184.406V192H460.949ZM4.5332 258V244.676H1.61523V241.336H4.5332V235.025H8.34766V241.336H11.2656V244.676H8.34766V258H4.5332ZM14.5703 258V230.754H18.1562V244.061C18.918 242.912 19.8145 242.074 20.8457 241.547C21.877 241.02 23.1309 240.756 24.6074 240.756C25.8496 240.756 26.9043 240.955 27.7715 241.354C28.6504 241.74 29.3359 242.32 29.8281 243.094C30.1211 243.551 30.332 244.084 30.4609 244.693C30.5898 245.303 30.6543 246.369 30.6543 247.893V258H26.8047V249.439C26.8047 247.248 26.5352 245.795 25.9961 245.08C25.4688 244.354 24.5254 243.99 23.166 243.99C22.2754 243.99 21.4785 244.154 20.7754 244.482C20.084 244.811 19.5391 245.273 19.1406 245.871C18.8594 246.27 18.6602 246.785 18.543 247.418C18.4375 248.039 18.3848 249.035 18.3848 250.406V258H14.5703ZM51.7832 250.23H38.459C38.5527 251.789 39.0156 253.008 39.8477 253.887C40.6797 254.754 41.7871 255.188 43.1699 255.188C44.4004 255.188 45.4258 254.93 46.2461 254.414C47.0664 253.898 47.7812 253.066 48.3906 251.918L51.6074 253.711C50.6699 255.387 49.5098 256.635 48.127 257.455C46.7441 258.275 45.1211 258.686 43.2578 258.686C40.5859 258.686 38.459 257.871 36.877 256.242C35.2949 254.613 34.5039 252.439 34.5039 249.721C34.5039 247.107 35.3184 244.963 36.9473 243.287C38.5879 241.6 40.6914 240.756 43.2578 240.756C45.9414 240.756 48.0332 241.523 49.5332 243.059C51.0332 244.594 51.7832 246.744 51.7832 249.51V250.23ZM47.8281 247.664C47.6758 246.469 47.2188 245.561 46.457 244.939C45.6953 244.307 44.6523 243.99 43.3281 243.99C42.0742 243.99 41.0664 244.295 40.3047 244.904C39.543 245.514 39.0098 246.434 38.7051 247.664H47.8281ZM70.3281 249.615C70.3281 251.338 70.7559 252.715 71.6113 253.746C72.4785 254.777 73.6152 255.293 75.0215 255.293C76.4629 255.293 77.5762 254.812 78.3613 253.852C79.1582 252.891 79.5566 251.525 79.5566 249.756C79.5566 247.998 79.1406 246.627 78.3086 245.643C77.4883 244.646 76.3574 244.148 74.916 244.148C73.4746 244.148 72.3496 244.629 71.541 245.59C70.7324 246.551 70.3281 247.893 70.3281 249.615ZM66.6367 265.84V241.336H70.4512V244.061C70.8965 243.006 71.6055 242.191 72.5781 241.617C73.5625 241.043 74.7344 240.756 76.0938 240.756C78.3086 240.756 80.1016 241.576 81.4727 243.217C82.8555 244.846 83.5469 246.99 83.5469 249.65C83.5469 252.451 82.8672 254.66 81.5078 256.277C80.1602 257.883 78.3086 258.686 75.9531 258.686C74.7812 258.686 73.7383 258.451 72.8242 257.982C71.9219 257.514 71.1309 256.799 70.4512 255.838V265.84H66.6367ZM87.2559 234.129C87.2559 233.484 87.4902 232.928 87.959 232.459C88.4395 231.99 89.0078 231.756 89.6641 231.756C90.3438 231.756 90.9062 231.984 91.3516 232.441C91.8086 232.887 92.0371 233.449 92.0371 234.129C92.0371 234.809 91.8086 235.383 91.3516 235.852C90.8945 236.309 90.332 236.537 89.6641 236.537C89.0078 236.537 88.4395 236.303 87.959 235.834C87.4902 235.354 87.2559 234.785 87.2559 234.129ZM87.7656 258V241.336H91.5801V258H87.7656ZM109.492 246.082C108.906 245.438 108.221 244.945 107.436 244.605C106.662 244.266 105.824 244.096 104.922 244.096C103.363 244.096 102.115 244.6 101.178 245.607C100.24 246.615 99.7715 247.951 99.7715 249.615C99.7715 251.35 100.24 252.715 101.178 253.711C102.127 254.695 103.434 255.188 105.098 255.188C106.023 255.188 106.85 255.018 107.576 254.678C108.303 254.326 108.941 253.799 109.492 253.096V257.49C108.789 257.889 108.033 258.188 107.225 258.387C106.428 258.586 105.578 258.686 104.676 258.686C102.062 258.686 99.9297 257.854 98.2773 256.189C96.6367 254.525 95.8164 252.369 95.8164 249.721C95.8164 247.037 96.666 244.875 98.3652 243.234C100.076 241.582 102.309 240.756 105.062 240.756C105.93 240.756 106.727 240.844 107.453 241.02C108.18 241.184 108.859 241.441 109.492 241.793V246.082ZM113.395 258V230.754H117.209V248.244L124.188 241.336H128.898L121.34 248.684L129.619 258H124.697L117.209 249.404V258H113.395ZM146.547 241.336V250.723C146.547 252.34 146.881 253.5 147.549 254.203C148.217 254.906 149.301 255.258 150.801 255.258C152.301 255.258 153.385 254.906 154.053 254.203C154.721 253.5 155.055 252.34 155.055 250.723V241.336H158.869V249.58C158.869 252.768 158.23 255.082 156.953 256.523C155.676 257.965 153.637 258.686 150.836 258.686C147.988 258.686 145.926 257.971 144.648 256.541C143.371 255.111 142.732 252.791 142.732 249.58V241.336H146.547ZM167.711 249.615C167.711 251.338 168.139 252.715 168.994 253.746C169.861 254.777 170.998 255.293 172.404 255.293C173.846 255.293 174.959 254.812 175.744 253.852C176.541 252.891 176.939 251.525 176.939 249.756C176.939 247.998 176.523 246.627 175.691 245.643C174.871 244.646 173.74 244.148 172.299 244.148C170.857 244.148 169.732 244.629 168.924 245.59C168.115 246.551 167.711 247.893 167.711 249.615ZM164.02 265.84V241.336H167.834V244.061C168.279 243.006 168.988 242.191 169.961 241.617C170.945 241.043 172.117 240.756 173.477 240.756C175.691 240.756 177.484 241.576 178.855 243.217C180.238 244.846 180.93 246.99 180.93 249.65C180.93 252.451 180.25 254.66 178.891 256.277C177.543 257.883 175.691 258.686 173.336 258.686C172.164 258.686 171.121 258.451 170.207 257.982C169.305 257.514 168.514 256.799 167.834 255.838V265.84H164.02ZM185.465 256.049C185.465 255.404 185.688 254.854 186.133 254.396C186.578 253.939 187.123 253.711 187.768 253.711C188.412 253.711 188.957 253.939 189.402 254.396C189.848 254.854 190.07 255.404 190.07 256.049C190.07 256.682 189.848 257.221 189.402 257.666C188.957 258.1 188.412 258.316 187.768 258.316C187.123 258.316 186.578 258.1 186.133 257.666C185.688 257.221 185.465 256.682 185.465 256.049Z" fill="#10150C"/>
<g opacity="0.5">
<mask id="mask0" mask-type="alpha" maskUnits="userSpaceOnUse" x="620" y="8" width="442" height="341">
<rect x="620" y="8" width="442" height="341" fill="white"/>
</mask>
<g mask="url(#mask0)">
<path d="M692.216 -34.6677C694.312 -44.0523 707.688 -44.0523 709.784 -34.6677L730.463 57.9333C731.452 62.3612 735.582 65.3607 740.098 64.9314L834.724 55.9369C844.307 55.026 848.437 67.7685 840.142 72.6522L758.336 120.814C754.417 123.121 752.835 127.989 754.649 132.159L792.463 219.117C796.299 227.939 785.481 235.818 778.262 229.461L706.948 166.663C703.548 163.669 698.452 163.669 695.052 166.663L623.738 229.461C616.519 235.818 605.701 227.939 609.537 219.117L647.351 132.159C649.165 127.989 647.583 123.121 643.664 120.814L561.858 72.6522C553.563 67.7685 557.693 55.026 567.276 55.9369L661.902 64.9314C666.418 65.3607 670.548 62.3612 671.537 57.9333L692.216 -34.6677Z" fill="#FFD47D" fill-opacity="0.5"/>
<path d="M970.215 -42.5548C972.307 -51.9462 985.693 -51.9462 987.785 -42.5548L1008.47 50.3085C1009.45 54.7397 1013.59 57.7422 1018.1 57.3114L1112.81 48.2843C1122.39 47.3714 1126.53 60.1027 1118.24 64.9939L1036.32 113.359C1032.41 115.667 1030.83 120.526 1032.63 124.691L1070.49 211.975C1074.31 220.802 1063.48 228.67 1056.27 222.302L984.957 159.33C981.554 156.325 976.446 156.325 973.043 159.33L901.728 222.302C894.515 228.67 883.686 220.802 887.514 211.975L925.366 124.691C927.172 120.526 925.593 115.667 921.684 113.359L839.757 64.9939C831.471 60.1026 835.608 47.3714 845.186 48.2843L939.895 57.3114C944.414 57.7422 948.547 54.7397 949.534 50.3085L970.215 -42.5548Z" fill="#FFD47D" fill-opacity="0.9"/>
<path d="M705.215 151.445C707.307 142.054 720.693 142.054 722.785 151.445L743.466 244.308C744.453 248.74 748.586 251.742 753.105 251.311L847.814 242.284C857.392 241.371 861.529 254.103 853.243 258.994L771.316 307.359C767.407 309.667 765.828 314.526 767.634 318.691L805.486 405.975C809.314 414.802 798.485 422.67 791.272 416.302L719.957 353.33C716.554 350.325 711.446 350.325 708.043 353.33L636.728 416.302C629.515 422.67 618.686 414.802 622.514 405.975L660.366 318.691C662.172 314.526 660.593 309.667 656.684 307.359L574.757 258.994C566.471 254.103 570.608 241.371 580.186 242.284L674.895 251.311C679.414 251.742 683.547 248.74 684.534 244.308L705.215 151.445Z" fill="#FFD47D" fill-opacity="0.7"/>
<path d="M973.216 184.332C975.312 174.948 988.688 174.948 990.784 184.332L1011.46 276.933C1012.45 281.361 1016.58 284.361 1021.1 283.931L1115.72 274.937C1125.31 274.026 1129.44 286.769 1121.14 291.652L1039.34 339.814C1035.42 342.121 1033.84 346.989 1035.65 351.159L1073.46 438.117C1077.3 446.939 1066.48 454.818 1059.26 448.461L987.948 385.663C984.548 382.669 979.452 382.669 976.052 385.663L904.738 448.461C897.519 454.818 886.701 446.939 890.537 438.117L928.351 351.159C930.165 346.989 928.583 342.121 924.664 339.814L842.858 291.652C834.563 286.769 838.693 274.026 848.276 274.937L942.902 283.931C947.418 284.361 951.548 281.361 952.537 276.933L973.216 184.332Z" fill="#FFD47D" fill-opacity="0.3"/>
</g>
</g>
<mask id="mask1" mask-type="alpha" maskUnits="userSpaceOnUse" x="620" y="8" width="442" height="341">
<rect x="620" y="8" width="442" height="341" fill="#C4C4C4"/>
</mask>
<g mask="url(#mask1)">
<g clip-path="url(#clip0)">
<path d="M960.628 168.474C960.628 168.474 941.257 164.552 943.709 172.886C946.161 181.22 962.344 175.828 962.344 175.828L960.628 168.474Z" fill="#FFB8B8"/>
<path d="M1002.42 124.452C1002.66 124.232 1002.96 124.082 1003.27 124.016C1003.59 123.95 1003.92 123.972 1004.23 124.078C1004.54 124.184 1004.82 124.371 1005.03 124.62C1005.24 124.868 1005.38 125.169 1005.43 125.49L1006.09 129.334C1006.09 129.334 1009.09 144.711 1006.52 154.479C1003.96 164.246 1002.14 177.113 995.218 178.483C989.291 179.656 966.758 177.799 960.379 177.238C959.92 177.198 959.493 176.984 959.186 176.641C958.878 176.297 958.713 175.85 958.723 175.389L958.842 169.778C958.852 169.336 959.022 168.913 959.321 168.587C959.62 168.262 960.028 168.056 960.468 168.009L986.266 165.259C986.669 165.216 987.046 165.04 987.338 164.759C987.629 164.478 987.818 164.107 987.874 163.706C988.488 159.318 990.472 145.715 992.443 138.562C994.036 132.783 999.267 127.326 1002.42 124.452Z" fill="#648355"/>
<path d="M1106.54 311.181H928.505V312.029H1106.54V311.181Z" fill="#3F3D56"/>
<path d="M985.655 288.448V300.215L992.276 301.685L996.69 299.479L996.199 290.164L985.655 288.448Z" fill="#FFB8B8"/>
<path d="M1024.76 288.448V300.215L1031.39 301.685L1035.8 299.479L1035.31 290.164L1024.76 288.448Z" fill="#FFB8B8"/>
<path d="M998.896 192.848C998.896 192.848 990.068 210.742 990.313 224.715C990.461 233.148 990.052 241.583 989.087 249.963L984.674 291.88L998.896 292.616L1005.52 247.512L1018.27 212.703L1023.17 254.13L1024.4 295.802H1036.66C1036.66 295.802 1042.3 256.336 1039.11 247.512C1039.11 247.512 1046.46 197.995 1040.58 195.544C1034.7 193.093 998.896 192.848 998.896 192.848Z" fill="#2F2E41"/>
<path d="M990.069 297.028C990.069 297.028 987.617 287.958 984.184 292.616C980.751 297.273 970.943 305.117 970.943 305.117C970.943 305.117 956.231 312.961 969.717 314.922C983.203 316.883 984.674 312.471 984.674 312.471C984.674 312.471 986.881 311.246 988.843 311.981C990.805 312.716 999.387 312.471 999.877 309.53C1000.37 306.588 997.18 290.409 996.199 293.351C995.218 296.293 990.069 297.028 990.069 297.028Z" fill="#2F2E41"/>
<path d="M1035.19 296.783C1035.19 296.783 1035.19 294.086 1030.53 293.841C1025.87 293.596 1025.13 296.783 1025.13 296.783C1025.13 296.783 1023.91 298.009 1023.66 301.685C1023.42 305.362 1023.66 314.922 1023.66 314.922C1023.66 314.922 1021.45 322.276 1031.51 320.806C1041.56 319.335 1037.88 311.736 1037.88 311.736L1035.19 296.783Z" fill="#2F2E41"/>
<path d="M1017.29 101.414L1016.06 115.142L1013.85 120.289L1019.74 128.624L1034.21 115.142C1034.21 115.142 1031.51 107.788 1033.22 103.621L1017.29 101.414Z" fill="#FFB8B8"/>
<path d="M1050.14 124.947L1050.03 126.155L1045.73 172.012C1045.73 172.012 1045.56 174.144 1045.25 176.988C1044.72 181.797 1043.78 188.639 1042.54 190.642C1040.58 193.828 1042.05 196.525 1042.05 196.525C1030.77 203.143 997.425 193.583 997.425 193.583L1005.03 163.187C1005.03 163.187 998.16 131.565 998.896 128.624C999.632 125.682 1015.08 115.142 1015.08 115.142L1015.54 116.367C1022.12 125.192 1028.81 117.593 1030.77 115.877L1034.7 112.445L1050.14 124.947Z" fill="#648355"/>
<path d="M999.719 209.054C976.342 212.225 954.04 213.385 933.404 211.433C926.076 210.691 918.807 209.443 911.651 207.699C898.53 204.594 882.423 204.594 864.727 206.247C853.968 207.205 843.363 209.454 833.141 212.944C819.427 217.69 804.404 217.279 788.477 213.306C781.94 211.605 775.64 209.097 769.723 205.841C758.078 199.586 744.297 201.851 729.277 209.054V153.117C743.3 147.012 756.96 146.027 770.187 151.173C775.009 153.099 779.994 154.585 785.083 155.616C803.465 159.207 822.439 158.351 840.423 153.117C864.741 144.88 890.178 147.441 915.939 153.117C944.639 159.178 972.612 159.535 999.719 153.117V209.054Z" fill="#3F3D56"/>
<path d="M803.034 311.181H625V312.029H803.034V311.181Z" fill="#3F3D56"/>
<path d="M845.343 49.1107L858.73 41.3837L851.001 28L837.614 35.7271L845.343 49.1107Z" fill="#FF6584"/>
<path d="M795.748 116.489L809.136 108.762L801.406 95.3784L788.019 103.105L795.748 116.489Z" fill="#3F3D56"/>
<path d="M931.816 98.691L945.204 90.964L937.475 77.5804L924.087 85.3074L931.816 98.691Z" fill="#D0CDE1"/>
<path d="M700.813 207.506L708.908 244.971L684.323 300.12L698.714 306.414L726.297 243.173L708.664 187.633L698.171 190.33L700.813 207.506Z" fill="#2F2E41"/>
<path d="M693.617 197.204C693.617 197.204 696.615 202.599 703.211 207.095C709.807 211.591 723.598 241.264 723.598 241.264L708.608 301.208L729.295 306.903L740.688 236.468L717.302 183.717L693.617 197.204Z" fill="#2F2E41"/>
<path d="M686.122 298.022C686.122 298.022 683.124 301.319 684.323 303.717C685.522 306.114 686.122 312.409 686.122 312.409H688.82V305.215L697.515 313.308C697.515 313.308 717.602 315.106 717.303 313.308C717.003 311.509 705.31 307.313 705.31 307.313L699.614 298.621L686.122 298.022Z" fill="#2F2E41"/>
<path d="M712.506 298.811C712.506 298.811 709.508 302.108 710.707 304.505C711.906 306.903 712.506 313.197 712.506 313.197H715.204V306.004L723.899 314.096C723.899 314.096 743.986 315.895 743.686 314.096C743.387 312.298 731.694 308.102 731.694 308.102L725.997 299.41L712.506 298.811Z" fill="#2F2E41"/>
<path d="M705.31 115.081C711.602 115.081 716.703 109.981 716.703 103.691C716.703 97.4009 711.602 92.3016 705.31 92.3016C699.018 92.3016 693.917 97.4009 693.917 103.691C693.917 109.981 699.018 115.081 705.31 115.081Z" fill="#A0616A"/>
<path d="M696.016 104.291C696.016 104.291 695.116 115.68 689.42 119.876C683.724 124.072 683.724 127.669 683.724 127.669L706.809 138.159L701.413 126.77C701.413 126.77 699.913 126.17 702.312 123.173C704.71 120.176 706.809 112.982 706.809 112.982L696.016 104.291Z" fill="#A0616A"/>
<path d="M719.551 185.066C713.313 190.51 706.086 194.704 698.264 197.419L692.822 199.308C692.822 199.308 681.316 185.348 687.126 174.348C688.32 172.023 690.027 169.999 692.118 168.431L691.998 167.907L689.081 155.183L688.82 154.044L680.126 151.946C680.126 151.946 680.099 151.955 680.048 151.967C679.397 152.138 674.987 152.947 678.327 142.655C680.549 135.806 682.16 129.286 683.067 125.3C683.192 124.743 683.429 124.218 683.763 123.755C684.098 123.292 684.522 122.902 685.011 122.607C685.499 122.313 686.043 122.12 686.608 122.041C687.173 121.962 687.749 121.998 688.3 122.147C691.084 122.91 694.542 124.36 696.615 127.069C700.513 132.165 701.3 126.844 701.3 126.844C701.3 126.844 712.206 139.058 711.606 144.453C711.503 145.901 711.547 147.355 711.738 148.793V148.799C711.81 149.441 711.897 150.109 711.996 150.792C712.739 155.84 714.178 161.705 714.706 163.767C714.745 163.914 714.778 164.043 714.805 164.151C714.868 164.4 714.904 164.535 714.904 164.535L719.551 185.066Z" fill="#E8C547"/>
<path opacity="0.2" d="M704.111 169.93L701.712 178.022C701.712 178.022 692.514 175.678 687.127 174.348C688.32 172.023 690.027 169.999 692.118 168.431L691.999 167.907L689.081 155.183L688.821 154.044L680.126 151.946C680.126 151.946 680.099 151.955 680.048 151.967L679.526 148.05C679.526 148.05 694.517 148.949 695.416 152.546C696.316 156.142 694.517 159.739 693.618 160.339C692.718 160.938 693.618 160.339 695.416 161.238C697.215 162.137 694.817 161.238 693.618 163.036C692.418 164.834 693.917 163.336 694.217 164.235C694.517 165.134 694.217 163.935 693.917 165.434C693.618 166.932 695.117 165.734 695.416 165.734C695.716 165.734 704.111 169.93 704.111 169.93Z" fill="black"/>
<path d="M701.412 168.431L720.9 173.527C720.9 173.527 731.393 162.736 737.09 166.033C742.786 169.33 726.896 176.823 726.896 176.823L721.2 178.022L700.513 175.625L701.412 168.431Z" fill="#A0616A"/>
<path d="M679.526 146.851L680.726 155.843C680.726 155.843 679.826 155.843 680.726 157.941C681.625 160.039 680.726 164.235 680.726 164.235C680.726 164.235 678.927 164.535 680.426 165.434C681.925 166.333 683.424 168.731 682.824 169.63C682.225 170.529 681.025 171.728 683.724 172.328C686.422 172.927 701.712 176.823 701.712 176.823L704.111 168.731C704.111 168.731 695.716 164.535 695.416 164.535C695.117 164.535 693.618 165.734 693.917 164.235C694.217 162.736 694.517 163.935 694.217 163.036C693.917 162.137 692.418 163.636 693.618 161.837C694.817 160.039 697.215 160.938 695.416 160.039C693.618 159.14 692.718 159.739 693.618 159.14C694.517 158.54 696.316 154.944 695.416 151.347C694.517 147.75 679.526 146.851 679.526 146.851Z" fill="#E8C547"/>
<path d="M702.683 123.819L703.586 122.382C704.01 121.709 704.148 120.896 703.972 120.12C703.795 119.345 703.317 118.672 702.644 118.249L695.761 113.921C695.087 113.497 694.273 113.359 693.498 113.535C692.722 113.712 692.049 114.189 691.625 114.862L690.722 116.298C690.213 116.296 689.712 116.423 689.266 116.668C688.82 116.912 688.444 117.267 688.173 117.697L685.95 121.231C685.526 121.904 685.388 122.718 685.564 123.493C685.741 124.268 686.218 124.942 686.892 125.365L696.167 131.197C696.841 131.62 697.655 131.759 698.43 131.582C699.206 131.406 699.879 130.928 700.303 130.255L702.526 126.722C702.796 126.291 702.953 125.798 702.98 125.29C703.008 124.783 702.905 124.276 702.683 123.819Z" fill="#E8C547"/>
<path d="M704.913 103.495C705.55 102.565 705.271 101.272 705.727 100.24C706.443 98.6202 708.555 98.2879 710.324 98.1813C711.496 98.0596 712.68 98.0914 713.844 98.276C714.359 98.3743 714.843 98.5907 715.259 98.9081C715.676 99.2255 716.013 99.6353 716.243 100.105C716.492 100.635 716.466 98.9931 716.349 96.8837C716.232 94.7311 715.434 92.6713 714.071 91.0011C712.707 89.3308 710.849 88.1364 708.763 87.59C708.738 87.5835 708.713 87.5771 708.689 87.5709C706.552 87.0234 704.346 86.6051 702.15 86.8092C699.954 87.0134 697.748 87.9056 696.339 89.6024C695.695 90.3779 695.231 91.2995 694.516 92.01C693.26 93.2584 691.433 93.6794 689.75 94.232C687.822 94.8023 686.037 95.7749 684.513 97.0856C682.984 98.4161 682.041 100.296 681.889 102.317C681.797 104.651 683.225 107.096 685.607 107.615C686.022 107.697 686.411 107.877 686.744 108.138C688.987 109.965 686.334 111.757 686.304 113.752C686.278 115.417 688.106 116.547 689.767 116.665C691.321 116.73 692.85 116.253 694.091 115.316C695.333 114.378 696.209 113.038 696.57 111.525C696.854 110.165 696.694 108.758 696.565 107.375C696.416 105.791 699.907 102.156 697.595 104.826C697.144 105.334 696.832 105.95 696.692 106.614C696.265 108.781 698.229 109.562 699.449 110.798C700.119 111.497 700.579 112.369 700.778 113.316C700.976 114.263 700.906 115.247 700.574 116.156C701.627 115.248 702.329 114.001 702.561 112.63C702.792 111.259 702.538 109.85 701.841 108.647C701.453 108.02 700.948 107.47 700.581 106.831C700.01 105.833 699.897 103.69 701.563 103.789C702.752 103.86 703.964 104.88 704.913 103.495Z" fill="#2F2E41"/>
<path d="M1025.62 108.033C1032.53 108.033 1038.13 102.436 1038.13 95.5313C1038.13 88.6268 1032.53 83.0297 1025.62 83.0297C1018.72 83.0297 1013.12 88.6268 1013.12 95.5313C1013.12 102.436 1018.72 108.033 1025.62 108.033Z" fill="#FFB8B8"/>
<path opacity="0.2" d="M1049.54 126.646L1045.24 172.502C1045.24 172.502 1045.07 174.635 1044.76 177.478C1035.63 179.66 1010.42 181.327 1010.42 181.327L1009.19 172.502L1037.15 164.903C1037.15 164.903 1033.71 145.783 1037.64 137.939C1038.6 136.031 1039.46 134.073 1040.21 132.074C1040.9 130.231 1042.2 128.682 1043.91 127.693C1045.61 126.703 1047.6 126.333 1049.54 126.646V126.646Z" fill="black"/>
<path d="M1011.89 171.276C1011.89 171.276 992.52 167.354 994.972 175.689C997.424 184.023 1013.61 178.63 1013.61 178.63L1011.89 171.276Z" fill="#FFB8B8"/>
<path d="M1042.54 123.721L1050.14 124.947C1050.14 124.947 1055.54 139.655 1054.56 149.705C1053.58 159.755 1053.82 172.747 1047.2 175.199C1040.58 177.65 1010.91 179.611 1010.91 179.611L1009.68 170.786L1037.64 163.187C1037.64 163.187 1034.2 144.067 1038.13 136.223C1042.05 128.379 1042.54 123.721 1042.54 123.721Z" fill="#648355"/>
<path d="M1014.96 82.8338L1012.56 81.8718C1012.56 81.8718 1017.58 76.3406 1024.57 76.8216L1022.61 74.6571C1022.61 74.6571 1027.42 72.7332 1031.79 77.7835C1034.08 80.4383 1036.74 83.5589 1038.4 87.0743H1040.97L1039.9 89.4391L1043.66 91.8039L1039.8 91.3791C1040.03 92.6741 1040.06 93.9962 1039.9 95.3016C1039.74 96.6074 1039.07 97.7979 1038.04 98.6217C1038.04 98.6217 1035.06 92.4534 1035.06 91.4914V93.8963C1035.06 93.8963 1032.66 91.7319 1032.66 90.289L1031.35 91.9724H1022.61L1023.92 89.808L1018.89 90.5295L1020.86 87.8841L1013.08 98.8079C1013.08 98.8079 1008.62 86.4412 1014.96 82.8338Z" fill="#2F2E41"/>
<path d="M886.964 191.03C886.964 193.838 876.65 200.882 864.71 200.882C852.771 200.882 843.728 193.838 843.728 191.03C843.728 188.221 852.771 191.983 864.71 191.983C876.65 191.983 886.964 188.221 886.964 191.03Z" fill="#D0CDE1"/>
<path d="M881.029 173.882C883.838 173.882 886.116 171.605 886.116 168.797C886.116 165.988 883.838 163.711 881.029 163.711C878.22 163.711 875.942 165.988 875.942 168.797C875.942 171.605 878.22 173.882 881.029 173.882Z" fill="#3F3D56"/>
<path d="M847.967 173.882C850.776 173.882 853.053 171.605 853.053 168.797C853.053 165.988 850.776 163.711 847.967 163.711C845.157 163.711 842.88 165.988 842.88 168.797C842.88 171.605 845.157 173.882 847.967 173.882Z" fill="#3F3D56"/>
<path d="M850.934 168.797C852.339 168.797 853.477 167.658 853.477 166.254C853.477 164.85 852.339 163.711 850.934 163.711C849.529 163.711 848.391 164.85 848.391 166.254C848.391 167.658 849.529 168.797 850.934 168.797Z" fill="#D0CDE1"/>
<path d="M876.79 168.797C878.195 168.797 879.334 167.658 879.334 166.254C879.334 164.85 878.195 163.711 876.79 163.711C875.386 163.711 874.247 164.85 874.247 166.254C874.247 167.658 875.386 168.797 876.79 168.797Z" fill="#D0CDE1"/>
<g clip-path="url(#clip1)">
<path d="M861.949 292.254C912.886 292.254 954.179 251.057 954.179 200.238C954.179 149.419 912.886 108.221 861.949 108.221C811.011 108.221 769.719 149.419 769.719 200.238C769.719 251.057 811.011 292.254 861.949 292.254Z" stroke="#3AD29F" stroke-width="2" stroke-miterlimit="10" stroke-dasharray="12 12"/>
<path d="M861.948 311.773C923.69 311.773 973.742 261.837 973.742 200.238C973.742 138.639 923.69 88.7028 861.948 88.7028C800.206 88.7028 750.154 138.639 750.154 200.238C750.154 261.837 800.206 311.773 861.948 311.773Z" stroke="#3AD29F" stroke-width="2" stroke-miterlimit="10" stroke-dasharray="12 12"/>
<path d="M936.77 235.771C936.771 229.505 934.429 223.464 930.201 218.829C925.974 214.195 920.165 211.302 913.912 210.715C907.659 210.128 901.411 211.891 896.392 215.657C891.372 219.424 887.942 224.924 886.773 231.08L809.266 228.983L810.116 242.268C810.116 242.268 799.064 267.71 857.151 274.489V300.204H924.301V257.449C928.094 255.234 931.239 252.068 933.426 248.265C935.613 244.462 936.766 240.155 936.77 235.771Z" fill="url(#paint0_linear)"/>
<path d="M812.777 242.826C812.777 242.826 802.194 267.19 857.821 273.69V298.327H922.13V233.082L811.951 230.101L812.777 242.826Z" fill="#BE7C5E"/>
<path d="M844.918 141.152C843.241 143.792 840.585 145.663 837.531 146.355C834.476 147.048 831.271 146.506 828.615 144.848L794.086 122.148C791.44 120.475 789.565 117.825 788.871 114.778C788.177 111.73 788.72 108.532 790.381 105.882C792.058 103.246 794.712 101.378 797.763 100.685C800.815 99.993 804.018 100.533 806.672 102.186L841.201 124.887C843.849 126.558 845.727 129.207 846.423 132.254C847.12 135.302 846.578 138.501 844.918 141.152Z" fill="url(#paint1_linear)"/>
<path d="M843.006 139.913C841.447 142.367 838.978 144.105 836.139 144.749C833.299 145.393 830.32 144.889 827.851 143.349L795.745 122.231C793.285 120.676 791.542 118.213 790.897 115.38C790.252 112.548 790.756 109.575 792.301 107.112C793.859 104.658 796.328 102.92 799.168 102.276C802.007 101.632 804.987 102.136 807.455 103.676L839.555 124.781C842.019 126.335 843.766 128.8 844.413 131.636C845.059 134.472 844.553 137.448 843.006 139.913Z" fill="#BE7C5E"/>
<path d="M909.923 260.696C923.261 260.696 934.074 249.909 934.074 236.601C934.074 223.294 923.261 212.507 909.923 212.507C896.585 212.507 885.772 223.294 885.772 236.601C885.772 249.909 896.585 260.696 909.923 260.696Z" fill="#BE7C5E"/>
<path d="M905.576 77.6826H813.06C810.959 77.6826 809.256 79.3818 809.256 81.4779V254.19C809.256 256.286 810.959 257.985 813.06 257.985H905.576C907.676 257.985 909.38 256.286 909.38 254.19V81.4779C909.38 79.3818 907.676 77.6826 905.576 77.6826Z" fill="url(#paint2_linear)"/>
<path d="M903.787 80.1207H814.842C812.503 80.1207 810.606 82.0127 810.606 84.3467V251.327C810.606 253.661 812.503 255.553 814.842 255.553H903.787C906.126 255.553 908.022 253.661 908.022 251.327V84.3467C908.022 82.0127 906.126 80.1207 903.787 80.1207Z" fill="white"/>
<path d="M883.788 84.5203C883.507 86.3807 882.567 88.0791 881.139 89.3083C879.711 90.5374 877.889 91.2161 876.003 91.2217H842.359C840.474 91.2154 838.653 90.5364 837.226 89.3073C835.798 88.0782 834.859 86.3802 834.577 84.5203H816.752C816.266 84.5199 815.785 84.615 815.336 84.8003C814.887 84.9855 814.479 85.2572 814.135 85.5999C813.791 85.9426 813.519 86.3495 813.333 86.7974C813.147 87.2453 813.051 87.7254 813.051 88.2102V247.457C813.05 247.942 813.146 248.422 813.331 248.87C813.517 249.318 813.789 249.726 814.133 250.069C814.476 250.412 814.884 250.684 815.333 250.869C815.782 251.055 816.263 251.15 816.749 251.15H901.88C902.366 251.151 902.848 251.056 903.297 250.87C903.746 250.685 904.154 250.413 904.498 250.071C904.841 249.728 905.114 249.321 905.3 248.873C905.486 248.425 905.582 247.945 905.582 247.46V88.2133C905.582 87.7285 905.487 87.2483 905.301 86.8003C905.116 86.3522 904.843 85.9451 904.5 85.6021C904.156 85.2592 903.748 84.9871 903.299 84.8014C902.851 84.6158 902.369 84.5203 901.883 84.5203H883.788Z" fill="#2B50AA"/>
<path d="M869.686 86.6177H849.219C848.876 86.6177 848.598 86.8951 848.598 87.2373V87.3519C848.598 87.6942 848.876 87.9716 849.219 87.9716H869.686C870.029 87.9716 870.307 87.6942 870.307 87.3519V87.2373C870.307 86.8951 870.029 86.6177 869.686 86.6177Z" fill="#DBDBDB"/>
<path d="M874.919 87.9717C875.368 87.9717 875.733 87.6083 875.733 87.16C875.733 86.7117 875.368 86.3483 874.919 86.3483C874.47 86.3483 874.105 86.7117 874.105 87.16C874.105 87.6083 874.47 87.9717 874.919 87.9717Z" fill="#DBDBDB"/>
<path d="M925.534 240.852C918.525 242.469 913.714 237.909 912.093 230.919L895.989 171.257C895.219 167.887 895.817 164.349 897.653 161.417C899.489 158.485 902.413 156.397 905.786 155.608C909.165 154.84 912.711 155.437 915.649 157.269C918.588 159.1 920.681 162.017 921.472 165.383L934.614 226.585C936.235 233.578 932.539 239.235 925.534 240.852Z" fill="url(#paint3_linear)"/>
<path d="M919.665 166.844C918.299 160.944 912.397 157.266 906.483 158.629C900.569 159.992 896.883 165.88 898.249 171.78L913.058 235.725C914.425 241.625 920.326 245.303 926.24 243.94C932.154 242.576 935.84 236.688 934.474 230.788L919.665 166.844Z" fill="#BE7C5E"/>
<path d="M933.971 290.265H842.052V311.643H933.971V290.265Z" fill="url(#paint4_linear)"/>
<path d="M931.487 292.744H844.536V309.474H931.487V292.744Z" fill="#4D8AF0"/>
<path d="M831.515 205.155C829.858 207.763 827.234 209.612 824.216 210.296C821.198 210.98 818.031 210.445 815.407 208.807L792.25 193.859C789.636 192.206 787.783 189.588 787.097 186.577C786.411 183.566 786.947 180.406 788.589 177.788C790.246 175.18 792.87 173.331 795.888 172.647C798.906 171.963 802.073 172.498 804.697 174.136L827.854 189.084C830.468 190.737 832.321 193.355 833.007 196.366C833.693 199.377 833.156 202.537 831.515 205.155Z" fill="url(#paint5_linear)"/>
<path d="M825.702 236.797C824.03 239.429 821.383 241.294 818.337 241.985C815.292 242.676 812.096 242.136 809.448 240.483L795.104 230.049C792.466 228.381 790.596 225.74 789.904 222.701C789.211 219.663 789.752 216.474 791.409 213.833C793.08 211.2 795.728 209.335 798.773 208.644C801.819 207.953 805.015 208.493 807.662 210.146L822.006 220.584C824.644 222.251 826.513 224.892 827.206 227.93C827.898 230.968 827.357 234.155 825.702 236.797Z" fill="url(#paint6_linear)"/>
<g opacity="0.5">
<path opacity="0.5" d="M859.315 195.702C874.74 195.702 887.244 183.226 887.244 167.837C887.244 152.447 874.74 139.972 859.315 139.972C843.889 139.972 831.385 152.447 831.385 167.837C831.385 183.226 843.889 195.702 859.315 195.702Z" fill="url(#paint7_linear)"/>
</g>
<path d="M859.314 194.063C873.832 194.063 885.602 182.321 885.602 167.837C885.602 153.353 873.832 141.611 859.314 141.611C844.796 141.611 833.027 153.353 833.027 167.837C833.027 182.321 844.796 194.063 859.314 194.063Z" fill="#69F0AE"/>
<path d="M847.905 164.336L857.762 173.352L871.727 152.864L876.658 156.962L857.762 181.55L843.797 165.978L847.905 164.336Z" fill="white"/>
<path d="M824.544 236.019C822.985 238.473 820.516 240.211 817.677 240.855C814.837 241.499 811.858 240.995 809.389 239.455L796.011 229.739C793.552 228.184 791.809 225.721 791.164 222.888C790.518 220.055 791.023 217.082 792.567 214.62C794.126 212.166 796.595 210.427 799.434 209.783C802.274 209.139 805.253 209.643 807.722 211.184L821.097 220.918C823.552 222.473 825.291 224.932 825.937 227.76C826.583 230.589 826.082 233.557 824.544 236.019Z" fill="#BE7C5E"/>
<path d="M830.242 204.334C828.683 206.787 826.215 208.526 823.375 209.17C820.536 209.814 817.556 209.31 815.088 207.769L793.3 193.704C790.841 192.149 789.098 189.686 788.453 186.853C787.807 184.02 788.312 181.047 789.856 178.585C791.415 176.131 793.884 174.392 796.723 173.748C799.563 173.104 802.542 173.608 805.011 175.149L826.798 189.214C829.258 190.769 831 193.232 831.646 196.065C832.291 198.898 831.786 201.871 830.242 204.334Z" fill="#BE7C5E"/>
<path d="M837.502 173.662C835.837 176.282 833.201 178.138 830.169 178.825C827.137 179.513 823.956 178.975 821.32 177.33L791.974 158.267C789.348 156.606 787.487 153.976 786.798 150.951C786.11 147.926 786.648 144.752 788.297 142.122C789.962 139.502 792.598 137.646 795.63 136.958C798.662 136.271 801.843 136.809 804.479 138.454L833.825 157.517C836.451 159.178 838.312 161.808 839.001 164.833C839.69 167.858 839.151 171.032 837.502 173.662Z" fill="url(#paint8_linear)"/>
<path d="M835.943 172.67C834.385 175.124 831.916 176.863 829.076 177.506C826.237 178.15 823.258 177.647 820.789 176.106L793.303 158.251C790.844 156.696 789.101 154.233 788.456 151.4C787.81 148.567 788.315 145.595 789.859 143.132C791.418 140.678 793.887 138.939 796.726 138.296C799.566 137.652 802.545 138.155 805.014 139.696L832.496 157.551C834.956 159.105 836.7 161.568 837.346 164.401C837.992 167.234 837.487 170.207 835.943 172.67Z" fill="#BE7C5E"/>
</g>
</g>
</g>
<defs>
<linearGradient id="paint0_linear" x1="873.022" y1="300.22" x2="873.022" y2="210.608" gradientUnits="userSpaceOnUse">
<stop stop-color="#808080" stop-opacity="0.25"/>
<stop offset="0.54" stop-color="#808080" stop-opacity="0.12"/>
<stop offset="1" stop-color="#808080" stop-opacity="0.1"/>
</linearGradient>
<linearGradient id="paint1_linear" x1="27379.9" y1="13738.8" x2="27379.9" y2="6830.54" gradientUnits="userSpaceOnUse">
<stop stop-color="#808080" stop-opacity="0.25"/>
<stop offset="0.54" stop-color="#808080" stop-opacity="0.12"/>
<stop offset="1" stop-color="#808080" stop-opacity="0.1"/>
</linearGradient>
<linearGradient id="paint2_linear" x1="59960.2" y1="118006" x2="59960.2" y2="13076.7" gradientUnits="userSpaceOnUse">
<stop stop-color="#808080" stop-opacity="0.25"/>
<stop offset="0.54" stop-color="#808080" stop-opacity="0.12"/>
<stop offset="1" stop-color="#808080" stop-opacity="0.1"/>
</linearGradient>
<linearGradient id="paint3_linear" x1="31254.3" y1="51685.9" x2="31254.3" y2="27870" gradientUnits="userSpaceOnUse">
<stop stop-color="#808080" stop-opacity="0.25"/>
<stop offset="0.54" stop-color="#808080" stop-opacity="0.12"/>
<stop offset="1" stop-color="#808080" stop-opacity="0.1"/>
</linearGradient>
<linearGradient id="paint4_linear" x1="63635.2" y1="17954.8" x2="63635.2" y2="16479.8" gradientUnits="userSpaceOnUse">
<stop stop-color="#808080" stop-opacity="0.25"/>
<stop offset="0.54" stop-color="#808080" stop-opacity="0.12"/>
<stop offset="1" stop-color="#808080" stop-opacity="0.1"/>
</linearGradient>
<linearGradient id="paint5_linear" x1="20912" y1="19333.1" x2="20912" y2="14615.4" gradientUnits="userSpaceOnUse">
<stop stop-color="#808080" stop-opacity="0.25"/>
<stop offset="0.54" stop-color="#808080" stop-opacity="0.12"/>
<stop offset="1" stop-color="#808080" stop-opacity="0.1"/>
</linearGradient>
<linearGradient id="paint6_linear" x1="17009.4" y1="20683.3" x2="17009.4" y2="16967.2" gradientUnits="userSpaceOnUse">
<stop stop-color="#808080" stop-opacity="0.25"/>
<stop offset="0.54" stop-color="#808080" stop-opacity="0.12"/>
<stop offset="1" stop-color="#808080" stop-opacity="0.1"/>
</linearGradient>
<linearGradient id="paint7_linear" x1="20523" y1="21369.3" x2="20523" y2="11344" gradientUnits="userSpaceOnUse">
<stop stop-color="#808080" stop-opacity="0.25"/>
<stop offset="0.54" stop-color="#808080" stop-opacity="0.12"/>
<stop offset="1" stop-color="#808080" stop-opacity="0.1"/>
</linearGradient>
<linearGradient id="paint8_linear" x1="24121.3" y1="17102.1" x2="24121.3" y2="11285.1" gradientUnits="userSpaceOnUse">
<stop stop-color="#808080" stop-opacity="0.25"/>
<stop offset="0.54" stop-color="#808080" stop-opacity="0.12"/>
<stop offset="1" stop-color="#808080" stop-opacity="0.1"/>
</linearGradient>
<clipPath id="clip0">
<rect width="481.539" height="293" fill="white" transform="translate(625 28)"/>
</clipPath>
<clipPath id="clip1">
<rect width="224.209" height="234.4" fill="white" transform="translate(749.844 77.6826)"/>
</clipPath>
</defs>
</svg>
