<svg width="540" height="275" viewBox="0 0 540 275" fill="none" xmlns="http://www.w3.org/2000/svg">
<g clip-path="url(#clip0)">
<path opacity="0.1" d="M281.717 275C424.362 275 540 241.225 540 199.561C540 157.897 424.362 124.122 281.717 124.122C139.071 124.122 23.4336 157.897 23.4336 199.561C23.4336 241.225 139.071 275 281.717 275Z" fill="black"/>
<path d="M471.837 94.111C471.837 94.111 482.248 104.754 476.372 120.549C470.496 136.344 486.452 162.612 486.452 162.612L485.964 162.529C464.578 158.693 453.952 133.669 465.843 115.096C470.261 108.185 473.89 100.085 471.837 94.111Z" fill="#2B50AA"/>
<path d="M471.837 94.111C471.837 94.111 477.735 107.16 471.837 117.803C465.94 128.446 470.829 158.32 486.447 162.612" stroke="#535461" stroke-miterlimit="10"/>
<path d="M453.293 137.16C453.293 137.16 465.173 135.226 466.256 146.11C467.339 156.994 489.106 158.501 489.106 158.501L488.699 158.781C470.728 170.838 453.55 166.454 456.14 150.451C457.11 144.499 457.019 138.52 453.293 137.16Z" fill="#2B50AA"/>
<path opacity="0.2" d="M453.293 137.16C453.293 137.16 465.173 135.226 466.256 146.11C467.339 156.994 489.106 158.501 489.106 158.501L488.699 158.781C470.728 170.838 453.55 166.454 456.14 150.451C457.11 144.499 457.019 138.52 453.293 137.16Z" fill="#F5F5F5"/>
<path d="M453.293 137.16C453.293 137.16 462.514 139.232 461.758 147.803C461.002 156.375 475.456 166.651 489.101 158.507" stroke="#535461" stroke-miterlimit="10"/>
<path d="M430.706 206.302L405.042 204.362H67.627V153.837H430.706V206.302Z" fill="#F5F5F5"/>
<path d="M64.1311 24.6019H41.9678V11.2624C41.9678 8.79141 42.928 6.42164 44.6372 4.67439C46.3465 2.92715 48.6647 1.94556 51.0819 1.94556H55.017C57.4342 1.94556 59.7524 2.92715 61.4617 4.67439C63.1709 6.42164 64.1311 8.79141 64.1311 11.2624V24.6019Z" fill="#EDEDF4"/>
<path d="M444.328 129.548V206.631L419.581 206.302C419.581 205.754 419.618 205.206 419.618 204.691C419.618 191.464 414.478 178.779 405.329 169.426C396.18 160.073 383.77 154.818 370.831 154.818C357.892 154.818 345.483 160.073 336.333 169.426C327.184 178.779 322.044 191.464 322.044 204.691C322.044 204.801 322.044 204.91 322.044 205.014L297.345 204.685H169.329C169.328 202.854 169.227 201.025 169.029 199.205C168.938 198.328 168.825 197.468 168.68 196.613C168.336 194.414 167.845 192.243 167.211 190.113C166.954 189.236 166.675 188.376 166.364 187.521C165.564 185.295 164.611 183.13 163.512 181.043C163.051 180.16 162.558 179.3 162.043 178.45C160.66 176.166 159.098 174 157.374 171.972C156.612 171.077 155.824 170.213 155.009 169.38C145.862 160.045 133.465 154.801 120.539 154.801C107.614 154.801 95.2162 160.045 86.0691 169.38C85.2506 170.217 84.4625 171.081 83.7047 171.972C81.9804 174 80.4188 176.166 79.0351 178.45C78.499 179.3 78.0272 180.16 77.5661 181.043C76.4669 183.13 75.5138 185.295 74.714 187.521C74.4084 188.376 74.1242 189.236 73.8669 190.113C73.2343 192.236 72.7435 194.4 72.3979 196.591C72.2531 197.446 72.1406 198.306 72.0494 199.183C71.851 201.003 71.7508 202.832 71.7492 204.664H22.9619V34.3299H367.041L401.176 110.416L443.599 129.225L444.328 129.548Z" fill="#2B50AA"/>
<path d="M30.5593 18.1349H353.627C357.182 18.1349 360.591 19.5784 363.105 22.1479C365.618 24.7174 367.031 28.2023 367.031 31.8361V34.3297H22.957V25.9007C22.957 24.8805 23.1537 23.8702 23.5358 22.9276C23.9179 21.9851 24.478 21.1287 25.184 20.4075C25.89 19.6863 26.7281 19.1144 27.6504 18.7245C28.5727 18.3345 29.5612 18.1342 30.5593 18.1349Z" fill="#F5F5F5"/>
<path d="M289.721 18.135H211.146V15.1098C211.146 13.1248 211.529 11.1593 212.272 9.32542C213.015 7.49157 214.104 5.82528 215.477 4.4217C216.85 3.01813 218.48 1.90475 220.274 1.14514C222.068 0.38553 223.991 -0.00543213 225.933 -0.00543213H271.342L289.721 18.135Z" fill="#EDEDF4"/>
<path opacity="0.1" d="M54.4435 179.42H21.8847C18.6276 179.42 15.9873 182.119 15.9873 185.449V204.483C15.9873 207.812 18.6276 210.511 21.8847 210.511H54.4435C57.7005 210.511 60.3408 207.812 60.3408 204.483V185.449C60.3408 182.119 57.7005 179.42 54.4435 179.42Z" fill="black"/>
<path opacity="0.1" d="M297.007 204.362H260.256V34.0064H332.488V151.892L297.007 204.362Z" fill="black"/>
<path d="M53.8106 180.719H21.2519C17.9948 180.719 15.3545 183.418 15.3545 186.748V205.781C15.3545 209.111 17.9948 211.81 21.2519 211.81H53.8106C57.0677 211.81 59.708 209.111 59.708 205.781V186.748C59.708 183.418 57.0677 180.719 53.8106 180.719Z" fill="#F5F5F5"/>
<path opacity="0.1" d="M447.685 178.127H438.437C434.342 178.127 431.022 181.52 431.022 185.706V206.823C431.022 211.009 434.342 214.402 438.437 214.402H447.685C451.78 214.402 455.1 211.009 455.1 206.823V185.706C455.1 181.52 451.78 178.127 447.685 178.127Z" fill="black"/>
<path d="M448.95 178.774H439.702C435.607 178.774 432.287 182.167 432.287 186.353V207.469C432.287 211.655 435.607 215.049 439.702 215.049H448.95C453.045 215.049 456.364 211.655 456.364 207.469V186.353C456.364 182.167 453.045 178.774 448.95 178.774Z" fill="#F5F5F5"/>
<path d="M213.677 51.818H68.5752V132.135H213.677V51.818Z" fill="#1A2246"/>
<path d="M213.999 58.6194H137.328V127.926H213.999V58.6194Z" fill="#F5F5F5"/>
<path d="M137.328 114L192.452 72.2219L200.06 74.1675L137.328 120.478V114Z" fill="white"/>
<path d="M137.328 97.158L167.11 64.4505L181.049 67.6894L137.328 109.791V97.158Z" fill="white"/>
<path d="M315.359 46.6389H279.289C274.551 46.6389 270.711 50.5648 270.711 55.4077V113.008C270.711 117.851 274.551 121.776 279.289 121.776H315.359C320.097 121.776 323.937 117.851 323.937 113.008V55.4077C323.937 50.5648 320.097 46.6389 315.359 46.6389Z" fill="#F5F5F5"/>
<path d="M320.768 128.249H313.799V143.797H320.768V128.249Z" fill="#1A2246"/>
<path d="M345.479 57.3204V110.974C345.479 111.777 345.79 112.546 346.345 113.114C346.9 113.681 347.653 114 348.438 114H380.739C381.266 113.999 381.782 113.856 382.236 113.583C382.69 113.311 383.064 112.92 383.321 112.45C383.578 111.981 383.707 111.45 383.696 110.912C383.686 110.374 383.535 109.849 383.259 109.39L350.958 55.7365C350.62 55.1759 350.113 54.7433 349.512 54.5043C348.912 54.2652 348.252 54.2328 347.633 54.412C347.013 54.5911 346.467 54.972 346.078 55.4969C345.69 56.0218 345.479 56.662 345.479 57.3204Z" fill="#F5F5F5"/>
<path d="M287.819 46.6389L270.711 62.1816V70.2817L295.104 46.6389H287.819Z" fill="white"/>
<path d="M270.711 79.6643V89.0634L311.263 46.6389H303.339L270.711 79.6643Z" fill="white"/>
<path d="M356.201 64.4505L345.479 79.6643V85.501L359.713 70.2817L356.201 64.4505Z" fill="white"/>
<path d="M364.591 79.6643L345.479 96.3524V101.049L368.875 85.501L364.591 79.6643Z" fill="white"/>
<path d="M120.537 239.662C139.433 239.662 154.752 224.002 154.752 204.685C154.752 185.368 139.433 169.709 120.537 169.709C101.64 169.709 86.3213 185.368 86.3213 204.685C86.3213 224.002 101.64 239.662 120.537 239.662Z" fill="#1A2246"/>
<path d="M120.536 224.119C131.036 224.119 139.547 215.418 139.547 204.685C139.547 193.952 131.036 185.251 120.536 185.251C110.037 185.251 101.525 193.952 101.525 204.685C101.525 215.418 110.037 224.119 120.536 224.119Z" fill="white"/>
<path d="M120.22 209.547C123.021 209.547 125.292 207.225 125.292 204.362C125.292 201.499 123.021 199.177 120.22 199.177C117.419 199.177 115.148 201.499 115.148 204.362C115.148 207.225 117.419 209.547 120.22 209.547Z" fill="#1A2246"/>
<path d="M370.826 239.662C389.722 239.662 405.041 224.002 405.041 204.685C405.041 185.368 389.722 169.709 370.826 169.709C351.929 169.709 336.61 185.368 336.61 204.685C336.61 224.002 351.929 239.662 370.826 239.662Z" fill="#1A2246"/>
<path d="M370.826 224.119C381.326 224.119 389.837 215.418 389.837 204.685C389.837 193.952 381.326 185.251 370.826 185.251C360.327 185.251 351.815 193.952 351.815 204.685C351.815 215.418 360.327 224.119 370.826 224.119Z" fill="white"/>
<path d="M371.142 209.547C373.943 209.547 376.214 207.225 376.214 204.362C376.214 201.499 373.943 199.177 371.142 199.177C368.341 199.177 366.07 201.499 366.07 204.362C366.07 207.225 368.341 209.547 371.142 209.547Z" fill="#1A2246"/>
<path opacity="0.1" d="M260.256 151.245H22.6406V153.837H260.256V151.245Z" fill="black"/>
<path opacity="0.1" d="M439.89 153.837H331.223L332.488 151.892V151.245H439.89" fill="white"/>
<path opacity="0.1" d="M439.89 142.827H332.488V140.235H439.89" fill="white"/>
<path opacity="0.1" d="M439.89 131.811H332.488V129.224H439.161" fill="white"/>
<path opacity="0.1" d="M98.2287 160.315C96.7366 161.102 95.2853 161.967 93.8808 162.908H22.6406V160.315H98.2287Z" fill="black"/>
<path opacity="0.1" d="M260.256 160.315V162.908H147.199C145.794 161.967 144.343 161.102 142.851 160.315H260.256Z" fill="black"/>
<path opacity="0.1" d="M86.0695 169.385C85.251 170.222 84.4629 171.086 83.7052 171.978H22.6406V169.385H86.0695Z" fill="black"/>
<path opacity="0.1" d="M260.256 169.385V171.978H157.374C156.613 171.083 155.825 170.218 155.01 169.385H260.256Z" fill="black"/>
<path opacity="0.1" d="M79.0355 178.45C78.4994 179.3 78.0276 180.16 77.5665 181.043H22.6406V178.45H79.0355Z" fill="black"/>
<path opacity="0.1" d="M260.255 178.45V181.043H163.512C163.051 180.16 162.558 179.3 162.043 178.45H260.255Z" fill="black"/>
<path opacity="0.1" d="M74.7144 187.52C74.4088 188.375 74.1246 189.236 73.8673 190.113H60.6572V187.52H74.7144Z" fill="black"/>
<path opacity="0.1" d="M260.256 187.52V190.113H167.211C166.954 189.236 166.675 188.375 166.364 187.52H260.256Z" fill="black"/>
<path opacity="0.1" d="M72.393 196.591C72.2482 197.446 72.1356 198.306 72.0445 199.183H60.6572V196.591H72.393Z" fill="black"/>
<path opacity="0.1" d="M260.256 196.591V199.183H169.029C168.938 198.306 168.825 197.446 168.681 196.591H260.256Z" fill="black"/>
<path opacity="0.1" d="M207.662 111.753H203.861V112.142H207.662V111.753Z" fill="black"/>
<path opacity="0.1" d="M213.367 111.753H209.565V112.142H213.367V111.753Z" fill="black"/>
<path d="M117.347 108.777C117.327 108.692 117.3 108.61 117.267 108.53C117.487 106.206 118.13 98.5117 117.202 96.6703C116.479 95.2344 114.522 95.2453 112.211 95.7386C112.211 95.492 112.243 95.2453 112.243 94.9932V87.1287C112.207 84.7424 111.245 82.4686 109.569 80.807C107.893 79.1453 105.641 78.2316 103.306 78.2668H101.859C99.5242 78.2316 97.2716 79.1453 95.5958 80.807C93.92 82.4686 92.9581 84.7424 92.9214 87.1287V94.9932C92.9214 95.2234 92.9214 95.4536 92.9482 95.6838C90.4445 95.8592 88.0695 97.4595 88.6217 103.208V109.747H89.1256C89.2984 109.866 89.4774 109.976 89.6617 110.076L90.8412 121.185H94.6906L94.6423 121.733H109.707C110.941 121.826 112.168 121.892 113.128 121.886C113.748 121.918 114.37 121.866 114.978 121.733C116.629 121.185 116.629 117.896 116.629 117.896L117.165 109.714C117.263 109.582 117.33 109.429 117.361 109.267C117.393 109.104 117.388 108.937 117.347 108.777ZM95.6127 110.783H95.6663V110.887L95.6127 110.843V110.783ZM110.051 112.153L110.324 116.285H110.051V112.153ZM94.6906 115.737L95.6127 110.925H95.6717L95.2267 115.797L94.6906 115.737Z" fill="url(#paint0_linear)"/>
<path d="M104.008 78.4038H101.155C96.8207 78.4038 93.3066 81.996 93.3066 86.4273V95.7057C93.3066 100.137 96.8207 103.729 101.155 103.729H104.008C108.342 103.729 111.857 100.137 111.857 95.7057V86.4273C111.857 81.996 108.342 78.4038 104.008 78.4038Z" fill="#965D7B"/>
<path d="M98.2123 96.6924C98.2123 96.6924 88.1278 91.76 89.184 103.094V109.55H96.041L94.9687 121.415H109.739V109.55C109.739 109.55 115.54 110.098 116.596 109.002C116.596 109.002 117.668 98.7531 116.596 96.5992C115.524 94.4454 111.819 95.5908 108.125 96.665C104.431 97.7392 98.2123 96.6924 98.2123 96.6924Z" fill="#E2E8F0"/>
<path d="M90.1279 109.55L91.2913 120.883H102.898C102.898 120.883 107.648 117.65 105.011 116.57C102.373 115.49 100.791 116.022 100.791 116.022L94.9906 115.474L96.0896 109.55H90.1279Z" fill="#F7C4A7"/>
<path opacity="0.1" d="M116.361 109.002L115.825 117.639C115.825 117.639 115.825 120.872 114.216 121.415C112.608 121.957 104.191 120.867 104.191 120.867C104.191 120.867 101.028 120.867 101.553 118.17C102.078 115.474 104.716 114.937 105.772 114.937C106.828 114.937 108.41 116.033 108.41 116.033H110.018L109.606 109.55L116.361 109.002Z" fill="black"/>
<path d="M116.628 109.002L116.092 117.639C116.092 117.639 116.092 120.872 114.484 121.415C112.876 121.957 104.458 120.867 104.458 120.867C104.458 120.867 101.295 120.867 101.821 118.17C102.346 115.474 104.984 114.937 106.04 114.937C107.096 114.937 108.678 116.033 108.678 116.033H110.286L109.868 109.55L116.628 109.002Z" fill="#F7C4A7"/>
<path opacity="0.1" d="M89.3291 109.287C89.3291 109.287 91.4736 111.479 95.9234 110.722C96.4005 110.646 90.1279 108.338 89.3291 109.287Z" fill="black"/>
<path opacity="0.1" d="M109.208 111.451C109.208 111.451 117.421 111.314 116.762 108.607C116.103 105.9 109.739 107.39 109.739 107.39L109.208 111.451Z" fill="black"/>
<path d="M89.3291 109.149C89.3291 109.149 91.9775 111.857 97.4085 110.246C102.839 108.634 90.1279 108.201 89.3291 109.149Z" fill="#E2E8F0"/>
<path d="M109.074 111.32C109.074 111.32 117.288 111.183 116.628 108.475C115.969 105.768 109.605 107.259 109.605 107.259L109.074 111.32Z" fill="#E2E8F0"/>
<path d="M97.623 89.1949C97.623 89.1949 99.2314 95.1248 98.1592 96.747C97.0869 98.3693 101.483 101.718 103.386 101.679C104.518 101.679 108.522 98.7967 108.185 96.747C107.911 95.0645 105.547 90.2746 106.072 88.1207L97.623 89.1949Z" fill="#F7C4A7"/>
<path opacity="0.1" d="M102.635 96.621C104.41 96.6187 106.123 95.9608 107.46 94.7686C106.704 92.6531 105.68 89.8855 106.045 88.3893L97.6064 89.4854C97.6064 89.4854 98.5447 92.9984 98.4964 95.355C99.7208 96.1913 101.163 96.6324 102.635 96.621Z" fill="black"/>
<path d="M102.636 96.3525C106.716 96.3525 110.024 92.9713 110.024 88.8004C110.024 84.6295 106.716 81.2483 102.636 81.2483C98.5557 81.2483 95.248 84.6295 95.248 88.8004C95.248 92.9713 98.5557 96.3525 102.636 96.3525Z" fill="#F7C4A7"/>
<path opacity="0.1" d="M98.1379 92.1269C97.9556 91.4145 97.6715 90.7349 97.5267 90.0169C97.2907 88.6966 97.5087 87.3334 98.1439 86.1586C98.7791 84.9839 99.7923 84.07 101.012 83.5719C101.372 83.4163 101.765 83.3578 102.154 83.402C103.719 83.6596 103.95 86.1422 105.435 86.7286C105.729 86.8437 106.051 86.8657 106.351 86.9698C106.744 87.1488 107.092 87.4155 107.371 87.7503C107.649 88.0851 107.85 88.4795 107.96 88.9044C108.269 89.8173 108.385 90.7865 108.303 91.7488C108.222 92.664 107.965 93.5573 107.895 94.489C107.833 94.9443 107.862 95.4079 107.982 95.851C108.102 96.2941 108.31 96.7073 108.592 97.0649C108.909 97.3752 109.271 97.634 109.665 97.8321C109.938 97.9856 110.281 98.139 110.538 97.9637C110.654 97.8708 110.74 97.7449 110.785 97.602C111.171 96.6319 110.983 95.5413 110.892 94.5C110.788 92.9008 110.805 91.2958 110.941 89.6991C111.021 88.4057 111.101 87.063 110.64 85.8627C110.297 85.0634 109.834 84.3238 109.268 83.6705C108.786 83.0171 108.226 82.428 107.601 81.9168C106.409 81.0816 104.992 80.6485 103.547 80.6782C102.114 80.7065 100.687 80.8903 99.2906 81.2262C98.2666 81.44 97.1461 81.7085 96.5295 82.558C96.2296 83.025 96.0186 83.5456 95.9076 84.0925L95.4841 85.6709C94.9619 87.3413 94.6467 89.072 94.5459 90.8226C94.5459 92.0995 94.7389 94.8617 96.1543 95.4152C97.9932 96.1441 98.4435 93.3546 98.1379 92.1269Z" fill="black"/>
<path d="M98.1379 91.8586C97.9556 91.1462 97.6715 90.4666 97.5267 89.7486C97.2907 88.4283 97.5087 87.0651 98.1439 85.8903C98.7791 84.7156 99.7923 83.8016 101.012 83.3036C101.372 83.1479 101.765 83.0894 102.154 83.1337C103.719 83.3913 103.95 85.8739 105.435 86.4603C105.729 86.5754 106.051 86.5973 106.351 86.7015C106.744 86.8805 107.092 87.1472 107.371 87.482C107.649 87.8168 107.85 88.2112 107.96 88.6361C108.269 89.549 108.385 90.5182 108.303 91.4805C108.222 92.3957 107.965 93.289 107.895 94.2207C107.833 94.676 107.862 95.1395 107.982 95.5826C108.102 96.0258 108.31 96.4389 108.592 96.7965C108.909 97.1069 109.271 97.3656 109.665 97.5638C109.938 97.7173 110.281 97.8707 110.538 97.6953C110.654 97.6025 110.74 97.4765 110.785 97.3336C111.171 96.3636 110.983 95.2729 110.892 94.2317C110.788 92.6324 110.805 91.0275 110.941 89.4308C111.021 88.1374 111.101 86.7947 110.64 85.5944C110.297 84.7951 109.834 84.0555 109.268 83.4022C108.786 82.7488 108.226 82.1597 107.601 81.6485C106.409 80.8133 104.992 80.3802 103.547 80.4099C102.114 80.4382 100.687 80.6219 99.2906 80.9579C98.2666 81.1717 97.1461 81.4402 96.5295 82.2897C96.2296 82.7567 96.0186 83.2773 95.9076 83.8242L95.4841 85.4026C94.9619 87.073 94.6467 88.8037 94.5459 90.5543C94.5459 91.8312 94.7389 94.5934 96.1543 95.1469C97.9932 95.8484 98.4435 93.1082 98.1379 91.8586Z" fill="#965D7B"/>
<path d="M68.2646 77.4065C68.2646 77.4065 74.6016 91.009 91.393 77.4065H68.2646Z" fill="#2B50AA"/>
<path d="M91.0771 77.4065C91.0771 77.4065 97.4141 91.009 114.206 77.4065H91.0771Z" fill="#2B50AA"/>
<path d="M113.884 77.4065C113.884 77.4065 120.221 91.009 137.012 77.4065H113.884Z" fill="#2B50AA"/>
<path d="M136.695 77.4065C136.695 77.4065 143.032 91.009 159.824 77.4065H136.695Z" fill="#2B50AA"/>
<path d="M159.508 77.4065C159.508 77.4065 165.845 91.009 182.636 77.4065H159.508Z" fill="#2B50AA"/>
<path d="M182.319 77.4065C182.319 77.4065 188.656 91.009 205.448 77.4065H182.319Z" fill="#2B50AA"/>
<path d="M205.132 77.4065C205.132 77.4065 211.469 91.009 228.26 77.4065H205.132Z" fill="#2B50AA"/>
<path d="M227.938 77.4065C227.938 77.4065 234.275 87.1234 238.709 78.0532L227.938 77.4065Z" fill="#2B50AA"/>
<path opacity="0.1" d="M227.938 77.4065C227.938 77.4065 234.275 87.1234 238.709 78.0532L227.938 77.4065Z" fill="black"/>
<path d="M238.392 77.7297H45.7686L59.7078 46.6389H223.821L238.392 77.7297Z" fill="#E8C547"/>
<path d="M45.4521 77.4065C45.4521 77.4065 51.7891 91.009 68.5805 77.4065H45.4521Z" fill="#2B50AA"/>
<path d="M220.02 132.14H64.1416V143.797H220.02V132.14Z" fill="#EDEDF4"/>
<path d="M230.79 120.478H52.7383V136.026H230.79V120.478Z" fill="#EDEDF4"/>
<path opacity="0.1" d="M220.02 136.026H64.1416V137.971H220.02V136.026Z" fill="black"/>
<path d="M498.708 160.573C498.708 160.573 491.234 159.044 489.245 157.01C487.256 154.977 478.287 151.409 477.289 153.958C476.292 156.506 463.838 165.16 472.309 166.689C480.78 168.218 492.237 168.728 494.724 167.708C497.212 166.689 498.708 160.573 498.708 160.573Z" fill="#A8A8A8"/>
<path opacity="0.2" d="M472.304 165.741C480.774 167.27 492.231 167.78 494.719 166.76C496.617 165.982 497.936 162.261 498.472 160.524L498.718 160.578C498.718 160.578 497.223 166.689 494.735 167.703C492.247 168.717 480.796 168.213 472.32 166.684C469.875 166.245 469.178 165.209 469.441 163.894C469.634 164.755 470.486 165.412 472.304 165.741Z" fill="black"/>
<path d="M519.434 203.858C519.434 203.858 526.516 179.267 518.104 161.17C514.528 153.602 513.45 145.052 515.032 136.804C515.812 132.894 516.941 129.065 518.404 125.366" stroke="#535461" stroke-width="2" stroke-miterlimit="10"/>
<path d="M513.172 113.934C513.172 116.948 518.533 125.684 518.533 125.684C518.533 125.684 523.894 116.943 523.894 113.934C523.768 112.576 523.151 111.316 522.164 110.398C521.177 109.481 519.891 108.973 518.557 108.973C517.223 108.973 515.937 109.481 514.95 110.398C513.963 111.316 513.347 112.576 513.22 113.934H513.172Z" fill="#2B50AA"/>
<path d="M504.348 130.622C505.956 133.154 515.07 137.522 515.07 137.522C515.07 137.522 514.904 127.219 513.301 124.692C512.955 124.017 512.475 123.423 511.892 122.948C511.309 122.473 510.635 122.128 509.914 121.934C509.193 121.741 508.441 121.703 507.704 121.823C506.968 121.944 506.265 122.22 505.639 122.634C505.013 123.048 504.478 123.591 504.069 124.228C503.66 124.865 503.386 125.582 503.263 126.334C503.141 127.086 503.173 127.856 503.358 128.594C503.543 129.332 503.876 130.023 504.337 130.622H504.348Z" fill="#2B50AA"/>
<path d="M504.734 159.148C507.366 160.507 517.402 159.57 517.402 159.57C517.402 159.57 512.17 150.763 509.538 149.404C508.906 149.005 508.2 148.744 507.465 148.639C506.73 148.533 505.981 148.585 505.267 148.791C504.552 148.996 503.887 149.351 503.314 149.833C502.741 150.315 502.272 150.914 501.936 151.591C501.601 152.268 501.407 153.009 501.366 153.767C501.326 154.524 501.44 155.282 501.701 155.993C501.962 156.703 502.364 157.35 502.883 157.894C503.401 158.437 504.024 158.864 504.712 159.148H504.734Z" fill="#2B50AA"/>
<path d="M509.778 180.664C512.148 182.456 522.195 183.267 522.195 183.267C522.195 183.267 518.496 173.682 516.126 171.89C514.984 171.191 513.628 170.952 512.322 171.218C511.017 171.485 509.855 172.239 509.063 173.333C508.271 174.427 507.906 175.783 508.038 177.137C508.17 178.491 508.791 179.746 509.778 180.659V180.664Z" fill="#2B50AA"/>
<path d="M526.27 138.108C524.158 140.207 514.304 142.383 514.304 142.383C514.304 142.383 516.716 132.381 518.829 130.282C519.313 129.702 519.91 129.232 520.583 128.902C521.255 128.572 521.987 128.389 522.733 128.364C523.478 128.34 524.221 128.474 524.912 128.76C525.604 129.045 526.23 129.475 526.75 130.022C527.269 130.569 527.672 131.22 527.932 131.935C528.191 132.65 528.302 133.412 528.257 134.173C528.211 134.934 528.011 135.678 527.669 136.355C527.327 137.033 526.851 137.63 526.27 138.108Z" fill="#2B50AA"/>
<path d="M531.873 163.346C529.24 164.705 519.204 163.768 519.204 163.768C519.204 163.768 524.437 154.961 527.069 153.602C528.315 153.088 529.704 153.07 530.961 153.553C532.219 154.036 533.253 154.983 533.86 156.208C534.466 157.434 534.601 158.847 534.237 160.169C533.873 161.49 533.037 162.624 531.894 163.346H531.873Z" fill="#2B50AA"/>
<path d="M534.011 188.638C531.642 190.43 521.595 191.242 521.595 191.242C521.595 191.242 525.294 181.656 527.664 179.864C528.806 179.165 530.162 178.926 531.467 179.193C532.773 179.459 533.934 180.213 534.726 181.307C535.518 182.401 535.884 183.757 535.751 185.111C535.619 186.465 534.999 187.72 534.011 188.633V188.638Z" fill="#2B50AA"/>
<path d="M534.848 201.468C534.848 201.468 521.9 198.821 518.448 195.292C514.995 191.762 499.458 185.586 497.732 189.997C496.006 194.409 474.427 209.409 489.1 212.056C503.774 214.704 523.627 215.586 527.937 213.821C532.247 212.057 534.848 201.468 534.848 201.468Z" fill="#A8A8A8"/>
<path opacity="0.2" d="M489.1 210.39C503.774 213.037 523.626 213.92 527.937 212.155C531.223 210.812 533.507 204.356 534.408 201.348L534.842 201.441C534.842 201.441 532.253 212.029 527.937 213.794C523.621 215.559 503.768 214.676 489.1 212.029C484.865 211.267 483.653 209.47 484.109 207.201C484.452 208.708 485.948 209.842 489.1 210.39Z" fill="black"/>
<path d="M0.41314 156.912C0.41314 156.912 0.118271 159.871 1.88212 161.356C1.88212 161.356 7.34522 168.711 10.0634 172.866C9.90789 173.994 9.80067 174.68 9.80067 174.68V174.833H9.87036L9.80067 175.293H9.87573C8.32633 180.966 7.73123 189.236 7.73123 189.236V189.554C7.73123 189.729 7.73123 189.828 7.73123 189.828C7.73123 189.828 8.36385 199.287 8.3853 206.62C8.3853 210.188 8.20838 213.158 7.73123 214.117C7.12541 215.334 6.92168 221.308 6.92705 228.087C6.92705 237.919 7.37739 249.718 7.73123 251.143C7.80527 251.407 7.95014 251.644 8.14941 251.828C7.61328 254.021 6.58929 257.095 5.08814 257.66C4.57028 257.855 4.11843 258.199 3.78662 258.65C3.4548 259.101 3.25707 259.64 3.21707 260.203C3.21707 260.203 3.21707 260.203 3.21707 260.235C3.21707 260.268 3.21707 260.356 3.21707 260.422V260.466C3.21707 260.52 3.21707 260.575 3.21707 260.63V260.685C3.21707 260.74 3.21707 260.789 3.25459 260.844V260.899C3.25459 260.948 3.28676 261.003 3.30821 261.052V261.101C3.30821 261.156 3.35646 261.206 3.38327 261.255V261.293C3.45815 261.423 3.54816 261.542 3.65133 261.649L3.79608 261.781L3.85505 261.825L3.98908 261.918L4.0695 261.967L4.2089 262.044L4.3054 262.088L4.45551 262.148L4.56274 262.187L4.72893 262.236L4.84688 262.269L5.03452 262.307H5.15784H5.38301H5.49559H5.86016C9.67736 262.307 11.7307 261.419 12.9048 259.644L15.253 259.052V258.986V258.915V258.865V258.816V258.745V258.652V258.536V258.487V258.372L15.3067 258.087V258.071L15.3335 257.912C15.3603 257.742 15.3924 257.561 15.4246 257.364V257.331C15.4568 257.134 15.4836 256.925 15.5157 256.706C15.5479 256.487 15.5747 256.262 15.6015 256.026V255.999C15.6015 255.769 15.6498 255.533 15.6712 255.292V255.254V255.018V254.991C15.6712 254.837 15.6819 254.684 15.7034 254.53V254.497C15.7034 254.424 15.7034 254.351 15.7034 254.278V254.207C15.7034 254.064 15.7034 253.922 15.7034 253.779H15.9339L17.9873 220.606L25.3215 191.011L28.8384 215.854C28.8384 216.671 28.8384 218.326 28.8384 220.431C28.8384 227.506 28.9725 240.544 30.034 242.259C30.4897 242.999 30.6666 244.402 30.6827 245.986C30.6188 248.409 30.4021 250.826 30.034 253.22H30.1198C30.0662 253.599 30.034 253.818 30.034 253.818H30.302C30.109 255.758 30.0554 257.862 30.0393 258.865V259.002C30.0393 259.287 30.0393 259.457 30.0393 259.457C30.0393 259.457 35.0307 260.049 35.9099 260.049C40.8315 260.049 47.0613 262.417 49.1146 260.937L49.2916 260.794L49.3291 260.762L49.4363 260.657L49.4631 260.625L49.5435 260.52V260.493C49.5658 260.458 49.5856 260.421 49.6025 260.383C49.6166 260.346 49.6274 260.308 49.6347 260.268C49.6387 260.228 49.6387 260.188 49.6347 260.148C49.6388 260.106 49.6388 260.064 49.6347 260.022C49.3505 258.975 46.4447 258.06 44.4075 257.144C42.649 256.355 41.1532 253.336 40.349 251.406C40.4855 251.247 40.5833 251.056 40.6345 250.85C40.6857 250.645 40.6889 250.43 40.6439 250.223C40.7004 249.964 40.6836 249.694 40.5956 249.444C39.5234 246.156 39.1803 218.425 39.132 214.155L41.7697 194.941C42.0307 193.794 42.1318 192.615 42.07 191.439C42.1075 187.054 41.239 179.541 40.7029 175.403H41.4749L41.3784 174.811H41.4749L40.3008 167.686V158.397L41.7697 142.104L43.5282 143.287C43.6623 143.287 43.9142 143.09 44.2413 142.739C47.9941 144.422 52.8192 146.576 55.5588 147.705C60.5502 149.776 60.8397 147.705 60.8397 147.705L70.5221 128.452C70.5221 128.452 87.544 121.327 81.9683 118.378C76.3926 115.43 68.4687 121.338 67.2946 124.303C66.1205 127.268 59.3707 136.744 57.9017 138.519C56.4327 140.295 55.5535 139.111 54.0845 137.631C52.84 136.515 51.5313 135.475 50.1654 134.519L50.2727 134.371C49.6778 134.096 49.1504 133.69 48.7286 133.181C46.4018 130.501 41.3945 125.114 38.5423 124.895C34.9878 124.621 30.42 121.009 29.8088 120.51C29.7402 119.638 29.751 118.761 29.841 117.891H29.8678C29.8678 117.792 29.8678 117.688 29.9 117.589C31.9204 117.159 33.7351 116.032 35.0408 114.399C36.3464 112.765 37.0639 110.722 37.0733 108.612C37.0733 108.382 37.0733 108.152 37.0465 107.922C37.0988 107.939 37.155 107.939 37.2073 107.922C37.5826 107.812 37.7863 104.173 37.7863 103.674C37.8069 103.335 37.8811 103.002 38.0061 102.688C38.1295 102.414 38.3332 102.178 38.4511 101.899C38.5451 101.657 38.5801 101.395 38.553 101.137C38.548 100.55 38.4045 99.9726 38.1348 99.4543C37.3143 97.3607 36.2601 95.3709 34.9931 93.5244C34.8143 93.2451 34.569 93.0169 34.2801 92.8613C33.9496 92.7538 33.6015 92.7147 33.2561 92.7462C31.6477 92.7462 30.1466 91.957 28.6186 91.4364C27.0907 90.9157 25.2839 90.6746 23.9651 91.6063C22.6462 92.538 22.1476 94.3849 20.7483 95.1247C20.3623 95.322 19.9334 95.4262 19.5528 95.6399C19.1495 96.0115 18.8137 96.4531 18.5609 96.9443C17.7441 97.8675 17.1056 98.9405 16.6791 100.107C16.4734 100.909 16.3867 101.738 16.4218 102.567C16.4218 102.841 16.4218 103.115 16.4218 103.395C16.4218 105.039 16.5934 106.924 17.9069 107.894C18.2056 108.114 18.4634 108.387 18.6682 108.7C18.9088 109.1 19.0316 109.562 19.022 110.032C19.0863 110.947 19.4402 111.862 19.5045 112.772C19.4972 113.121 19.5864 113.465 19.7619 113.764C19.8093 113.836 19.8701 113.897 19.9408 113.945C20.0115 113.992 20.0907 114.025 20.1739 114.042C20.2571 114.058 20.3426 114.057 20.4255 114.04C20.5085 114.022 20.5872 113.988 20.6572 113.939L20.7108 113.709C20.8073 113.852 20.9038 113.994 21.0057 114.131C20.6679 116.093 20.1371 118.214 19.2901 119.612H19.0971C17.7003 119.623 16.3416 120.079 15.2102 120.916C11.913 123.311 5.12567 125.24 5.12567 125.24C4.61947 125.736 4.29255 126.393 4.19817 127.103C2.94001 130.043 1.92846 133.086 1.17443 136.201C0.611505 138.426 0.257663 140.289 0.311275 140.964V141.084H0.354166L0.305913 141.347L1.34599 141.605C0.536447 146.038 -0.621579 153.985 0.41314 156.912ZM6.84663 155.432C7.61258 153.473 8.28003 151.476 8.84637 149.447C9.49508 151.453 10.1277 153.037 10.6638 153.656C11.1999 154.276 11.3769 155.849 11.393 157.975C11.409 160.101 11.2 162.628 10.9641 165.067C9.34387 161.975 7.97397 158.752 6.86807 155.432H6.84663Z" fill="url(#paint1_linear)"/>
<path d="M40.0749 248.496C40.0749 248.496 42.0747 254.629 44.6427 255.796C47.2107 256.964 51.2102 258.131 49.2105 259.589C47.2107 261.047 41.1686 258.712 36.3435 258.712C35.4857 258.712 30.6338 258.125 30.6338 258.125C30.6338 258.125 30.6338 250.245 31.7757 248.809C32.9177 247.373 40.0749 248.496 40.0749 248.496Z" fill="#59495D"/>
<path d="M9.52134 248.496C9.52134 248.496 8.3794 255.501 6.09551 256.377C3.81163 257.254 3.23797 261.047 6.95331 261.047C10.6686 261.047 12.663 260.17 13.805 258.422L16.0889 257.835C16.0889 257.835 17.515 251.122 16.0889 249.368L9.52134 248.496Z" fill="#59495D"/>
<path d="M40.0749 248.496C40.0749 248.496 42.0747 254.629 44.6427 255.796C47.2107 256.964 51.2102 258.131 49.2105 259.589C47.2107 261.047 41.1686 258.712 36.3435 258.712C35.4857 258.712 30.6338 258.125 30.6338 258.125C30.6338 258.125 30.6338 250.245 31.7757 248.809C32.9177 247.373 40.0749 248.496 40.0749 248.496Z" fill="#59495D"/>
<path d="M9.52134 248.496C9.52134 248.496 8.3794 255.501 6.09551 256.377C3.81163 257.254 3.23797 261.047 6.95331 261.047C10.6686 261.047 12.663 260.17 13.805 258.422L16.0889 257.835C16.0889 257.835 17.515 251.122 16.0889 249.368L9.52134 248.496Z" fill="#59495D"/>
<path d="M47.2167 132.896C47.2167 132.896 52.6423 136.689 54.0684 138.152C55.4945 139.616 56.3523 140.777 57.7784 139.029C59.2045 137.281 65.772 127.937 66.8925 125.016C68.013 122.094 75.7439 116.247 81.1695 119.179C86.595 122.111 70.0342 129.104 70.0342 129.104L60.6359 148.077C60.6359 148.077 60.3518 150.122 55.4945 148.077C50.6372 146.033 39.2178 140.788 39.2178 140.788L47.2167 132.896Z" fill="#F0B9BB"/>
<path opacity="0.1" d="M40.6489 172.893C40.6489 172.893 43.2169 190.979 42.0749 194.497L39.5069 213.471C39.5069 213.471 39.7911 245.29 40.933 248.792C42.0749 252.294 30.6501 252.59 30.6501 252.59C30.6501 252.59 32.0762 243.542 30.6501 241.207C29.2241 238.873 29.5082 215.224 29.5082 215.224L26.0663 190.699L18.9251 219.888L16.9522 252.59C16.9522 252.59 9.24272 252.3 8.66907 249.965C8.09542 247.63 7.24298 216.978 8.66907 214.057C10.0952 211.136 8.66907 189.537 8.66907 189.537C8.66907 189.537 9.81101 172.898 13.2368 170.854C16.6627 168.81 40.6489 172.893 40.6489 172.893Z" fill="black"/>
<path d="M40.6489 172.307C40.6489 172.307 43.2169 190.392 42.0749 193.911L39.5069 212.884C39.5069 212.884 39.7911 244.704 40.933 248.206C42.0749 251.708 30.6501 251.998 30.6501 251.998C30.6501 251.998 32.0762 242.95 30.6501 240.616C29.2241 238.281 29.5082 214.632 29.5082 214.632L26.0663 190.113L18.9251 219.302L16.9522 251.998C16.9522 251.998 9.24272 251.708 8.66907 249.373C8.09542 247.039 7.24298 216.386 8.66907 213.465C10.0952 210.544 8.66907 188.945 8.66907 188.945C8.66907 188.945 9.81101 172.307 13.2368 170.262C16.6627 168.218 40.6489 172.307 40.6489 172.307Z" fill="#524D64"/>
<path d="M22.0828 110.13C22.0828 110.13 21.5091 124.144 16.6572 121.513L20.9462 134.667L30.6554 134.08L36.3651 126.199L32.0762 123.574C32.0762 123.574 28.9345 124.741 31.2184 113.939L22.0828 110.13Z" fill="#F0B9BB"/>
<path opacity="0.1" d="M30.3552 121.804C30.3552 121.804 35.2071 125.892 38.9332 126.188C41.7157 126.408 46.5891 131.718 48.8515 134.36C49.2604 134.86 49.7732 135.261 50.3526 135.533C50.3526 135.533 44.6429 143.704 43.7851 143.704L42.0695 142.537L40.6434 158.594V168.229L41.7854 175.233C41.7854 175.233 23.7931 175.524 22.0828 174.066C20.3726 172.608 10.658 175.233 10.658 175.233C10.658 175.233 13.5156 156.26 11.5158 153.925C9.51609 151.59 6.09026 135.242 6.09026 135.242C6.09026 135.242 3.80637 128.529 6.09026 126.473C6.09026 126.473 12.6899 124.577 15.9013 122.215C16.9977 121.391 18.3201 120.94 19.681 120.927H19.8901C19.8901 120.927 20.0831 125.311 24.3667 126.183C28.6504 127.054 31.3631 125.443 30.3552 121.804Z" fill="black"/>
<path d="M30.3552 121.223C30.3552 121.223 35.2071 125.311 38.9332 125.607C41.7157 125.826 46.5891 131.137 48.8515 133.779C49.2604 134.279 49.7732 134.679 50.3526 134.952C50.3526 134.952 44.6429 143.123 43.7851 143.123L42.0695 141.956L40.6434 158.013V167.643L41.7854 174.647C41.7854 174.647 23.7931 174.937 22.0828 173.479C20.3726 172.022 10.658 174.647 10.658 174.647C10.658 174.647 13.5156 155.673 11.5158 153.339C9.51609 151.004 6.09026 134.656 6.09026 134.656C6.09026 134.656 3.80637 127.942 6.09026 125.887C6.09026 125.887 12.6899 123.991 15.9013 121.628C16.9977 120.804 18.3201 120.354 19.681 120.341H19.8901C19.8901 120.341 20.0831 124.725 24.3667 125.596C28.6504 126.468 31.3631 124.895 30.3552 121.223Z" fill="#E2E8F0"/>
<path d="M10.9473 142.821C10.9473 142.821 2.36935 141.654 1.52227 141.654C0.675196 141.654 4.37981 127.35 6.37419 125.892C8.36857 124.434 10.942 131.148 10.942 131.148L10.9473 142.821Z" fill="#E2E8F0"/>
<g opacity="0.1">
<path opacity="0.1" d="M31.3844 122.155C31.7329 124.763 29.9154 126.106 26.9453 125.964C29.6688 125.81 31.1485 124.21 30.3658 121.36C30.3551 121.365 30.7518 121.689 31.3844 122.155Z" fill="black"/>
<path opacity="0.1" d="M42.933 142.093L44.2358 142.98C44.1164 143.115 43.962 143.212 43.7908 143.26L42.8848 142.641L42.933 142.093Z" fill="black"/>
<path opacity="0.1" d="M6.0957 134.798C6.0957 134.798 10.3847 151.146 12.3791 153.481C14.2501 155.673 11.8698 172.411 11.5588 174.565L10.6688 174.795C10.6688 174.795 13.5264 155.821 11.5266 153.487C9.52689 151.152 6.0957 134.798 6.0957 134.798Z" fill="black"/>
<path opacity="0.1" d="M22.9407 173.622C24.1362 174.641 33.2235 174.806 38.633 174.811C33.3897 174.811 23.3428 174.691 22.0882 173.622C21.587 173.311 21.0065 173.16 20.4209 173.189C21.5789 173.123 22.5118 173.255 22.9407 173.622Z" fill="black"/>
</g>
<path d="M2.95441 139.029C2.95441 139.029 0.0968672 153.043 1.52832 157.115C1.52832 157.115 1.24417 160.036 2.95441 161.499C2.95441 161.499 12.3795 174.345 12.3795 175.513C12.3795 176.68 15.237 182.226 20.0889 177.557C20.0889 177.557 22.3728 174.345 17.2314 171.72C12.09 169.095 7.80633 155.662 7.80633 155.662C7.80633 155.662 12.0953 144.86 10.3744 141.358C8.6534 137.856 2.95441 139.029 2.95441 139.029Z" fill="#F0B9BB"/>
<path opacity="0.1" d="M11.9449 144.427L1.37793 141.802L2.24109 136.985L6.8035 136.256L12.8027 138.295L11.9449 144.427Z" fill="black"/>
<path d="M11.9449 144.137L1.37793 141.506L2.24109 136.689L6.8035 135.96L12.8027 138.004L11.9449 144.137Z" fill="#E2E8F0"/>
<path opacity="0.1" d="M22.083 110.421L31.1971 114.213C30.8736 115.689 30.6301 117.182 30.468 118.686C28.8136 119.044 27.0933 118.911 25.5106 118.302C23.9278 117.693 22.5486 116.634 21.5361 115.249C21.8086 113.652 21.9911 112.04 22.083 110.421Z" fill="black"/>
<path d="M28.6502 118.592C33.5387 118.592 37.5016 114.541 37.5016 109.544C37.5016 104.547 33.5387 100.496 28.6502 100.496C23.7617 100.496 19.7988 104.547 19.7988 109.544C19.7988 114.541 23.7617 118.592 28.6502 118.592Z" fill="#F0B9BB"/>
<path opacity="0.1" d="M38.1991 104.688C38.2177 104.356 38.2883 104.028 38.4082 103.718C38.5315 103.45 38.7298 103.214 38.8371 102.94C39.1105 102.26 38.8371 101.499 38.5315 100.824C37.7328 98.7639 36.7056 96.8037 35.4702 94.9823C35.2974 94.7085 35.0594 94.4841 34.7786 94.3301C34.4571 94.2236 34.118 94.1845 33.7814 94.215C32.2106 94.215 30.7577 93.4368 29.2726 92.9271C27.7875 92.4174 26.0559 92.1762 24.7424 93.0915C23.4289 94.0067 22.9785 95.8317 21.59 96.5606C21.2147 96.7579 20.7965 96.8566 20.4266 97.0703C19.932 97.4006 19.5057 97.827 19.172 98.3253C18.3971 99.1071 17.8072 100.06 17.4476 101.11C17.088 102.161 16.9682 103.282 17.0972 104.387C17.0972 106.031 17.2634 107.861 18.5394 108.82C18.8303 109.038 19.0809 109.307 19.2793 109.615C19.5127 110.01 19.6317 110.464 19.6224 110.925C19.6867 111.829 20.0298 112.728 20.0942 113.632C20.0867 113.977 20.174 114.317 20.3461 114.613C20.3916 114.684 20.4504 114.745 20.5192 114.793C20.5881 114.84 20.6655 114.873 20.7469 114.889C20.8284 114.906 20.9122 114.905 20.9934 114.888C21.0747 114.871 21.1517 114.837 21.22 114.789L22.1154 111.024C22.2369 110.271 22.5207 109.556 22.9463 108.93C23.6111 108.097 24.796 107.681 25.1498 106.661C25.4018 105.932 25.182 104.99 25.7396 104.469C25.9793 104.281 26.2612 104.156 26.5598 104.107C29.1272 103.482 31.7924 103.398 34.3926 103.861C34.6723 103.894 34.9433 103.982 35.1914 104.118C35.6153 104.461 35.9138 104.94 36.0385 105.477C36.2261 106.025 36.9177 109.089 37.6469 108.881C38.0007 108.76 38.1991 105.165 38.1991 104.688Z" fill="black"/>
<path d="M38.1988 104.392C38.2174 104.06 38.288 103.732 38.4079 103.422C38.5312 103.154 38.7295 102.918 38.8368 102.644C39.1102 101.964 38.8368 101.203 38.5312 100.529C37.7325 98.468 36.7053 96.5078 35.4699 94.6864C35.2971 94.4126 35.0591 94.1882 34.7783 94.0342C34.4568 93.9277 34.1177 93.8886 33.7811 93.9191C32.2103 93.9191 30.7574 93.1409 29.2723 92.6312C27.7872 92.1215 26.0556 91.8803 24.7421 92.7956C23.4285 93.7108 22.9782 95.5358 21.5896 96.2647C21.2144 96.462 20.7962 96.5607 20.4263 96.7744C19.9317 97.1047 19.5054 97.5311 19.1717 98.0295C18.3998 98.8089 17.8117 99.7579 17.4522 100.804C17.0927 101.851 16.9712 102.967 17.0969 104.069C17.0969 105.713 17.2631 107.544 18.5391 108.503C18.83 108.72 19.0806 108.99 19.2789 109.297C19.5232 109.702 19.6462 110.17 19.6328 110.646C19.6971 111.55 20.0402 112.449 20.1046 113.353C20.0971 113.698 20.1844 114.037 20.3566 114.334C20.4041 114.404 20.465 114.464 20.5357 114.51C20.6064 114.556 20.6855 114.587 20.7681 114.6C20.8507 114.614 20.9351 114.611 21.0164 114.59C21.0977 114.57 21.1742 114.533 21.2412 114.482L22.1365 110.717C22.258 109.965 22.5419 109.249 22.9675 108.623C23.6323 107.79 24.8171 107.374 25.171 106.354C25.4229 105.625 25.2031 104.683 25.7607 104.162C26.0004 103.974 26.2824 103.849 26.581 103.8C29.1484 103.175 31.8135 103.091 34.4137 103.554C34.6935 103.588 34.9645 103.675 35.2126 103.811C35.6365 104.154 35.9349 104.633 36.0596 105.171C36.2473 105.719 36.9389 108.782 37.668 108.574C38.0004 108.453 38.1988 104.886 38.1988 104.392Z" fill="#575168"/>
<path d="M22.7963 111.15C23.27 111.15 23.6541 110.234 23.6541 109.106C23.6541 107.977 23.27 107.061 22.7963 107.061C22.3225 107.061 21.9385 107.977 21.9385 109.106C21.9385 110.234 22.3225 111.15 22.7963 111.15Z" fill="#F0B9BB"/>
<path opacity="0.1" d="M36.365 258.131C41.1526 258.131 47.2161 260.466 49.232 259.008C49.4247 258.881 49.5847 258.708 49.6984 258.504C49.8646 258.849 49.752 259.211 49.232 259.6C47.2322 261.058 41.1901 258.723 36.365 258.723C35.5072 258.723 30.6553 258.137 30.6553 258.137C30.6553 258.137 30.6553 257.917 30.6553 257.556C30.7679 257.561 35.5179 258.131 36.365 258.131Z" fill="black"/>
<path opacity="0.1" d="M6.94864 260.466C10.6586 260.466 12.6584 259.589 13.8003 257.84L16.0842 257.254C16.4354 255.541 16.647 253.802 16.7168 252.053C16.691 253.999 16.4791 255.937 16.0842 257.84L13.8003 258.427C12.6584 260.181 10.6586 261.052 6.94864 261.052C4.8792 261.052 4.13935 259.868 4.26802 258.673C4.4235 259.638 5.22232 260.466 6.94864 260.466Z" fill="black"/>
<path d="M13.1717 181.345L22.8896 177.909L21.5823 174.045L11.8643 177.481L13.1717 181.345Z" fill="#524D64"/>
<path opacity="0.1" d="M13.1717 181.345L22.8896 177.909L21.5823 174.045L11.8643 177.481L13.1717 181.345Z" fill="black"/>
<path fill-rule="evenodd" clip-rule="evenodd" d="M276.667 160.866C277.41 160.064 278.241 159.358 279.136 158.748H297.522C297.648 159.442 297.758 160.149 297.848 160.866H276.667ZM275.253 157.032C275.165 157.144 275.098 157.277 275.061 157.422C274.89 157.649 274.645 157.792 274.373 157.792C273.857 157.792 273.44 157.281 273.44 156.651C273.44 156.02 273.857 155.509 274.373 155.509C274.888 155.509 275.306 156.02 275.306 156.651C275.306 156.784 275.287 156.912 275.253 157.032ZM275.075 162.955H276.172L276.069 181.748C276.059 181.854 276.049 181.958 276.04 182.061C271.916 173.714 272.37 167.331 275.075 162.955ZM298.053 162.955C298.287 166.324 298.056 169.878 297.064 173.427C293.79 185.132 282.763 184.589 278.061 183.782C278.27 178.892 279.022 175.191 280.023 172.392C282.901 164.34 287.837 163.74 287.837 163.74C282.551 164.35 279.656 168.177 278.037 172.451L278.121 162.955H298.053ZM297.088 156.659C295.16 148.409 291.25 142.411 291.25 142.411C291.25 142.411 292.758 146.923 289.071 151.708H291.681C292.218 151.708 292.653 152.176 292.653 152.753V156.659H297.088ZM287.115 153.797C286.692 154.175 286.231 154.551 285.728 154.923C284.926 155.515 284.018 156.097 282.989 156.659H285.728H290.709V153.797H287.115ZM277.306 156.325C277.674 156.325 277.972 155.96 277.972 155.509C277.972 155.059 277.674 154.694 277.306 154.694C276.938 154.694 276.639 155.059 276.639 155.509C276.639 155.96 276.938 156.325 277.306 156.325ZM278.373 147.765C278.373 148.89 277.627 149.803 276.706 149.803C275.786 149.803 275.04 148.89 275.04 147.765C275.04 146.639 275.786 145.727 276.706 145.727C277.627 145.727 278.373 146.639 278.373 147.765ZM281.839 153.064C282.133 153.064 282.372 152.772 282.372 152.412C282.372 152.051 282.133 151.759 281.839 151.759C281.544 151.759 281.305 152.051 281.305 152.412C281.305 152.772 281.544 153.064 281.839 153.064ZM287.837 148.743C287.837 149.778 287.151 150.618 286.304 150.618C285.457 150.618 284.771 149.778 284.771 148.743C284.771 147.707 285.457 146.868 286.304 146.868C287.151 146.868 287.837 147.707 287.837 148.743Z" fill="#F5FFF0"/>
</g>
<defs>
<linearGradient id="paint0_linear" x1="103.113" y1="121.881" x2="103.113" y2="78.2723" gradientUnits="userSpaceOnUse">
<stop stop-color="#808080" stop-opacity="0.25"/>
<stop offset="0.54" stop-color="#808080" stop-opacity="0.12"/>
<stop offset="1" stop-color="#808080" stop-opacity="0.1"/>
</linearGradient>
<linearGradient id="paint1_linear" x1="60100.5" y1="116224" x2="60100.5" y2="62655.8" gradientUnits="userSpaceOnUse">
<stop stop-color="#808080" stop-opacity="0.25"/>
<stop offset="0.54" stop-color="#808080" stop-opacity="0.12"/>
<stop offset="1" stop-color="#808080" stop-opacity="0.1"/>
</linearGradient>
<clipPath id="clip0">
<rect width="540" height="275" fill="white"/>
</clipPath>
</defs>
</svg>
