<svg width="478" height="310" viewBox="0 0 478 310" fill="none" xmlns="http://www.w3.org/2000/svg">
<path d="M410.957 172.669H421.415V191.001H410.957V172.669Z" fill="#392EE7"/>
<path d="M404.76 186.52H428.774V200.778H404.76V186.52Z" fill="#392EE7"/>
<path d="M409.408 182.039H419.866V200.371H409.408V182.039Z" fill="#392EE7"/>
<path d="M437.463 198.685L459.146 146.388L473.613 152.121L455.041 198.566L437.463 198.685Z" fill="#645959"/>
<path d="M369.214 172.017H392.546V199.718H369.214V172.017Z" fill="#E2C114"/>
<path d="M376.214 160.703H385.935V188.403H376.214V160.703Z" fill="#E2C114"/>
<rect x="382.747" y="139.541" width="16.0097" height="41.1595" fill="#2EE78E"/>
<rect x="394.754" y="163.634" width="47.0284" height="37.144" fill="#2EE78E"/>
<path d="M426.773 139.541H441.782V180.7H426.773V139.541Z" fill="#2EE78E"/>
<path d="M357.773 218.716H363.064L367.332 276.193C367.573 279.293 369.02 282.192 371.385 284.31C373.749 286.429 376.858 287.611 380.089 287.621H447.996C451.227 287.611 454.335 286.429 456.699 284.31C459.064 282.192 460.511 279.293 460.752 276.193L465.02 218.716H470.311C470.99 218.716 471.64 218.457 472.12 217.995C472.6 217.534 472.869 216.908 472.869 216.255V206.411C472.867 204.454 472.058 202.578 470.619 201.194C469.181 199.809 467.23 199.031 465.196 199.029H460.063L477.83 154.654C477.95 154.353 478.008 154.031 478 153.708C477.991 153.385 477.917 153.067 477.781 152.771C477.644 152.476 477.449 152.209 477.205 151.987C476.962 151.764 476.675 151.589 476.362 151.473L459.494 145.222C458.861 144.988 458.157 145.005 457.537 145.27C456.917 145.534 456.432 146.025 456.188 146.634L444.734 175.242V142.428C444.734 141.775 444.465 141.149 443.985 140.688C443.506 140.226 442.855 139.967 442.177 139.967H426.831C426.152 139.967 425.502 140.226 425.022 140.688C424.542 141.149 424.273 141.775 424.273 142.428V162.115H401.254V142.428C401.254 141.775 400.984 141.149 400.504 140.688C400.025 140.226 399.374 139.967 398.696 139.967H383.35C382.671 139.967 382.021 140.226 381.541 140.688C381.061 141.149 380.792 141.775 380.792 142.428V159.654H375.676C374.998 159.654 374.348 159.914 373.868 160.375C373.388 160.837 373.119 161.462 373.119 162.115V170.528C370.84 171.487 368.901 173.064 367.538 175.066C366.176 177.069 365.448 179.409 365.446 181.802V199.029H362.888C360.854 199.031 358.903 199.809 357.465 201.194C356.026 202.578 355.217 204.454 355.215 206.411V216.255C355.215 216.908 355.484 217.534 355.964 217.995C356.444 218.457 357.094 218.716 357.773 218.716ZM455.651 275.843C455.506 277.703 454.638 279.442 453.219 280.713C451.799 281.984 449.934 282.693 447.996 282.699H380.089C378.15 282.693 376.285 281.984 374.866 280.713C373.447 279.442 372.579 277.703 372.435 275.843L368.193 218.716H459.891L455.651 275.843ZM460.042 150.7L472.137 155.182L454.582 199.029H440.692L460.042 150.7ZM385.907 144.889H396.138V164.576C396.138 165.229 396.408 165.855 396.887 166.316C397.367 166.778 398.017 167.037 398.696 167.037H426.831C427.509 167.037 428.159 166.778 428.639 166.316C429.119 165.855 429.388 165.229 429.388 164.576V144.889H439.619V188.016L435.21 199.029H431.946V191.646C431.944 189.689 431.135 187.812 429.696 186.428C428.258 185.044 426.307 184.265 424.273 184.263V174.42C424.273 173.767 424.003 173.141 423.524 172.68C423.044 172.218 422.393 171.959 421.715 171.959H411.484C410.806 171.959 410.155 172.218 409.676 172.68C409.196 173.141 408.927 173.767 408.927 174.42V184.263C406.892 184.265 404.942 185.044 403.503 186.428C402.065 187.812 401.256 189.689 401.254 191.646V199.029H396.138V181.802C396.135 179.409 395.408 177.069 394.046 175.066C392.683 173.064 390.744 171.487 388.465 170.528V162.115C388.465 161.462 388.196 160.837 387.716 160.375C387.236 159.914 386.586 159.654 385.907 159.654V144.889ZM421.715 189.185H424.273C424.951 189.186 425.601 189.445 426.081 189.907C426.56 190.368 426.83 190.993 426.831 191.646V199.029H406.369V191.646C406.37 190.993 406.639 190.368 407.119 189.907C407.598 189.445 408.249 189.186 408.927 189.185H411.484C412.163 189.185 412.813 188.926 413.293 188.464C413.773 188.003 414.042 187.377 414.042 186.724V176.881H419.157V186.724C419.157 187.377 419.427 188.003 419.907 188.464C420.386 188.926 421.037 189.185 421.715 189.185ZM391.023 184.263V189.185H370.561V184.263H391.023ZM378.234 164.576H383.35V169.498H378.234V164.576ZM378.234 174.42H383.35C384.936 174.422 386.482 174.896 387.777 175.777C389.072 176.658 390.052 177.903 390.583 179.341H371.001C371.531 177.903 372.511 176.658 373.806 175.777C375.101 174.896 376.648 174.422 378.234 174.42ZM370.561 194.107H391.023V199.029H370.561V194.107ZM360.33 206.411C360.331 205.759 360.601 205.133 361.08 204.672C361.56 204.211 362.21 203.951 362.888 203.95H465.196C465.874 203.951 466.524 204.211 467.004 204.672C467.483 205.133 467.753 205.759 467.754 206.411V213.794H360.33V206.411Z" fill="#F1FAEA"/>
<path d="M391.022 270.395H403.811C404.489 270.395 405.14 270.136 405.62 269.674C406.099 269.213 406.369 268.587 406.369 267.934C406.369 267.281 406.099 266.655 405.62 266.194C405.14 265.732 404.489 265.473 403.811 265.473H395.452L401.66 255.129L401.934 256.113C402.021 256.425 402.171 256.718 402.375 256.974C402.58 257.231 402.835 257.446 403.126 257.607C403.417 257.769 403.738 257.874 404.071 257.916C404.404 257.958 404.742 257.937 405.067 257.853C405.391 257.77 405.695 257.625 405.962 257.429C406.228 257.232 406.452 256.986 406.62 256.707C406.788 256.427 406.897 256.118 406.94 255.797C406.984 255.477 406.962 255.151 406.875 254.839L405.003 248.116C404.916 247.803 404.766 247.511 404.561 247.254C404.357 246.998 404.102 246.783 403.811 246.621C403.52 246.46 403.199 246.355 402.866 246.313C402.533 246.27 402.194 246.292 401.87 246.376L394.882 248.177C394.227 248.346 393.668 248.759 393.329 249.324C392.989 249.889 392.898 250.561 393.073 251.191C393.249 251.822 393.677 252.359 394.265 252.686C394.852 253.012 395.55 253.1 396.206 252.931L397.229 252.667L388.808 266.704C388.583 267.078 388.465 267.502 388.465 267.934C388.465 268.366 388.583 268.79 388.807 269.164C389.032 269.539 389.355 269.849 389.744 270.065C390.132 270.281 390.574 270.395 391.022 270.395Z" fill="#F1FAEA"/>
<path d="M406.369 241.346C406.956 241.672 407.654 241.761 408.309 241.592C408.965 241.423 409.523 241.011 409.862 240.445L414.042 233.48C415.285 235.552 417.225 238.785 420.249 243.825L419.226 243.561C418.901 243.478 418.563 243.456 418.23 243.498C417.897 243.541 417.576 243.646 417.285 243.807C416.994 243.969 416.739 244.184 416.535 244.44C416.33 244.697 416.18 244.989 416.093 245.302C416.006 245.614 415.984 245.939 416.028 246.26C416.072 246.58 416.181 246.889 416.349 247.169C416.517 247.449 416.74 247.694 417.007 247.891C417.273 248.088 417.577 248.232 417.902 248.316L424.89 250.117C425.214 250.201 425.553 250.223 425.886 250.181C426.219 250.139 426.541 250.034 426.832 249.872C427.123 249.711 427.378 249.496 427.582 249.239C427.786 248.982 427.936 248.69 428.023 248.377L429.895 241.653C429.982 241.341 430.004 241.016 429.961 240.695C429.917 240.375 429.808 240.066 429.64 239.786C429.472 239.506 429.248 239.261 428.982 239.064C428.715 238.867 428.411 238.723 428.087 238.639C427.762 238.556 427.424 238.534 427.091 238.576C426.758 238.619 426.437 238.724 426.146 238.885C425.855 239.047 425.6 239.262 425.396 239.518C425.191 239.775 425.041 240.067 424.954 240.38L424.68 241.364C421.286 235.709 416.303 227.406 416.259 227.329C416.034 226.954 415.711 226.643 415.322 226.427C414.933 226.211 414.491 226.097 414.042 226.097C413.593 226.097 413.152 226.211 412.763 226.427C412.374 226.643 412.051 226.954 411.827 227.328L405.433 237.984C405.093 238.55 405.001 239.221 405.177 239.852C405.353 240.482 405.781 241.02 406.369 241.346Z" fill="#F1FAEA"/>
<path d="M428.452 258.508L432.632 265.473H420.217L420.966 264.752C421.446 264.291 421.715 263.665 421.715 263.012C421.715 262.359 421.446 261.733 420.966 261.272C420.487 260.81 419.836 260.551 419.158 260.551C418.479 260.551 417.829 260.81 417.349 261.272L412.234 266.194C411.996 266.422 411.808 266.694 411.679 266.992C411.551 267.291 411.484 267.611 411.484 267.934C411.484 268.257 411.551 268.577 411.679 268.876C411.808 269.174 411.996 269.446 412.234 269.674L417.349 274.596C417.829 275.058 418.479 275.317 419.158 275.317C419.836 275.317 420.487 275.058 420.966 274.596C421.446 274.135 421.715 273.509 421.715 272.856C421.715 272.203 421.446 271.577 420.966 271.116L420.217 270.395H437.062C437.51 270.395 437.952 270.281 438.34 270.065C438.729 269.849 439.052 269.539 439.276 269.165C439.501 268.79 439.619 268.366 439.619 267.934C439.619 267.502 439.501 267.078 439.276 266.704L432.882 256.047C432.716 255.765 432.492 255.518 432.226 255.319C431.959 255.12 431.654 254.974 431.329 254.889C431.003 254.804 430.664 254.781 430.329 254.823C429.995 254.865 429.672 254.97 429.38 255.132C429.088 255.295 428.832 255.511 428.627 255.769C428.422 256.027 428.272 256.321 428.186 256.635C428.1 256.948 428.079 257.276 428.125 257.597C428.17 257.919 428.282 258.228 428.452 258.508Z" fill="#F1FAEA"/>
<path d="M363.982 288.298C363.952 288.17 361.04 275.369 366.987 264.736C372.933 254.105 385.626 249.416 385.754 249.369L386.334 249.16L386.471 249.743C386.501 249.87 389.412 262.672 383.466 273.304C377.52 283.936 364.827 288.625 364.699 288.671L364.119 288.881L363.982 288.298ZM385.538 250.582C382.996 251.637 372.961 256.252 367.939 265.231C362.916 274.212 364.432 284.832 364.915 287.458C367.456 286.406 377.487 281.799 382.514 272.809C387.536 263.829 386.022 253.21 385.538 250.582Z" fill="#3F3D56"/>
<path d="M378.922 269.574C368.237 275.773 364.121 288.085 364.121 288.085C364.121 288.085 377.331 290.347 388.017 284.149C398.702 277.95 402.818 265.638 402.818 265.638C402.818 265.638 389.608 263.376 378.922 269.574Z" fill="#D0CDE1"/>
<path d="M146.753 232.276C145.483 232.276 144.199 232.257 142.939 232.219L142.968 231.337C144.777 231.391 146.623 231.406 148.441 231.382L148.453 232.265C147.888 232.273 147.321 232.276 146.753 232.276ZM153.965 232.072L153.911 231.19C155.723 231.087 157.558 230.942 159.365 230.76L159.461 231.638C157.64 231.822 155.791 231.968 153.965 232.072ZM137.433 231.934C135.605 231.799 133.759 231.622 131.945 231.407L132.056 230.531C133.857 230.744 135.689 230.92 137.502 231.053L137.433 231.934ZM164.931 230.963L164.793 230.09C166.594 229.827 168.408 229.521 170.184 229.181L170.362 230.046C168.572 230.389 166.745 230.698 164.931 230.963ZM126.488 230.64C124.683 230.345 122.861 230.006 121.073 229.632L121.267 228.768C123.042 229.14 124.85 229.476 126.641 229.769L126.488 230.64ZM175.746 228.89L175.526 228.033C177.293 227.612 179.07 227.146 180.808 226.649L181.068 227.496C179.317 227.997 177.526 228.466 175.746 228.89ZM115.712 228.384C113.942 227.93 112.16 227.431 110.417 226.899L110.692 226.057C112.423 226.584 114.191 227.08 115.947 227.53L115.712 228.384ZM186.317 225.866L186.017 225.032C187.732 224.458 189.456 223.836 191.144 223.185L191.484 224.005C189.784 224.661 188.046 225.287 186.317 225.866ZM105.184 225.175C103.464 224.565 101.734 223.908 100.042 223.22L100.397 222.406C102.077 223.088 103.794 223.741 105.5 224.346L105.184 225.175ZM196.544 221.921L196.165 221.117C197.812 220.396 199.467 219.626 201.085 218.828L201.502 219.615C199.872 220.418 198.204 221.194 196.544 221.921ZM206.345 217.091L205.891 216.324C207.471 215.455 209.047 214.542 210.577 213.609L211.066 214.355C209.525 215.295 207.937 216.216 206.345 217.091ZM215.653 211.413L215.129 210.689C216.616 209.688 218.1 208.638 219.54 207.572L220.098 208.272C218.648 209.347 217.152 210.404 215.653 211.413ZM76.0413 210.169C74.5629 209.134 73.086 208.049 71.6513 206.945L72.2229 206.255C73.6466 207.351 75.1123 208.427 76.5794 209.454L76.0413 210.169ZM224.39 204.938L223.8 204.263C225.186 203.135 226.566 201.96 227.901 200.77L228.522 201.419C227.177 202.618 225.787 203.802 224.39 204.938ZM67.4193 203.532C66.0424 202.369 64.6744 201.16 63.3536 199.937L63.9878 199.3C65.2987 200.513 66.6562 201.714 68.0226 202.868L67.4193 203.532ZM232.485 197.72L231.833 197.1C233.11 195.851 234.374 194.559 235.589 193.26L236.27 193.851C235.046 195.16 233.772 196.462 232.485 197.72ZM59.4628 196.169C58.1995 194.888 56.9518 193.564 55.7545 192.234L56.4464 191.656C57.6346 192.976 58.8726 194.289 60.1265 195.56L59.4628 196.169ZM239.868 189.819L239.16 189.258C240.315 187.904 241.451 186.506 242.539 185.103L243.273 185.632C242.177 187.046 241.031 188.455 239.868 189.819ZM52.2364 188.142C51.1019 186.76 49.9849 185.333 48.9161 183.901L49.6595 183.385C50.7202 184.806 51.8287 186.223 52.9547 187.595L52.2364 188.142ZM246.476 181.299L245.719 180.803C246.74 179.353 247.741 177.86 248.692 176.366L249.473 176.828C248.514 178.334 247.505 179.838 246.476 181.299ZM45.8009 179.52C44.8028 178.044 43.8259 176.527 42.8972 175.007L43.6862 174.558C44.608 176.066 45.5774 177.573 46.5679 179.037L45.8009 179.52ZM252.254 172.229L251.453 171.802C252.332 170.267 253.186 168.692 253.993 167.118L254.814 167.51C254.002 169.095 253.14 170.683 252.254 172.229H252.254ZM257.146 162.681L256.307 162.327C257.037 160.719 257.738 159.073 258.39 157.435L259.245 157.751C258.588 159.403 257.881 161.061 257.146 162.681H257.146ZM35.5161 160.775C34.8139 159.151 34.1414 157.488 33.5175 155.834L34.3785 155.532C34.9975 157.174 35.6648 158.823 36.3614 160.436L35.5161 160.775ZM261.107 152.732L260.237 152.454C260.809 150.793 261.348 149.096 261.84 147.408L262.722 147.647C262.226 149.348 261.683 151.058 261.107 152.732ZM31.753 150.796C31.208 149.113 30.6959 147.394 30.2309 145.685L31.117 145.461C31.5783 147.156 32.0867 148.863 32.6274 150.533L31.753 150.796ZM264.092 142.496L263.2 142.296C263.61 140.594 263.985 138.856 264.315 137.131L265.216 137.29C264.884 139.029 264.506 140.781 264.092 142.496ZM28.9553 140.512C28.5734 138.787 28.2276 137.03 27.928 135.288L28.8314 135.143C29.1291 136.872 29.4722 138.616 29.8512 140.327L28.9553 140.512ZM266.089 132.041L265.181 131.921C265.427 130.191 265.635 128.427 265.799 126.678L266.712 126.757C266.546 128.52 266.336 130.298 266.089 132.041ZM27.1501 130.024C26.9341 128.276 26.7568 126.495 26.6228 124.732L27.5366 124.667C27.6692 126.418 27.8454 128.184 28.0599 129.92L27.1501 130.024ZM267.085 121.453L266.17 121.414C266.251 119.664 266.293 117.889 266.293 116.138H267.209C267.209 117.902 267.167 119.69 267.085 121.453ZM26.3453 119.421C26.314 118.338 26.2981 117.234 26.2979 116.138C26.2979 115.459 26.3039 114.78 26.316 114.103L27.232 114.119C27.2199 114.791 27.2139 115.464 27.2139 116.138C27.2141 117.225 27.23 118.322 27.2608 119.397L26.3453 119.421ZM27.4493 108.846L26.5351 108.791C26.6494 107.026 26.8073 105.244 27.0039 103.493L27.9145 103.588C27.7193 105.326 27.563 107.095 27.4494 108.846H27.4493ZM265.701 103.458C265.518 101.717 265.267 100.868 265.001 99.1344L265.907 99.0054C266.175 100.752 266.404 102.086 266.589 103.84L265.701 103.458ZM28.6277 98.3571L27.7224 98.2221C28.0031 96.4749 28.3291 94.714 28.6916 92.9875L29.5893 93.1626C29.2297 94.8759 28.9061 96.6235 28.6277 98.3571H28.6277ZM264.076 93.9343C263.727 92.2115 263.333 90.4772 262.905 88.7799L263.795 88.5712C264.226 90.2814 264.623 92.0291 264.975 93.7648L264.076 93.9343ZM30.7974 88.0164L29.9089 87.8016C30.3537 86.0911 30.8464 84.3663 31.3733 82.675L32.2503 82.929C31.7277 84.6074 31.2389 86.319 30.7974 88.0164ZM261.488 83.6828C260.977 82.0012 260.419 80.3097 259.829 78.6546L260.695 78.3674C261.289 80.0352 261.852 81.7401 262.367 83.4344L261.488 83.6828ZM33.9507 77.898L33.0865 77.6051C33.6953 75.9356 34.3525 74.2581 35.04 72.6191L35.8894 72.9503C35.207 74.5765 34.5547 76.2413 33.9507 77.898ZM257.93 73.7052C257.262 72.0799 256.547 70.4487 255.803 68.8568L256.639 68.4941C257.388 70.0983 258.109 71.742 258.782 73.3796L257.93 73.7052ZM38.062 68.0959L37.2296 67.7271C37.9947 66.1208 38.8089 64.5099 39.6498 62.9393L40.4638 63.3442C39.6292 64.903 38.8212 66.5015 38.062 68.0959ZM253.447 64.1058C252.628 62.5467 251.759 60.9843 250.866 59.4626L251.663 59.0275C252.563 60.561 253.438 62.1353 254.264 63.7065L253.447 64.1058ZM43.0895 58.7054L42.2956 58.2647C43.2094 56.7348 44.173 55.2035 45.1599 53.7136L45.9319 54.1888C44.9526 55.6675 43.9961 57.1872 43.0895 58.7054ZM248.066 54.9363C247.098 53.4507 246.084 51.9707 245.053 50.5373L245.806 50.034C246.845 51.4784 247.866 52.9697 248.841 54.4667L248.066 54.9363ZM48.9854 49.8035L48.2367 49.2946C49.2927 47.8506 50.3968 46.4114 51.519 45.0167L52.2427 45.5579C51.1292 46.9422 50.0332 48.3705 48.9854 49.8035ZM241.835 46.2742C240.731 44.8802 239.582 43.4945 238.417 42.1554L239.12 41.5882C240.292 42.9375 241.451 44.3336 242.563 45.7382L241.835 46.2742ZM55.6967 41.4614L54.9995 40.8887C56.1845 39.5467 57.4196 38.2109 58.6704 36.9185L59.34 37.5209C58.0988 38.8036 56.8731 40.1295 55.6967 41.4614ZM234.809 38.19C233.578 36.8986 232.302 35.6187 231.015 34.3862L231.661 33.7596C232.958 35.0018 234.243 36.2912 235.483 37.5923L234.809 38.19ZM63.1644 33.7458L62.5239 33.1145C63.8337 31.879 65.1892 30.6575 66.5522 29.4841L67.1623 30.143C65.8095 31.3074 64.4644 32.5196 63.1644 33.7458V33.7458ZM227.047 30.7519C225.698 29.5727 224.306 28.4097 222.909 27.2951L223.493 26.6146C224.9 27.7376 226.303 28.9095 227.662 30.0978L227.047 30.7519ZM71.3253 26.7194L70.7469 26.0346C72.1637 24.9222 73.6278 23.8251 75.0989 22.7738L75.6446 23.4832C74.1845 24.5268 72.7313 25.6154 71.3253 26.7194H71.3253ZM80.1108 20.4412L79.5995 19.7085C81.1158 18.7249 82.6768 17.7617 84.2393 16.8451L84.7152 17.5998C83.1648 18.5092 81.6156 19.4653 80.1108 20.4412H80.1108ZM89.4485 14.9649L89.0088 14.1899C90.6129 13.3436 92.2578 12.5226 93.8975 11.7491L94.3 12.5426C92.6728 13.31 91.0405 14.1248 89.4485 14.9649ZM199.997 12.9186C198.367 12.1357 196.698 11.3793 195.035 10.6706L195.405 9.86288C197.081 10.577 198.764 11.3392 200.406 12.1282L199.997 12.9186ZM99.2598 10.3379L98.8957 9.52758C100.572 8.82703 102.287 8.15516 103.992 7.53051L104.318 8.35633C102.625 8.97604 100.923 9.64273 99.2598 10.3379ZM189.969 8.64462C188.272 8.0105 186.537 7.40545 184.809 6.84656L185.1 6.0091C186.841 6.57251 188.59 7.18207 190.3 7.82138L189.969 8.64462ZM109.477 6.59709L109.192 5.7579C110.933 5.20764 112.709 4.6895 114.471 4.21837L114.715 5.06921C112.967 5.53689 111.205 6.05094 109.477 6.59709H109.477ZM179.581 5.28397C177.834 4.80378 176.052 4.35658 174.285 3.95488L174.495 3.09542C176.276 3.50014 178.072 3.95078 179.833 4.43442L179.581 5.28397ZM120.021 3.7757L119.817 2.91473C121.602 2.52165 123.42 2.16351 125.221 1.85043L125.383 2.71938C123.596 3.0303 121.792 3.38565 120.021 3.7757ZM168.931 2.86298C167.147 2.54018 165.33 2.25299 163.53 2.00934L163.657 1.13478C165.471 1.38038 167.302 1.66974 169.1 1.99489L168.931 2.86298ZM130.79 1.90196L130.669 1.02654C132.482 0.793243 134.326 0.597029 136.15 0.443938L136.229 1.32367C134.42 1.47589 132.59 1.67037 130.79 1.90196ZM158.095 1.39525C156.29 1.23138 154.454 1.10503 152.636 1.02029L152.68 0.137973C154.512 0.223576 156.362 0.35079 158.181 0.515976L158.095 1.39525ZM141.691 0.98493L141.653 0.102632C143.337 0.0349272 145.052 0.000432758 146.753 0L147.168 0.000643492L147.165 0.883824L146.753 0.88318C145.065 0.883591 143.362 0.91787 141.691 0.98493Z" fill="#3F3D56"/>
<path d="M413.121 288.046H77.4033V288.93H413.121V288.046Z" fill="#3F3D56"/>
<path d="M273.892 139.554L278.472 208.001C278.472 208.001 289.465 234.938 289.007 260.55C289.007 260.55 284.885 270.706 288.091 272.473C291.297 274.239 293.129 275.564 291.297 276.889C289.465 278.213 288.091 281.304 289.465 282.188C290.839 283.071 291.297 284.396 290.839 284.396H277.098C277.098 284.396 279.846 277.772 275.724 276.005C271.602 274.239 273.892 269.823 273.892 269.823L243.206 183.271L218.932 262.758C218.932 262.758 223.054 265.407 219.848 266.732C216.642 268.057 215.268 265.407 216.642 268.057C218.016 270.706 216.184 272.031 216.184 272.473C216.184 272.914 202.444 271.148 202.444 271.148C202.444 271.148 209.314 265.407 206.108 264.082C202.902 262.758 201.528 261.433 202.444 260.55C203.36 259.667 207.024 251.276 207.024 251.276C207.024 251.276 208.856 219.482 209.314 218.157C209.772 216.832 209.314 210.65 209.314 207.559C209.314 204.468 208.856 192.103 210.23 189.012C211.604 185.921 212.978 147.944 220.306 143.528C227.634 139.112 273.892 139.554 273.892 139.554Z" fill="#2F2E41"/>
<path d="M215.725 270.264C215.725 270.264 224.886 288.369 218.474 290.577C212.061 292.785 203.817 291.019 201.985 293.668C200.153 296.318 180.001 299.409 179.543 292.785C179.085 286.161 201.527 273.797 201.527 273.797L204.451 269.258L215.725 270.264Z" fill="#2F2E41"/>
<path d="M289.922 283.513C289.922 283.513 299.082 301.618 292.67 303.826C286.258 306.034 278.014 304.267 276.182 306.917C274.35 309.566 254.197 312.657 253.739 306.034C253.281 299.41 275.724 287.045 275.724 287.045L278.647 282.507L289.922 283.513Z" fill="#2F2E41"/>
<path d="M247.557 56.3144C255.904 56.3144 262.671 49.7899 262.671 41.7415C262.671 33.6932 255.904 27.1687 247.557 27.1687C239.209 27.1687 232.442 33.6932 232.442 41.7415C232.442 49.7899 239.209 56.3144 247.557 56.3144Z" fill="#A0616A"/>
<path d="M257.862 49.4688L256.03 62.2753L242.29 72.4323L238.626 67.5746V50.7936L257.862 49.4688Z" fill="#A0616A"/>
<path d="M236.336 65.8084C236.336 65.8084 250.534 67.1331 257.862 62.2756L272.518 145.736C272.518 145.736 220.764 149.711 218.474 147.061V121.007L227.634 78.6145L236.336 65.8084Z" fill="#2B50AA"/>
<path d="M256.6 58.2852L261.526 62.2755C261.526 62.2755 281.678 65.3666 280.304 70.6657L274.808 133.372L276.64 154.568C276.64 154.568 261.068 150.594 249.16 154.568C237.251 158.542 246.712 69.1628 246.712 69.1628C246.712 69.1628 257.629 59.5939 256.6 58.2852Z" fill="#E8C547"/>
<path d="M238.626 63.1184C238.626 63.1184 223.97 73.315 222.138 79.9388C220.306 86.5627 214.352 156.334 214.352 156.334C214.352 156.334 217.1 155.009 218.474 157.217C219.848 159.425 240.916 66.6111 238.626 63.1184Z" fill="#E8C547"/>
<path d="M232.45 41.1066C232.45 41.1066 230.814 38.7402 231.443 36.1919C231.819 34.745 231.967 33.2519 231.883 31.7626C231.883 31.7626 233.205 27.6366 234.527 25.331C235.848 23.0253 235.219 22.0545 239.372 21.3264C243.526 20.5983 241.827 15.3802 252.776 21.023C253.146 21.5203 253.66 21.901 254.253 22.117C254.847 22.3329 255.494 22.3745 256.112 22.2365C258.377 21.8118 259.195 24.8456 259.195 24.8456C259.195 24.8456 260.706 23.9961 261.272 25.2096C261.839 26.4231 265.877 24.4813 265.877 32.6725C265.877 40.8637 261.281 48.1805 261.281 48.1805C261.281 48.1805 261.618 34.4019 254.13 33.0064C246.641 31.6109 238.586 27.5456 236.635 32.7637C235.582 35.6924 234.177 38.4923 232.45 41.1066Z" fill="#2F2E41"/>
<path d="M261.446 44.3826C262.262 44.3826 262.923 43.5323 262.923 42.4834C262.923 41.4345 262.262 40.5842 261.446 40.5842C260.63 40.5842 259.969 41.4345 259.969 42.4834C259.969 43.5323 260.63 44.3826 261.446 44.3826Z" fill="#A0616A"/>
<path d="M199.37 179.043C195.746 176.942 191.376 177.102 189.715 177.263C190.347 178.752 192.246 182.55 195.87 184.652C199.503 186.759 203.867 186.594 205.526 186.434C204.893 184.946 202.995 181.146 199.37 179.043Z" fill="#D0CDE1"/>
<path d="M216.4 220.74H193.749C192.397 220.74 191.101 221.257 190.145 222.179C189.189 223.1 188.652 224.35 188.652 225.653C188.652 226.956 189.189 228.206 190.145 229.128C191.101 230.049 192.397 230.567 193.749 230.567H216.4C217.751 230.566 219.046 230.047 220.001 229.126C220.955 228.205 221.492 226.956 221.492 225.653C221.492 224.351 220.955 223.102 220.001 222.181C219.046 221.259 217.751 220.741 216.4 220.74Z" fill="#D0CDE1"/>
<path d="M318.972 168.871H191.974C190.497 168.871 189.034 169.152 187.669 169.697C186.304 170.242 185.064 171.041 184.02 172.048C182.975 173.055 182.146 174.251 181.581 175.567C181.016 176.883 180.725 178.293 180.725 179.718V239.376C180.725 242.252 181.91 245.011 184.02 247.045C186.129 249.079 188.991 250.222 191.974 250.222H318.972C320.449 250.222 321.912 249.941 323.277 249.396C324.642 248.851 325.882 248.052 326.927 247.045C327.971 246.038 328.8 244.842 329.365 243.526C329.931 242.21 330.222 240.8 330.222 239.376V179.718C330.222 178.293 329.931 176.883 329.365 175.567C328.8 174.251 327.971 173.055 326.927 172.048C325.882 171.041 324.642 170.242 323.277 169.697C321.912 169.152 320.449 168.871 318.972 168.871ZM188.832 176.27C189.083 176.226 195.03 175.251 199.954 178.107C204.878 180.964 206.77 186.487 206.848 186.72L207.047 187.316L206.408 187.425C205.496 187.563 204.575 187.628 203.652 187.62C201.416 187.62 198.175 187.264 195.286 185.587C190.362 182.732 188.47 177.208 188.392 176.975L188.193 176.379L188.832 176.27ZM216.4 231.659H193.749C192.097 231.659 190.513 231.026 189.344 229.9C188.176 228.773 187.52 227.246 187.52 225.653C187.52 224.06 188.176 222.533 189.344 221.406C190.513 220.28 192.097 219.647 193.749 219.647H216.4C218.052 219.647 219.637 220.28 220.805 221.406C221.973 222.533 222.629 224.06 222.629 225.653C222.629 227.246 221.973 228.773 220.805 229.9C219.637 231.026 218.052 231.659 216.4 231.659ZM319.463 230.567C319.457 232.303 318.74 233.966 317.466 235.194C316.193 236.422 314.468 237.113 312.667 237.119H295.679C293.878 237.113 292.153 236.422 290.88 235.194C289.606 233.966 288.889 232.303 288.884 230.567V220.739C288.889 219.003 289.606 217.34 290.88 216.112C292.153 214.884 293.878 214.192 295.679 214.187H312.667C314.468 214.192 316.193 214.884 317.466 216.112C318.74 217.34 319.457 219.003 319.463 220.739L319.463 230.567Z" fill="#D0CDE1"/>
<path d="M301.058 228.657H293.697C293.171 228.657 292.667 228.858 292.295 229.217C291.924 229.575 291.715 230.061 291.715 230.567C291.715 231.074 291.924 231.56 292.295 231.918C292.667 232.277 293.171 232.478 293.697 232.478H301.058C301.584 232.478 302.088 232.277 302.46 231.918C302.832 231.56 303.04 231.074 303.04 230.567C303.04 230.061 302.832 229.575 302.46 229.217C302.088 228.858 301.584 228.657 301.058 228.657ZM301.058 231.386H293.697C293.585 231.386 293.474 231.366 293.371 231.324C293.268 231.283 293.174 231.223 293.095 231.147C293.016 231.071 292.953 230.981 292.91 230.881C292.867 230.782 292.845 230.675 292.845 230.567C292.845 230.46 292.867 230.353 292.91 230.254C292.953 230.154 293.016 230.064 293.095 229.988C293.174 229.912 293.268 229.852 293.371 229.81C293.474 229.769 293.585 229.748 293.697 229.749H301.058C301.17 229.748 301.281 229.769 301.384 229.81C301.487 229.852 301.581 229.912 301.66 229.988C301.739 230.064 301.802 230.154 301.845 230.254C301.888 230.353 301.91 230.46 301.91 230.567C301.91 230.675 301.888 230.782 301.845 230.881C301.802 230.981 301.739 231.071 301.66 231.147C301.581 231.223 301.487 231.283 301.384 231.324C301.281 231.366 301.17 231.386 301.058 231.386Z" fill="#D0CDE1"/>
<path d="M314.649 228.657H307.288C307.027 228.657 306.769 228.706 306.528 228.802C306.288 228.897 306.069 229.038 305.884 229.216C305.7 229.393 305.554 229.604 305.454 229.836C305.354 230.068 305.303 230.316 305.303 230.567C305.303 230.819 305.354 231.067 305.454 231.299C305.554 231.531 305.7 231.742 305.884 231.919C306.069 232.097 306.288 232.238 306.528 232.333C306.769 232.429 307.027 232.478 307.288 232.478H314.649C315.175 232.478 315.679 232.277 316.051 231.918C316.422 231.56 316.631 231.074 316.631 230.567C316.631 230.061 316.422 229.575 316.051 229.217C315.679 228.858 315.175 228.657 314.649 228.657ZM314.649 231.386H307.288C307.176 231.386 307.065 231.366 306.962 231.324C306.859 231.283 306.765 231.223 306.686 231.147C306.607 231.071 306.544 230.981 306.501 230.881C306.458 230.782 306.436 230.675 306.436 230.567C306.436 230.46 306.458 230.353 306.501 230.254C306.544 230.154 306.607 230.064 306.686 229.988C306.765 229.912 306.859 229.852 306.962 229.81C307.065 229.769 307.176 229.748 307.288 229.749H314.649C314.874 229.749 315.09 229.836 315.249 229.989C315.408 230.143 315.497 230.351 315.497 230.567C315.497 230.784 315.408 230.992 315.249 231.146C315.09 231.299 314.874 231.386 314.649 231.386Z" fill="#D0CDE1"/>
<path d="M301.058 223.743H293.697C293.171 223.743 292.667 223.944 292.295 224.302C291.924 224.661 291.715 225.147 291.715 225.654C291.715 226.16 291.924 226.646 292.295 227.005C292.667 227.363 293.171 227.564 293.697 227.564H301.058C301.319 227.565 301.577 227.516 301.818 227.42C302.059 227.324 302.277 227.183 302.462 227.006C302.646 226.828 302.792 226.617 302.892 226.385C302.992 226.153 303.043 225.905 303.043 225.654C303.043 225.402 302.992 225.154 302.892 224.922C302.792 224.69 302.646 224.479 302.462 224.301C302.277 224.124 302.059 223.983 301.818 223.887C301.577 223.791 301.319 223.742 301.058 223.743ZM301.058 226.472H293.697C293.472 226.472 293.255 226.386 293.096 226.233C292.937 226.079 292.847 225.871 292.847 225.654C292.847 225.436 292.937 225.228 293.096 225.074C293.255 224.921 293.472 224.835 293.697 224.835H301.058C301.284 224.835 301.5 224.921 301.659 225.074C301.818 225.228 301.908 225.436 301.908 225.654C301.908 225.871 301.818 226.079 301.659 226.233C301.5 226.386 301.284 226.472 301.058 226.472Z" fill="#D0CDE1"/>
<path d="M314.649 223.743H307.288C307.027 223.742 306.769 223.791 306.528 223.887C306.288 223.983 306.069 224.124 305.884 224.301C305.7 224.479 305.554 224.69 305.454 224.922C305.354 225.154 305.303 225.402 305.303 225.654C305.303 225.905 305.354 226.153 305.454 226.385C305.554 226.617 305.7 226.828 305.884 227.006C306.069 227.183 306.288 227.324 306.528 227.42C306.769 227.516 307.027 227.565 307.288 227.564H314.649C315.175 227.564 315.679 227.363 316.051 227.005C316.422 226.646 316.631 226.16 316.631 225.654C316.631 225.147 316.422 224.661 316.051 224.302C315.679 223.944 315.175 223.743 314.649 223.743ZM314.649 226.472H307.288C307.062 226.472 306.846 226.386 306.687 226.233C306.528 226.079 306.438 225.871 306.438 225.654C306.438 225.436 306.528 225.228 306.687 225.074C306.846 224.921 307.062 224.835 307.288 224.835H314.649C314.875 224.835 315.091 224.921 315.25 225.074C315.409 225.228 315.499 225.436 315.499 225.654C315.499 225.871 315.409 226.079 315.25 226.233C315.091 226.386 314.875 226.472 314.649 226.472Z" fill="#D0CDE1"/>
<path d="M301.058 218.828H293.697C293.171 218.828 292.667 219.03 292.295 219.388C291.924 219.747 291.715 220.233 291.715 220.739C291.715 221.246 291.924 221.732 292.295 222.091C292.667 222.449 293.171 222.651 293.697 222.651H301.058C301.584 222.651 302.088 222.449 302.46 222.091C302.832 221.732 303.04 221.246 303.04 220.739C303.04 220.233 302.832 219.747 302.46 219.388C302.088 219.03 301.584 218.828 301.058 218.828ZM301.058 221.559H293.697C293.472 221.559 293.255 221.472 293.096 221.319C292.937 221.165 292.847 220.957 292.847 220.739C292.847 220.522 292.937 220.314 293.096 220.16C293.255 220.007 293.472 219.92 293.697 219.92H301.058C301.284 219.92 301.5 220.007 301.659 220.16C301.818 220.314 301.908 220.522 301.908 220.739C301.908 220.957 301.818 221.165 301.659 221.319C301.5 221.472 301.284 221.559 301.058 221.559Z" fill="#D0CDE1"/>
<path d="M314.649 218.828H307.288C307.027 218.828 306.769 218.877 306.528 218.973C306.288 219.069 306.069 219.21 305.884 219.387C305.7 219.565 305.554 219.775 305.454 220.007C305.354 220.24 305.303 220.488 305.303 220.739C305.303 220.991 305.354 221.239 305.454 221.471C305.554 221.704 305.7 221.914 305.884 222.092C306.069 222.269 306.288 222.41 306.528 222.506C306.769 222.602 307.027 222.651 307.288 222.651H314.649C315.174 222.65 315.678 222.448 316.049 222.09C316.42 221.731 316.628 221.246 316.628 220.739C316.628 220.233 316.42 219.747 316.049 219.389C315.678 219.031 315.174 218.829 314.649 218.828ZM314.649 221.559H307.288C307.062 221.559 306.846 221.472 306.687 221.319C306.528 221.165 306.438 220.957 306.438 220.739C306.438 220.522 306.528 220.314 306.687 220.16C306.846 220.007 307.062 219.92 307.288 219.92H314.649C314.875 219.92 315.091 220.007 315.25 220.16C315.409 220.314 315.499 220.522 315.499 220.739C315.499 220.957 315.409 221.165 315.25 221.319C315.091 221.472 314.875 221.559 314.649 221.559Z" fill="#D0CDE1"/>
<path d="M278.93 155.451L275.647 165.781C275.647 165.781 274.808 185.038 263.816 182.388C252.824 179.739 267.022 157.217 267.022 157.217L270.228 152.36L278.93 155.451Z" fill="#A0616A"/>
<path d="M216.641 155.451L213.358 165.781C213.358 165.781 212.519 185.038 201.527 182.388C190.535 179.739 204.733 157.217 204.733 157.217L207.939 152.36L216.641 155.451Z" fill="#A0616A"/>
<path d="M276.64 67.5747C276.64 67.5747 283.968 65.8083 286.258 77.7312C288.548 89.6541 291.296 123.656 291.296 123.656L280.304 159.425C280.304 159.425 269.312 153.685 267.021 154.568L275.671 123.515L268.396 91.8621C268.396 91.8621 274.808 67.5747 276.64 67.5747Z" fill="#E8C547"/>
<path opacity="0.15" d="M265.985 92.4661L275.603 123.377L265.985 154.73L271.481 123.377L265.985 92.4661Z" fill="black"/>
<path d="M222.138 91.8621L205.649 154.568C205.649 154.568 214.347 157.336 217.553 159.544L222.138 91.8621Z" fill="#E8C547"/>
<path d="M49.1726 249.448C74.4675 249.448 94.9731 229.677 94.9731 205.289C94.9731 180.9 74.4675 161.129 49.1726 161.129C23.8777 161.129 3.37207 180.9 3.37207 205.289C3.37207 229.677 23.8777 249.448 49.1726 249.448Z" fill="#B8D8D8"/>
<path opacity="0.1" d="M49.1726 243.265C70.9263 243.265 88.5611 226.263 88.5611 205.289C88.5611 184.315 70.9263 167.312 49.1726 167.312C27.419 167.312 9.78418 184.315 9.78418 205.289C9.78418 226.263 27.419 243.265 49.1726 243.265Z" fill="black"/>
<path d="M25.6426 203.498L31.3874 203.523C31.4571 200.735 32.4948 197.855 33.9245 196.179L37.7299 197.349C36.1601 199.341 35.2922 201.762 35.2521 204.26C35.2362 207.674 37.5574 209.991 40.7994 210.005C43.9279 210.019 45.8704 208.152 47.5935 204.602C49.8915 199.709 52.5222 196.691 57.4705 196.713C62.1917 196.733 65.7618 199.585 66.5943 204.011L72.3391 204.036L72.3252 207.016L66.8079 206.993C66.7659 209.215 66.0653 211.38 64.7881 213.233L61.0395 212.015C62.3192 210.238 63.0037 208.128 63.0018 205.967C63.019 202.265 60.4092 200.86 58.1339 200.85C55.1762 200.837 53.6891 202.609 51.6217 206.783C49.2097 211.724 46.2404 214.211 41.1782 214.189C36.6848 214.17 32.4877 211.508 31.5444 206.552L25.6285 206.526L25.6426 203.498Z" fill="#6C63FF"/>
<path d="M97.5551 295.111C65.2156 299.761 32.3396 299.761 0 295.111V284.513C32.3739 288.693 65.1813 288.693 97.5551 284.513V295.111Z" fill="#B8D8D8"/>
<path d="M97.5551 278.773C65.2156 283.423 32.3396 283.423 0 278.773V268.175C32.3739 272.355 65.1813 272.355 97.5551 268.175V278.773Z" fill="#B8D8D8"/>
<path d="M97.5551 262.434C65.2156 267.084 32.3396 267.084 0 262.434V251.836C32.3739 256.016 65.1813 256.016 97.5551 251.836V262.434Z" fill="#B8D8D8"/>
</svg>
