<svg width="130" height="31" viewBox="0 0 130 31" fill="none" xmlns="http://www.w3.org/2000/svg">
<path d="M17.5352 14.8255C17.5352 10.1547 13.6864 6.30598 9.01563 6.30598C4.34483 6.30598 0.496094 10.1547 0.496094 14.8255C0.496094 19.4216 4.34483 23.4198 9.01563 23.4198C12.3412 23.4198 15.2932 21.5141 16.6757 18.6743H13.5743C12.5281 20.0194 10.9213 20.9536 9.01563 20.9536C6.10105 20.9536 3.74697 18.7116 3.22384 15.9839H17.5352V14.8255ZM9.01563 8.77216C11.8928 8.77216 14.2469 10.8647 14.8074 13.5924H3.22384C3.78433 10.8647 6.10105 8.77216 9.01563 8.77216Z" fill="#10150C"/>
<path d="M28.6841 23.4198C31.1876 23.4198 33.3922 22.2241 34.8869 20.3931V23.0835H37.3904V6.56755H34.8869V9.25793C33.3922 7.46434 31.1876 6.30598 28.6841 6.30598C24.0133 6.30598 20.1645 10.1547 20.1645 14.8255C20.1645 19.4216 24.0133 23.4198 28.6841 23.4198ZM28.6093 20.9536C25.2837 20.9536 22.7802 18.0764 22.7802 14.8255C22.7802 11.4999 25.2837 8.77216 28.6093 8.77216C31.8602 8.77216 34.7374 11.4999 34.7374 14.8255C34.7374 18.0764 31.8602 20.9536 28.6093 20.9536Z" fill="#10150C"/>
<path d="M53.5105 10.6031C53.2489 8.09957 51.0817 6.30598 47.8308 6.30598C44.0942 6.30598 42.1511 8.32377 42.1511 10.8273C42.1511 13.443 43.9073 14.8629 47.8308 15.6476C50.8201 16.2454 51.8664 16.7686 51.8664 18.338C51.8664 19.8326 50.2596 20.9162 47.8308 20.9162C45.7009 20.9162 44.0194 19.7205 43.7952 18.338H41.5159C41.6654 21.2152 44.1315 23.2703 47.8308 23.2703C51.9411 23.2703 54.1457 21.2152 54.1457 18.338C54.1457 15.6102 52.4642 14.1529 48.2418 13.2935C45.5515 12.7704 44.4678 12.0604 44.4678 10.8273C44.4678 9.59422 45.8504 8.66007 47.8308 8.66007C49.7739 8.66007 51.007 9.48213 51.2312 10.6031H53.5105Z" fill="#10150C"/>
<path d="M66.1018 21.1778L73.3882 6.56755H70.4363L64.6071 18.1885L58.8154 6.56755H55.8634L63.1499 21.1404L58.4791 30.482H61.431L66.1018 21.1778Z" fill="#10150C"/>
<path d="M82.23 10.2948H85.3964C87.1859 10.2948 88.4664 10.0323 89.2379 9.50723C90.0095 8.97146 90.3952 8.09279 90.3952 6.87122C90.3952 5.64966 90.0416 4.77634 89.3344 4.25128C88.6272 3.71551 87.4324 3.44762 85.75 3.44762H82.23V10.2948ZM82.23 20.5335H85.8786C87.7645 20.5335 89.1093 20.2334 89.913 19.6334C90.7167 19.0333 91.1185 18.0421 91.1185 16.6598C91.1185 15.2775 90.7006 14.2971 89.8648 13.7184C89.0397 13.1291 87.6145 12.8344 85.5893 12.8344H82.23V20.5335ZM74.1291 23.0087V20.5013H75.4149C76.3901 20.5013 76.9955 20.3888 77.2312 20.1638C77.467 19.928 77.5848 19.3601 77.5848 18.46V5.45678C77.5848 4.55668 77.467 3.99411 77.2312 3.76909C76.9955 3.53335 76.3901 3.41548 75.4149 3.41548H74.1291V0.924124H86.8752C89.6398 0.924124 91.6918 1.37417 93.0312 2.27428C94.3707 3.17438 95.0404 4.55668 95.0404 6.42117C95.0404 7.70703 94.676 8.74643 93.9474 9.53938C93.2294 10.3216 92.1097 10.9056 90.5881 11.2914C92.3776 11.6557 93.7116 12.3093 94.5903 13.2523C95.4797 14.1953 95.9244 15.449 95.9244 17.0134C95.9244 19.1672 95.1904 20.7049 93.7224 21.6265C92.2543 22.548 89.763 23.0087 86.2483 23.0087H74.1291Z" fill="#10150C"/>
<path d="M98.2389 23.0087V20.8067H99.4605C100.211 20.8067 100.709 20.6888 100.955 20.4531C101.212 20.2174 101.341 19.6762 101.341 18.8297V11.645C101.341 10.7984 101.212 10.2627 100.955 10.0376C100.709 9.80191 100.211 9.68404 99.4605 9.68404H98.2389V7.46593H105.359V18.8297C105.359 19.6655 105.483 20.2066 105.729 20.4531C105.986 20.6888 106.495 20.8067 107.256 20.8067H108.253V23.0087H98.2389ZM100.618 3.09401C100.618 2.40822 100.848 1.82958 101.309 1.3581C101.78 0.88662 102.359 0.650879 103.045 0.650879C103.741 0.650879 104.325 0.88662 104.797 1.3581C105.279 1.82958 105.52 2.40822 105.52 3.09401C105.52 3.7798 105.279 4.3638 104.797 4.84599C104.325 5.32819 103.741 5.56929 103.045 5.56929C102.37 5.56929 101.796 5.32819 101.325 4.84599C100.854 4.3638 100.618 3.7798 100.618 3.09401Z" fill="#10150C"/>
<path d="M109.78 23.0087V20.8067H110.873C111.623 20.8067 112.121 20.6888 112.367 20.4531C112.614 20.2174 112.737 19.6762 112.737 18.8297V11.645C112.737 10.7984 112.614 10.2627 112.367 10.0376C112.121 9.80191 111.623 9.68404 110.873 9.68404H109.78V7.46593H116.723V10.1984C117.58 9.12683 118.459 8.32317 119.359 7.7874C120.27 7.25162 121.192 6.98373 122.124 6.98373C123.913 6.98373 125.199 7.42307 125.981 8.30174C126.764 9.18041 127.155 10.6484 127.155 12.7058V18.8297C127.155 19.6762 127.278 20.2174 127.524 20.4531C127.782 20.6888 128.285 20.8067 129.035 20.8067H130V23.0087H120.645V20.8067H121.304C122.054 20.8067 122.552 20.6888 122.799 20.4531C123.056 20.2174 123.185 19.6762 123.185 18.8297V12.7058C123.185 11.5592 122.992 10.7395 122.606 10.2466C122.231 9.75369 121.609 9.50723 120.741 9.50723C119.498 9.50723 118.518 9.97871 117.8 10.9217C117.082 11.8646 116.723 13.1612 116.723 14.8114V18.8297C116.723 19.6762 116.846 20.2174 117.093 20.4531C117.35 20.6888 117.854 20.8067 118.604 20.8067H119.263V23.0087H109.78Z" fill="#10150C"/>
</svg>
