<svg width="58" height="104" viewBox="0 0 58 104" fill="none" xmlns="http://www.w3.org/2000/svg">
<path d="M25.7979 67.6536V103.23H31.3695V67.6536C30.4636 67.8637 29.5318 67.9749 28.5837 67.9749C27.6355 67.9749 26.7037 67.8637 25.7979 67.6536Z" fill="#2B50AA"/>
<path d="M17.0254 31.0661L28.5757 18.5152L40.126 31.0661L28.5757 43.617L17.0254 31.0661Z" fill="#E8C547"/>
<path d="M34.1251 2.49425C32.645 0.885719 30.6771 0 28.5837 0C26.4904 0 24.5225 0.885719 23.0424 2.49425L2.29155 25.0425C-0.76385 28.3628 -0.76385 33.7652 2.29155 37.0855L23.0422 59.6337C24.5223 61.2423 26.4904 62.128 28.5835 62.128C30.6767 62.128 32.6448 61.2423 34.1249 59.6337L54.8755 37.0855C57.9309 33.7652 57.9309 28.363 54.8755 25.0425L34.1251 2.49425ZM28.5837 52.1788L9.15215 31.0641L28.5837 9.94897L48.0153 31.0639L28.5837 52.1788Z" fill="#2B50AA"/>
</svg>
